<svg width="48" height="48" viewBox="0 0 48 48" fill="none" xmlns="http://www.w3.org/2000/svg">
<rect width="48" height="48" rx="24" fill="#37007E"/>
<path fill-rule="evenodd" clip-rule="evenodd" d="M23.8125 43.1257C17.25 43.1257 7.125 28.9695 7.125 19.5007C7.125 10.032 14.4375 4.68823 23.8125 4.68823C33.1875 4.68823 39.75 9.84448 39.75 19.5007C39.75 29.157 30.375 43.1257 23.8125 43.1257ZM34.666 28.7281C37.62 25.5418 38.5668 21.6164 36.7806 19.9604C34.9944 18.3044 31.1517 19.545 28.1977 22.7313C25.2436 25.9176 24.2968 29.843 26.083 31.499C27.8692 33.155 31.7119 31.9144 34.666 28.7281ZM9.98413 19.9604C8.19796 21.6164 9.14472 25.5418 12.0988 28.7281C15.0528 31.9144 18.8955 33.155 20.6817 31.499C22.4679 29.843 21.5211 25.9176 18.5671 22.7313C15.613 19.545 11.7703 18.3044 9.98413 19.9604ZM18.4632 36.5663C18.4632 35.2311 28.6367 35.2638 28.6367 36.5663C28.6367 37.8687 25.3398 39.0933 23.6442 39.0933C21.9486 39.0933 18.4632 37.9014 18.4632 36.5663Z" fill="#0FD1C5"/>
</svg>
