<svg width="500" height="209" viewBox="0 0 500 209" fill="none" xmlns="http://www.w3.org/2000/svg">
<path d="M140.944 122.468H126.445C122.052 122.468 118.879 121.614 116.926 119.905C114.974 118.148 113.997 115.341 113.997 111.485V95.6683C113.997 91.8119 114.827 89.1514 116.487 87.6869C118.147 86.1736 120.978 85.417 124.981 85.417H131.059C135.11 85.417 137.942 86.1736 139.553 87.6869C141.212 89.1514 142.042 91.8119 142.042 95.6683V108.702H123.224V101.38H131.791V94.8628C131.791 94.1794 131.449 93.8377 130.766 93.8377H125.42C124.737 93.8377 124.395 94.1794 124.395 94.8628V112.656C124.395 113.34 124.737 113.681 125.42 113.681H140.944V122.468Z" fill="white"/>
<path d="M96.7505 85.4186H98.6543C101.974 85.4186 104.39 86.1265 105.903 87.5421C107.417 88.909 108.173 91.2521 108.173 94.5716V122.03H97.7757V94.8645C97.7757 94.1811 97.4339 93.8394 96.7505 93.8394H90.673C89.9895 93.8394 89.6478 94.1811 89.6478 94.8645L89.7943 122.03H79.3965L79.2501 72.6045H89.6478V93.8394H89.2817C89.2817 91.2521 89.8675 89.2019 91.0391 87.6886C92.2595 86.1753 94.1633 85.4186 96.7505 85.4186Z" fill="white"/>
<path d="M75.4417 86.15V94.2046H66.6549L67.3871 93.4724V112.218C67.3871 112.901 67.7288 113.243 68.4123 113.243H75.4417V122.03H69.4374C65.044 122.03 61.8709 121.175 59.9183 119.467C57.9657 117.709 56.9894 114.903 56.9894 111.046V93.4724L57.7216 94.2046H53.3282V86.15H57.7216L56.9894 86.8823V76.9971H67.3871V86.8823L66.6549 86.15H75.4417Z" fill="white"/>
<path d="M444.928 73.064H448.498V90.9151H433.074C431.742 90.9151 431.075 91.5815 431.075 92.9144L431.361 144.469H411.082L410.796 74.4921H429.219L431.075 89.487H430.361C430.361 84.4411 431.503 80.4424 433.788 77.491C436.169 74.5397 439.882 73.064 444.928 73.064Z" fill="white"/>
<path d="M402.797 74.4903V90.1993H385.66L387.088 88.7712V125.33C387.088 126.663 387.755 127.33 389.088 127.33H402.797V144.467H391.087C382.519 144.467 376.33 142.801 372.522 139.468C368.714 136.041 366.81 130.567 366.81 123.045V88.7712L368.238 90.1993H359.669V74.4903H368.238L366.81 75.9184V56.6392H387.088V75.9184L385.66 74.4903H402.797Z" fill="white"/>
<path d="M335.08 144.612H303.948L303.805 128.188H331.653C332.986 128.188 333.652 127.522 333.652 126.189V119.049C333.652 117.716 332.986 117.049 331.653 117.049H323.798C315.992 117.049 310.47 115.621 307.233 112.765C303.996 109.814 302.377 104.768 302.377 97.6273V93.7715C302.377 86.2502 304.091 80.9186 307.518 77.7768C311.041 74.5398 316.706 72.9689 324.512 73.0641L349.361 73.2069V90.344L324.798 90.2012C323.465 90.2012 322.799 90.8677 322.799 92.2006V99.0554C322.799 100.388 323.465 101.055 324.798 101.055H332.224C340.126 101.055 345.648 102.483 348.79 105.339C352.027 108.195 353.646 113.194 353.646 120.334V126.76C353.646 133.139 352.17 137.709 349.218 140.47C346.267 143.231 341.554 144.612 335.08 144.612Z" fill="white"/>
<path d="M203.96 112.336V53.7842H222.097V144.468H207.102L167.258 85.6306H170.257V144.468H152.121V53.7842H166.973L206.817 112.336H203.96Z" fill="white"/>
<path d="M224.543 100.85C224.543 122.208 247.481 154.139 262.348 154.139C277.215 154.139 298.454 122.631 298.454 100.85C298.454 79.0686 283.587 67.438 262.348 67.438C241.109 67.438 224.543 79.4916 224.543 100.85Z" fill="#0DE6BF"/>
<path fill-rule="evenodd" clip-rule="evenodd" d="M248.399 151.072C252.833 154.551 257.682 157.006 262.348 157.006C267.021 157.006 271.768 154.572 276.062 151.107C280.42 147.59 284.652 142.738 288.351 137.268C295.702 126.399 301.321 112.518 301.321 100.85C301.321 89.2661 297.342 80.0818 290.264 73.8274C283.236 67.6167 273.466 64.5708 262.348 64.5708C251.211 64.5708 241.061 67.7305 233.641 73.935C226.163 80.188 221.675 89.3612 221.675 100.85C221.675 112.371 227.773 126.277 235.535 137.168C239.448 142.658 243.891 147.536 248.399 151.072ZM262.348 154.139C247.481 154.139 224.542 122.208 224.542 100.85C224.542 79.4916 241.109 67.438 262.348 67.438C283.587 67.438 298.454 79.0687 298.454 100.85C298.454 122.631 277.215 154.139 262.348 154.139Z" fill="black"/>
<path d="M291.727 101.891C295.774 105.626 293.629 114.48 286.937 121.668C280.244 128.855 271.539 131.653 267.492 127.918C263.445 124.182 265.59 115.328 272.283 108.141C278.975 100.954 287.681 98.1555 291.727 101.891Z" fill="black"/>
<path d="M231.02 101.891C226.974 105.626 229.118 114.48 235.811 121.668C242.503 128.855 251.209 131.653 255.255 127.918C259.302 124.182 257.157 115.328 250.465 108.141C243.772 100.954 235.067 98.1555 231.02 101.891Z" fill="black"/>
<path d="M290.815 110.213C291.394 110.724 290.26 115.692 286.526 119.882C282.793 124.073 277.875 125.899 277.297 125.388C276.718 124.877 279.274 121.066 283.008 116.875C286.741 112.684 290.237 109.702 290.815 110.213Z" fill="white"/>
<path d="M276.83 108.5C276.567 108.075 277.615 105.566 279.975 104.121C282.335 102.676 285.12 102.839 285.383 103.264C285.646 103.689 283.944 105.208 281.582 106.653C279.22 108.098 277.091 108.925 276.828 108.5H276.83Z" fill="white"/>
<path d="M240.14 116.875C243.873 121.066 246.431 124.877 245.85 125.388C245.272 125.899 240.354 124.073 236.621 119.882C232.887 115.692 231.751 110.724 232.332 110.213C232.913 109.702 236.406 112.684 240.14 116.875Z" fill="white"/>
<path d="M241.538 106.653C239.176 105.208 237.475 103.69 237.738 103.265C238.001 102.84 240.783 102.674 243.145 104.121C245.507 105.566 246.555 108.075 246.29 108.5C246.025 108.925 243.898 108.1 241.536 106.653H241.538Z" fill="white"/>
<path d="M271.616 139.467C270.13 136.445 254.846 135.696 253.36 139.467C251.874 143.238 260.153 144.612 263.125 144.612C266.097 144.612 273.102 142.489 271.616 139.467Z" fill="black"/>
</svg>
