<svg width="500" height="209" viewBox="0 0 500 209" fill="none" xmlns="http://www.w3.org/2000/svg">
<path d="M140.944 122.802H126.445C122.052 122.802 118.879 121.948 116.926 120.239C114.974 118.482 113.997 115.675 113.997 111.819V96.0023C113.997 92.1458 114.827 89.4854 116.487 88.0209C118.147 86.5076 120.978 85.751 124.981 85.751H131.059C135.11 85.751 137.942 86.5076 139.553 88.0209C141.212 89.4854 142.042 92.1458 142.042 96.0023V109.036H123.224V101.714H131.791V95.1968C131.791 94.5134 131.449 94.1717 130.766 94.1717H125.42C124.737 94.1717 124.395 94.5134 124.395 95.1968V112.99C124.395 113.674 124.737 114.015 125.42 114.015H140.944V122.802Z" fill="white"/>
<path d="M96.7505 85.7531H98.6543C101.974 85.7531 104.39 86.4609 105.903 87.8766C107.417 89.2434 108.173 91.5866 108.173 94.9061V122.365H97.7756V95.199C97.7756 94.5155 97.4339 94.1738 96.7505 94.1738H90.6729C89.9895 94.1738 89.6478 94.5155 89.6478 95.199L89.7942 122.365H79.3964L79.25 72.939H89.6478V94.1738H89.2816C89.2816 91.5866 89.8674 89.5363 91.039 88.023C92.2594 86.5098 94.1632 85.7531 96.7505 85.7531Z" fill="white"/>
<path d="M75.4418 86.4845V94.5391H66.655L67.3872 93.8069V112.552C67.3872 113.236 67.7289 113.577 68.4123 113.577H75.4418V122.364H69.4375C65.044 122.364 61.871 121.51 59.9184 119.801C57.9657 118.044 56.9894 115.237 56.9894 111.381V93.8069L57.7217 94.5391H53.3282V86.4845H57.7217L56.9894 87.2167V77.3315H67.3872V87.2167L66.655 86.4845H75.4418Z" fill="white"/>
<path d="M444.928 73.3979H448.498V91.2491H433.074C431.742 91.2491 431.075 91.9155 431.075 93.2484L431.361 144.803H411.082L410.796 74.826H429.219L431.075 89.821H430.361C430.361 84.7751 431.503 80.7764 433.788 77.825C436.169 74.8736 439.882 73.3979 444.928 73.3979Z" fill="white"/>
<path d="M402.797 74.8248V90.5338H385.66L387.088 89.1057V125.665C387.088 126.998 387.755 127.664 389.088 127.664H402.797V144.801H391.087C382.519 144.801 376.33 143.135 372.522 139.803C368.714 136.376 366.81 130.901 366.81 123.38V89.1057L368.238 90.5338H359.669V74.8248H368.238L366.81 76.2529V56.9736H387.088V76.2529L385.66 74.8248H402.797Z" fill="white"/>
<path d="M335.08 144.946H303.948L303.805 128.522H331.653C332.986 128.522 333.652 127.856 333.652 126.523V119.383C333.652 118.05 332.986 117.383 331.653 117.383H323.798C315.992 117.383 310.47 115.955 307.233 113.099C303.996 110.148 302.377 105.102 302.377 97.9613V94.1054C302.377 86.5842 304.091 81.2526 307.518 78.1108C311.041 74.8738 316.706 73.3029 324.512 73.3981L349.361 73.5409V90.678L324.798 90.5352C323.465 90.5352 322.799 91.2017 322.799 92.5345V99.3894C322.799 100.722 323.465 101.389 324.798 101.389H332.224C340.126 101.389 345.648 102.817 348.79 105.673C352.027 108.529 353.646 113.527 353.646 120.668V127.094C353.646 133.473 352.17 138.043 349.218 140.804C346.267 143.565 341.554 144.946 335.08 144.946Z" fill="white"/>
<path d="M203.96 112.669V54.1177H222.097V144.802H207.102L167.258 85.9641H170.257V144.802H152.121V54.1177H166.973L206.817 112.669H203.96Z" fill="white"/>
<path d="M227.871 81.2292C227.871 93.7222 231.234 126.708 230.301 153.046H249.754V137.316C249.754 135.504 248.123 137.355 259.803 129.709L285.441 111.063C294.143 108.888 312.452 105.424 313.851 104.025C315.249 102.627 315.83 97.7208 314.69 96.1346C312.639 93.2786 300.967 90.2701 297.837 88.5628C295.15 87.0972 290.998 86.1202 287.578 83.4334C279.518 71.2206 275.708 68.9888 272.678 68.2896C269.648 67.5904 246.491 65.3345 238.333 65.8007C230.176 66.2668 227.871 75.1237 227.871 81.2292Z" fill="#7164FF"/>
<path fill-rule="evenodd" clip-rule="evenodd" d="M227.559 155.694L227.656 152.953C228.117 139.911 227.516 125.181 226.792 112.092C226.584 108.316 226.364 104.663 226.157 101.225C225.652 92.8374 225.224 85.7292 225.224 81.2296C225.224 77.9141 225.839 73.7085 227.7 70.1688C229.616 66.5245 232.957 63.4567 238.182 63.1581C242.475 62.9128 250.485 63.3792 257.646 63.9702C261.262 64.2685 264.721 64.6038 267.473 64.9094C270.148 65.2064 272.334 65.4936 273.274 65.7105C277.353 66.6518 281.611 69.6591 289.539 81.5997C290.893 82.5989 292.415 83.3409 294.015 84.019C294.451 84.2037 294.919 84.3931 295.4 84.5875C296.667 85.1002 298.021 85.6483 299.104 86.2391C299.678 86.5518 300.796 86.9941 302.403 87.5756C302.971 87.7813 303.599 88.0037 304.256 88.2367C305.33 88.6175 306.484 89.0264 307.589 89.4363C309.393 90.1056 311.248 90.8416 312.808 91.6157C314.229 92.3208 315.904 93.2874 316.84 94.5907L314.69 96.1351C313.349 94.2684 307.899 92.3365 303.409 90.7454C301.03 89.9022 298.921 89.1546 297.837 88.5632C296.896 88.05 295.775 87.5966 294.569 87.1088C292.331 86.2036 289.8 85.1797 287.578 83.4339C279.518 71.2211 275.708 68.9893 272.678 68.2901C269.648 67.5908 246.491 65.335 238.333 65.8011C230.176 66.2673 227.871 75.1242 227.871 81.2296C227.871 85.6447 228.291 92.6193 228.793 100.955C229.664 115.423 230.782 133.992 230.38 150.399C230.359 151.288 230.332 152.171 230.301 153.047H249.754V137.316C249.754 136.859 249.65 136.635 249.683 136.433C249.778 135.834 251.07 135.427 259.803 129.71L285.441 111.064C288.333 110.34 292.287 109.475 296.328 108.591C304.446 106.814 312.917 104.959 313.85 104.026C315.249 102.627 315.83 97.7213 314.69 96.1351L316.84 94.5907C317.51 95.5234 317.761 96.6529 317.865 97.5275C317.978 98.4723 317.96 99.4851 317.853 100.443C317.747 101.402 317.542 102.39 317.237 103.284C316.951 104.117 316.49 105.13 315.722 105.898C315.305 106.315 314.813 106.568 314.546 106.696C314.217 106.855 313.848 107.001 313.476 107.133C312.728 107.401 311.787 107.68 310.738 107.965C308.629 108.536 305.889 109.179 302.965 109.836C300.967 110.285 298.884 110.741 296.835 111.19C293.049 112.018 289.38 112.821 286.58 113.509L261.307 131.889L261.253 131.925C258.314 133.848 256.21 135.177 254.707 136.115C254.276 136.384 253.904 136.615 253.58 136.817C253.082 137.126 252.7 137.364 252.402 137.554V155.694H227.559ZM252.308 136.265C252.308 136.267 252.311 136.284 252.313 136.314C252.308 136.279 252.307 136.264 252.308 136.265Z" fill="black"/>
<path d="M247.874 86.6908C247.362 80.404 253.035 74.4796 262.048 74.0789C272.122 75.1384 278.455 83.7342 278.455 83.7342C278.455 83.7342 274.102 96.0152 263.9 96.8453C255.561 97.5238 248.385 92.9775 247.874 86.6908Z" fill="black"/>
<path d="M264.554 78.0559C264.554 78.8653 263.023 79.5214 261.134 79.5214C259.246 79.5214 257.715 78.8653 257.715 78.0559C257.715 77.2465 259.246 76.5903 261.134 76.5903C263.023 76.5903 264.554 77.2465 264.554 78.0559Z" fill="#D9D9D9"/>
<path d="M291.272 91.7876C291.479 90.3869 293.208 89.7425 294.628 89.9528C296.92 90.2923 298.993 91.6552 298.785 93.0559C298.578 94.4566 296.08 95.2372 293.788 94.8977C291.496 94.5581 291.064 93.1883 291.272 91.7876Z" fill="black"/>
<path d="M270.86 90.9014C270.883 91.5998 268.67 94.7721 262.405 94.7721C256.991 94.7721 252.525 91.5998 252.502 90.9014C252.479 90.203 257.324 92.2175 262.405 92.047C267.486 91.8764 268.385 90.9014 270.86 90.9014Z" fill="white"/>
<path fill-rule="evenodd" clip-rule="evenodd" d="M293.892 100.689C302.045 99.4982 315.115 97.5873 315.603 98.5643C316.092 99.5413 315.115 101.984 315.115 101.984C315.115 101.984 302.538 102.882 294.387 104.073C286.211 105.267 278.484 106.715 275.353 107.758C272.642 108.662 270.361 108.438 268.433 107.599C266.582 106.792 265.166 105.459 264.086 104.385C263.928 104.228 263.78 104.079 263.639 103.938C263.27 103.567 262.951 103.247 262.632 102.957C262.194 102.559 261.894 102.353 261.683 102.258C261.535 102.192 261.496 102.207 261.482 102.213C261.48 102.214 261.479 102.214 261.478 102.214C261.412 102.235 261.157 102.345 260.723 102.852C260.108 103.569 259.029 103.652 258.312 103.038C257.595 102.423 257.512 101.344 258.127 100.627C258.791 99.8515 259.552 99.2338 260.458 98.9507C261.417 98.6506 262.315 98.795 263.078 99.1361C263.791 99.4548 264.412 99.9545 264.931 100.425C265.32 100.778 265.729 101.19 266.119 101.582C266.247 101.711 266.374 101.838 266.497 101.96C267.556 103.014 268.584 103.934 269.799 104.464C270.939 104.96 272.349 105.155 274.272 104.514C277.737 103.359 285.764 101.876 293.892 100.689Z" fill="black"/>
</svg>
