<svg width="1201" height="1200" viewBox="0 0 1201 1200" fill="none" xmlns="http://www.w3.org/2000/svg">
<path fill-rule="evenodd" clip-rule="evenodd" d="M388.951 251L392.387 265.485L405.158 259.316L396.671 271.209L409.161 278L395.142 278.346L397.946 292.985L388.951 281.522L379.957 292.985L382.761 278.346L368.741 278L381.232 271.209L372.744 259.316L385.516 265.485L388.951 251ZM365.133 354.149L361.312 338.054L357.491 354.149L343.287 347.293L352.727 360.508L338.835 368.054L354.427 368.438L351.309 384.703L361.312 371.967L371.315 384.703L368.197 368.438L383.788 368.054L369.897 360.508L379.337 347.293L365.133 354.149ZM552.95 520.522H539.423V413.096H552.95V474.21H569.979C570.828 474.21 571.412 473.679 571.73 472.618L581.279 442.539H594.488L586.849 466.889C585.576 471.133 584.25 474.316 582.87 476.438C582.168 477.55 581.305 478.468 580.28 479.193C580.403 479.228 580.524 479.265 580.642 479.303C582.977 480.045 584.78 481.478 586.053 483.6C587.433 485.722 588.865 488.798 590.35 492.83L600.536 520.522H586.69L574.436 487.101C574.329 486.57 574.17 486.199 573.958 485.987C573.746 485.669 573.375 485.509 572.844 485.509H552.95V520.522ZM637.331 521.318H669.16V510.019H632.079C631.018 510.019 630.487 509.488 630.487 508.427V490.125H671.07V459.091C671.07 452.3 669.585 447.685 666.614 445.245C663.643 442.698 658.71 441.425 651.813 441.425H635.421C628.524 441.425 623.697 442.698 620.938 445.245C618.18 447.685 616.8 452.3 616.8 459.091V503.016C616.8 509.806 618.392 514.581 621.575 517.339C624.864 519.992 630.116 521.318 637.331 521.318ZM630.487 480.098V454.157C630.487 453.096 631.018 452.566 632.079 452.566H655.792C656.853 452.566 657.383 453.096 657.383 454.157V480.098H630.487ZM745.497 521.318H713.667C706.452 521.318 701.2 519.992 697.911 517.339C694.728 514.581 693.137 509.806 693.137 503.016V459.091C693.137 452.3 694.516 447.685 697.275 445.245C700.033 442.698 704.861 441.425 711.757 441.425H728.15C735.046 441.425 739.98 442.698 742.951 445.245C745.921 447.685 747.407 452.3 747.407 459.091V490.125H706.824V508.427C706.824 509.488 707.354 510.019 708.415 510.019H745.497V521.318ZM706.824 454.157V480.098H733.72V454.157C733.72 453.096 733.189 452.566 732.128 452.566H708.415C707.354 452.566 706.824 453.096 706.824 454.157ZM784.446 550.761H770.76V442.539H782.696L784.093 450.544C784.615 448.284 785.475 446.465 786.674 445.086C788.903 442.645 792.563 441.425 797.656 441.425H807.841C814.101 441.425 818.61 442.645 821.369 445.086C824.234 447.42 825.666 451.77 825.666 458.136V503.653C825.666 510.125 824.181 514.634 821.21 517.18C818.345 519.727 813.412 521 806.409 521L784.446 520.682V550.761ZM784.446 454.157V509.559L810.547 509.859C811.608 509.859 812.138 509.329 812.138 508.268V454.157C812.138 453.096 811.608 452.566 810.547 452.566H786.038C784.977 452.566 784.446 453.096 784.446 454.157ZM334.957 721.098H365.88V702.356H332.77C331.312 702.356 330.584 701.627 330.584 700.17V691.736H368.223V663.936C368.223 655.71 366.453 650.035 362.913 646.912C359.477 643.684 353.438 642.07 344.796 642.07H331.833C323.295 642.07 317.256 643.684 313.716 646.912C310.176 650.035 308.406 655.71 308.406 663.936V697.671C308.406 705.896 310.488 711.883 314.653 715.632C318.818 719.276 325.586 721.098 334.957 721.098ZM330.584 676.118H346.358V662.218C346.358 660.76 345.629 660.031 344.171 660.031H332.77C331.312 660.031 330.584 660.76 330.584 662.218V676.118ZM271.616 642.071H275.677C282.757 642.071 287.911 643.581 291.139 646.6C294.366 649.516 295.98 654.513 295.98 661.594V720.162H273.802V662.218C273.802 660.761 273.074 660.032 271.616 660.032H258.653C257.195 660.032 256.466 660.761 256.466 662.218L256.779 720.162H234.601L234.289 614.739H256.466V653.191C257.086 650.76 258.075 648.667 259.434 646.913C262.037 643.685 266.098 642.071 271.616 642.071ZM226.167 660.813V643.633H208.987V624.11H186.809V643.633H179V660.813H186.809V696.734C186.809 704.96 188.891 710.947 193.056 714.695C197.221 718.339 203.989 720.161 213.36 720.161H226.167V701.42H211.173C209.716 701.42 208.987 700.691 208.987 699.233V660.813H226.167ZM1014.69 614.644H1022.31V652.72H989.411C986.568 652.72 985.147 654.141 985.147 656.984L985.756 766.946H942.502L941.893 617.69H981.187L984.142 641.555C985.094 634.529 987.358 628.707 990.934 624.087C996.011 617.792 1003.93 614.644 1014.69 614.644ZM924.833 651.195V617.689H891.326V579.614H848.073V617.689H832.843V651.195H848.073V721.254C848.073 737.296 852.134 748.973 860.257 756.283C868.379 763.39 881.579 766.944 899.855 766.944H924.833V730.392H895.591C892.748 730.392 891.326 728.97 891.326 726.127V651.195H924.833ZM780.39 767.25H713.987L713.682 732.221H773.08C775.923 732.221 777.344 730.799 777.344 727.956V712.726C777.344 709.883 775.923 708.462 773.08 708.462H756.327C739.675 708.462 727.897 705.416 720.993 699.324C714.089 693.029 710.636 682.266 710.636 667.036V658.812C710.636 642.769 714.292 631.397 721.602 624.696C729.116 617.792 741.198 614.441 757.85 614.644L810.851 614.949V651.501L758.459 651.197C755.616 651.197 754.195 652.618 754.195 655.461V670.082C754.195 672.925 755.616 674.346 758.459 674.346H774.298C791.153 674.346 802.931 677.392 809.632 683.484C816.537 689.576 819.989 700.238 819.989 715.468V729.175C819.989 742.78 816.841 752.528 810.546 758.417C804.251 764.306 794.199 767.25 780.39 767.25ZM500.722 689.458V573.523H539.407V766.946H507.424L428.836 650.895V766.946H390.152V573.523H421.83L500.722 689.458ZM688.458 688.133C689.703 689.238 687.263 699.978 679.227 709.037C671.19 718.097 660.604 722.045 659.359 720.94C658.114 719.836 663.615 711.595 671.652 702.536C679.688 693.476 687.213 687.028 688.458 688.133ZM665.128 674.962C660.048 678.086 657.793 683.51 658.359 684.429H658.355C658.921 685.348 663.503 683.56 668.587 680.436C673.672 677.312 677.335 674.029 676.769 673.11C676.203 672.191 670.208 671.838 665.128 674.962ZM579.376 702.536C587.413 711.595 592.918 719.836 591.669 720.94C590.423 722.045 579.838 718.097 571.801 709.037C563.765 699.978 561.32 689.238 562.569 688.133C563.819 687.028 571.339 693.476 579.376 702.536ZM574.211 673.111C573.645 674.03 577.308 677.313 582.393 680.437H582.388C587.473 683.566 592.05 685.35 592.621 684.43C593.191 683.511 590.936 678.087 585.852 674.963C580.767 671.835 574.777 672.192 574.211 673.111ZM371.143 454.098C382.988 446.762 398.398 441.814 412.048 443.947C412.886 444.078 413.654 444.407 414.304 444.875L579.823 563.96C584.957 567.654 580.465 575.612 574.65 573.129L455.86 522.392L468.453 584.423C469.4 589.087 464.193 592.535 460.268 589.844L388.809 540.84L369.425 602.891C367.686 608.456 359.544 607.537 359.091 601.725L349.748 482.08V481.939C349.748 476.7 352.376 471.481 356.124 466.876C359.925 462.207 365.176 457.794 371.143 454.098ZM356.982 481.811L365.519 591.138L382.687 536.18C383.75 532.779 387.799 531.377 390.737 533.391L460.413 581.172L448.037 520.214C447.188 516.032 451.382 512.614 455.307 514.291L561.36 559.587L410.465 451.024C399.196 449.431 385.765 453.55 374.951 460.247C369.514 463.615 364.923 467.524 361.734 471.442C358.54 475.365 357.026 478.95 356.982 481.811ZM444.633 290.833L440.416 273.086L436.199 290.833L420.523 283.274L430.941 297.845L415.61 306.166L432.818 306.589L429.376 324.523L440.416 310.48L451.456 324.523L448.014 306.589L465.222 306.166L449.891 297.845L460.309 283.274L444.633 290.833Z" fill="white"/>
<path fill-rule="evenodd" clip-rule="evenodd" d="M326.032 342.068C280.657 365.757 260.197 412.694 273.039 450.057C296.262 433.194 324.534 415.713 355.926 399.324C387.316 382.936 417.819 369.732 444.93 360.318C421.614 328.423 371.407 318.379 326.032 342.068ZM264.644 454.995C264.769 455.331 264.898 455.666 265.028 456.001C224.363 486.852 201.719 514.903 209.267 529.363C214.614 539.603 234.212 541.315 262.443 535.853C248.281 536.634 238.654 534.066 235.341 527.719C224.836 507.598 281.767 457.118 362.499 414.97C443.232 372.822 517.195 354.967 527.699 375.088C531.466 382.302 526.564 393.419 515.004 406.654C539.936 384.041 552.33 364.572 546.459 353.326C538.91 338.866 502.947 341.411 454.386 357.142C454.186 356.844 453.985 356.547 453.781 356.252C427.648 318.386 370.745 307.943 321.609 333.595C272.473 359.247 248.513 411.907 264.644 454.995ZM254.629 528.164C245.413 527.69 242.78 525.224 242.21 524.133C242.122 523.964 242.036 523.737 241.97 523.444L332.431 481.473C332.511 481.977 332.664 482.45 332.893 482.889C333.471 483.995 334.5 484.828 335.923 485.401L282.859 525.158C271.368 527.557 261.835 528.534 254.629 528.164ZM342.71 486.409L342.708 486.409C342.33 486.389 341.893 486.365 341.335 486.349L292.526 522.918C305.923 519.529 331.783 510.858 348.092 504.492L347.191 486.069C344.627 486.513 344.018 486.48 342.71 486.409ZM387.878 472.264L387.881 472.262C389.403 471.461 391 470.62 392.687 469.739C399.802 466.025 409.31 460.783 415.131 456.858L425.391 465.357C417.11 470.173 405.91 476.292 396.954 480.967C392.075 483.514 388.525 485.423 385.632 486.978C377.542 491.328 374.588 492.917 362.063 497.984L360.742 483.914C369.983 481.684 377.061 477.958 387.878 472.264ZM437.031 457.982C458.521 444.53 479.262 429.756 493.193 417.404C504.446 407.426 512.481 398.484 517.038 391.169C521.918 383.336 521.4 379.766 520.83 378.675C520.26 377.583 517.627 375.117 508.411 374.643C499.803 374.201 487.874 375.682 473.254 379.211C444.133 386.242 406.061 400.97 366.086 421.84C352.634 428.863 339.875 436.107 328.013 443.385L355.062 454.705L354.779 455.381C361.424 450.643 369.254 445.839 377.863 441.344C406.793 426.241 433.564 420.354 437.657 428.195C439.823 432.343 434.544 441.239 425.435 449.298L437.031 457.982ZM323.831 445.975L351.698 457.637C347.05 461.134 343.092 464.562 339.991 467.767L285.631 472.384C296.746 463.789 309.602 454.873 323.831 445.975ZM333.398 476.61C334.048 475.21 334.996 473.701 336.214 472.106L279.931 476.886C276.355 479.774 272.989 482.617 269.847 485.403C258.594 495.381 250.559 504.323 246.002 511.638C244.158 514.597 243.085 516.948 242.494 518.787L333.398 476.61ZM627.451 783.397C595.448 783.397 546.071 714.361 546.071 668.185C546.071 622.008 581.732 595.948 627.451 595.948C673.171 595.948 705.174 621.094 705.174 668.185C705.174 715.276 659.455 783.397 627.451 783.397ZM680.383 713.183C694.789 697.645 699.406 678.501 690.695 670.426C681.984 662.35 663.245 668.4 648.838 683.938C634.432 699.477 629.815 718.62 638.526 726.696C647.237 734.772 665.976 728.722 680.383 713.183ZM560.017 670.426C551.307 678.501 555.924 697.645 570.33 713.183C584.736 728.722 603.476 734.772 612.187 726.696C620.897 718.62 616.28 699.477 601.874 683.938C587.468 668.4 568.728 662.35 560.017 670.426ZM605.455 750.297C608.655 742.177 641.569 743.789 644.769 750.297C647.969 756.805 632.883 761.377 626.483 761.377C620.083 761.377 602.255 758.417 605.455 750.297ZM720.306 914.061L733.609 917.279L751.941 841.481L738.637 838.263L720.306 914.061ZM742.154 823.723L755.457 826.94L758.525 814.255L745.222 811.038L742.154 823.723ZM873.991 840.707L887.295 843.924L862.042 948.34L850.44 945.534L850.967 937.379C849.933 939.431 848.668 941.012 847.172 942.124C844.536 943.997 840.691 944.322 835.638 943.1L825.738 940.706C819.756 939.259 815.66 937.013 813.449 933.968C811.239 930.923 810.869 926.358 812.341 920.273L823.04 876.032C824.586 869.638 827.103 865.553 830.589 863.776C834.075 862 839.157 861.973 845.835 863.698L867.145 869.015L873.991 840.707ZM851.47 933.83L864.531 879.824L839.232 873.398C838.201 873.149 837.56 873.54 837.311 874.571L824.554 927.32C824.304 928.352 824.695 928.992 825.727 929.241L849.549 935.003C850.58 935.252 851.22 934.861 851.47 933.83ZM804.324 853.001L812.368 854.946L809.6 866.393L790.264 861.717C789.232 861.468 788.592 861.859 788.343 862.89L773.047 926.814L759.743 923.597L778.075 847.799L789.676 850.605L789.111 857.668C790.1 856.055 791.275 854.813 792.636 853.94C795.478 852.117 799.374 851.804 804.324 853.001ZM707.591 912.756H675.761C668.546 912.756 663.294 911.43 660.005 908.778C656.822 906.019 655.23 901.245 655.23 894.454V850.529C655.23 843.739 656.61 839.123 659.368 836.683C662.127 834.137 666.954 832.863 673.851 832.863H690.243C697.14 832.863 702.073 834.137 705.044 836.683C708.015 839.123 709.5 843.739 709.5 850.529V881.563H668.917V899.865C668.917 900.926 669.448 901.457 670.509 901.457H707.591V912.756ZM695.814 871.537H668.917V845.595C668.917 844.534 669.448 844.004 670.509 844.004H694.222C695.283 844.004 695.814 844.534 695.814 845.595V871.537ZM557.248 913.075H569.661C575.497 913.075 579.741 911.749 582.393 909.096C583.66 907.878 584.647 906.325 585.354 904.436C586.039 906.325 587.015 907.878 588.282 909.096C591.04 911.749 595.338 913.075 601.173 913.075H613.587C619.953 913.075 624.515 911.855 627.273 909.415C630.138 906.974 631.57 902.624 631.57 896.364L631.411 833.978H617.725L617.884 900.343C617.884 901.404 617.353 901.935 616.292 901.935H593.693C592.632 901.935 592.102 901.404 592.102 900.343V833.978H578.733V900.343C578.733 901.404 578.202 901.935 577.141 901.935H554.542C553.587 901.935 553.11 901.404 553.11 900.343V833.978H539.423V897.319C539.423 903.579 540.855 907.77 543.72 909.892C546.585 912.014 551.094 913.075 557.248 913.075Z" fill="#0FD1C5"/>
</svg>
