<svg width="9339" height="9339" viewBox="0 0 9339 9339" fill="none" xmlns="http://www.w3.org/2000/svg">
<path fill-rule="evenodd" clip-rule="evenodd" d="M3030.51 1970L3057.11 2082.15L3155.99 2034.38L3090.28 2126.46L3186.98 2179.05L3078.44 2181.72L3100.14 2295.06L3030.51 2206.31L2960.87 2295.06L2982.58 2181.72L2874.04 2179.05L2970.74 2126.46L2905.03 2034.38L3003.91 2082.15L3030.51 1970ZM2846.1 2768.61L2816.52 2644L2786.93 2768.61L2676.96 2715.53L2750.05 2817.85L2642.5 2876.27L2763.21 2879.24L2739.07 3005.17L2816.52 2906.57L2893.96 3005.17L2869.82 2879.24L2990.54 2876.27L2882.98 2817.85L2956.07 2715.53L2846.1 2768.61ZM4300.24 4056.72H4195.5V3225H4300.24V3698.16H4432.08C4438.66 3698.16 4443.17 3694.05 4445.64 3685.84L4519.57 3452.95H4621.84L4562.69 3641.48C4552.84 3674.34 4542.57 3698.98 4531.89 3715.41C4526.45 3724.02 4519.77 3731.13 4511.83 3736.74C4512.79 3737.01 4513.72 3737.3 4514.64 3737.59C4532.71 3743.34 4546.68 3754.43 4556.53 3770.86C4567.21 3787.29 4578.3 3811.11 4589.8 3842.32L4668.66 4056.72H4561.46L4466.58 3797.97C4465.76 3793.86 4464.53 3790.98 4462.89 3789.34C4461.25 3786.88 4458.37 3785.64 4454.26 3785.64H4300.24V4056.72ZM4953.54 4062.89H5199.97V3975.4H4912.88C4904.66 3975.4 4900.55 3971.29 4900.55 3963.08V3821.38H5214.76V3581.1C5214.76 3528.53 5203.26 3492.8 5180.26 3473.9C5157.26 3454.19 5119.06 3444.33 5065.67 3444.33H4938.75C4885.36 3444.33 4847.98 3454.19 4826.62 3473.9C4805.27 3492.8 4794.59 3528.53 4794.59 3581.1V3921.19C4794.59 3973.76 4806.91 4010.72 4831.55 4032.08C4857.02 4052.62 4897.68 4062.89 4953.54 4062.89ZM4900.55 3743.75V3542.91C4900.55 3534.69 4904.66 3530.58 4912.88 3530.58H5096.47C5104.69 3530.58 5108.79 3534.69 5108.79 3542.91V3743.75H4900.55ZM5791 4062.89H5544.56C5488.7 4062.89 5448.04 4052.62 5422.57 4032.08C5397.93 4010.72 5385.61 3973.76 5385.61 3921.19V3581.1C5385.61 3528.53 5396.29 3492.8 5417.64 3473.9C5439 3454.19 5476.38 3444.33 5529.77 3444.33H5656.69C5710.08 3444.33 5748.28 3454.19 5771.28 3473.9C5794.28 3492.8 5805.78 3528.53 5805.78 3581.1V3821.38H5491.57V3963.08C5491.57 3971.29 5495.68 3975.4 5503.9 3975.4H5791V4062.89ZM5491.57 3542.91V3743.75H5699.81V3542.91C5699.81 3534.69 5695.71 3530.58 5687.49 3530.58H5503.9C5495.68 3530.58 5491.57 3534.69 5491.57 3542.91ZM6092.55 4290.84H5986.59V3452.96H6079L6089.82 3514.93C6093.86 3497.44 6100.52 3483.35 6109.8 3472.67C6127.06 3453.78 6155.4 3444.33 6194.82 3444.33H6273.68C6322.15 3444.33 6357.06 3453.78 6378.42 3472.67C6400.6 3490.74 6411.69 3524.42 6411.69 3573.71V3926.11C6411.69 3976.22 6400.19 4011.14 6377.19 4030.85C6355.01 4050.57 6316.81 4060.42 6262.6 4060.42L6092.55 4057.96V4290.84ZM6092.55 3542.91V3971.85L6294.63 3974.17C6302.85 3974.17 6306.95 3970.06 6306.95 3961.85V3542.91C6306.95 3534.69 6302.85 3530.58 6294.63 3530.58H6104.88C6096.66 3530.58 6092.55 3534.69 6092.55 3542.91ZM2612.46 5609.64H2851.89V5464.54H2595.54C2584.25 5464.54 2578.61 5458.9 2578.61 5447.61V5382.31H2870.02V5167.08C2870.02 5103.39 2856.32 5059.46 2828.91 5035.27C2802.31 5010.28 2755.55 4997.79 2688.64 4997.79H2588.28C2522.18 4997.79 2475.42 5010.28 2448.01 5035.27C2420.6 5059.46 2406.9 5103.39 2406.9 5167.08V5428.26C2406.9 5491.95 2423.02 5538.3 2455.27 5567.32C2487.51 5595.54 2539.91 5609.64 2612.46 5609.64ZM2578.61 5261.39H2700.74V5153.77C2700.74 5142.49 2695.09 5136.85 2683.81 5136.85H2595.54C2584.25 5136.85 2578.61 5142.49 2578.61 5153.77V5261.39ZM2122.06 4997.79H2153.5C2208.32 4997.79 2248.22 5009.48 2273.21 5032.86C2298.2 5055.43 2310.7 5094.13 2310.7 5148.94V5602.4H2138.99V5153.78C2138.99 5142.49 2133.35 5136.85 2122.06 5136.85H2021.7C2010.41 5136.85 2004.77 5142.49 2004.77 5153.78L2007.19 5602.4H1835.48L1833.06 4786.18H2004.77V5083.89C2009.57 5065.07 2017.23 5048.86 2027.74 5035.28C2047.9 5010.29 2079.34 4997.79 2122.06 4997.79ZM1770.18 5142.9V5009.88H1637.17V4858.73H1465.46V5009.88H1405V5142.9H1465.46V5421.01C1465.46 5484.7 1481.58 5531.05 1513.83 5560.07C1546.07 5588.29 1598.47 5602.39 1671.02 5602.39H1770.18V5457.29H1654.1C1642.81 5457.29 1637.17 5451.65 1637.17 5440.36V5142.9H1770.18ZM7875.2 4785.45H7934.16V5080.24H7679.46C7657.44 5080.24 7646.44 5091.24 7646.44 5113.26L7651.16 5964.61H7316.27L7311.56 4809.03H7615.78L7638.66 4993.8C7646.03 4939.4 7663.56 4894.32 7691.25 4858.56C7730.55 4809.82 7791.87 4785.45 7875.2 4785.45ZM7179.47 5068.44V4809.02H6920.05V4514.23H6585.17V4809.02H6467.25V5068.44H6585.17V5610.85C6585.17 5735.06 6616.61 5825.46 6679.5 5882.06C6742.39 5937.09 6844.58 5964.6 6986.08 5964.6H7179.47V5681.6H6953.07C6931.06 5681.6 6920.05 5670.6 6920.05 5648.58V5068.44H7179.47ZM6061.15 5966.97H5547.04L5544.68 5695.76H6004.55C6026.56 5695.76 6037.57 5684.76 6037.57 5662.74V5544.83C6037.57 5522.82 6026.56 5511.81 6004.55 5511.81H5874.84C5745.92 5511.81 5654.73 5488.23 5601.28 5441.06C5547.82 5392.32 5521.09 5309 5521.09 5191.08V5127.4C5521.09 5003.2 5549.39 4915.16 5605.99 4863.27C5664.17 4809.82 5757.71 4783.88 5886.64 4785.45L6296.98 4787.81V5070.8L5891.35 5068.45C5869.34 5068.45 5858.34 5079.45 5858.34 5101.46V5214.66C5858.34 5236.67 5869.34 5247.68 5891.35 5247.68H6013.99C6144.48 5247.68 6235.67 5271.26 6287.55 5318.43C6341.01 5365.6 6367.73 5448.14 6367.73 5566.05V5672.18C6367.73 5777.52 6343.37 5852.98 6294.63 5898.58C6245.89 5944.17 6168.06 5966.97 6061.15 5966.97ZM3895.87 5364.68V4467.07H4195.38V5964.61H3947.76L3339.31 5066.11V5964.61H3039.8V4467.07H3285.07L3895.87 5364.68ZM5349.39 5354.42C5359.02 5362.97 5340.13 5446.12 5277.91 5516.27C5215.69 5586.41 5133.73 5616.98 5124.09 5608.43C5114.45 5599.87 5157.04 5536.07 5219.26 5465.93C5281.48 5395.79 5339.75 5345.87 5349.39 5354.42ZM5168.75 5252.44C5129.42 5276.63 5111.97 5318.63 5116.35 5325.74H5116.31C5120.69 5332.86 5156.17 5319.01 5195.54 5294.83C5234.9 5270.64 5263.26 5245.22 5258.88 5238.11C5254.5 5230.99 5208.09 5228.26 5168.75 5252.44ZM4504.84 5465.93C4567.06 5536.07 4609.68 5599.87 4600.01 5608.43C4590.37 5616.98 4508.41 5586.41 4446.19 5516.27C4383.97 5446.12 4365.04 5362.97 4374.71 5354.42C4384.39 5345.87 4442.61 5395.79 4504.84 5465.93ZM4464.85 5238.12C4460.47 5245.23 4488.83 5270.65 4528.19 5294.84H4528.16C4567.52 5319.06 4602.96 5332.87 4607.38 5325.75C4611.8 5318.64 4594.34 5276.64 4554.97 5252.46C4515.61 5228.23 4469.23 5231 4464.85 5238.12ZM2892.63 3542.45C2984.34 3485.65 3103.65 3447.34 3209.33 3463.86C3215.82 3464.87 3221.76 3467.42 3226.79 3471.04L4508.3 4393.03C4548.04 4421.63 4513.27 4483.25 4468.25 4464.02L3548.54 4071.2L3646.04 4551.46C3653.37 4587.57 3613.05 4614.27 3582.67 4593.43L3029.41 4214.03L2879.33 4694.45C2865.87 4737.54 2802.83 4730.42 2799.32 4685.42L2726.98 3759.09V3758C2726.98 3717.44 2747.33 3677.03 2776.35 3641.38C2805.78 3605.23 2846.43 3571.06 2892.63 3542.45ZM2782.99 3757.01L2849.09 4603.45L2982.01 4177.95C2990.23 4151.62 3021.59 4140.76 3044.33 4156.36L3583.78 4526.3L3487.97 4054.34C3481.4 4021.96 3513.87 3995.5 3544.25 4008.48L4365.35 4359.18L3197.08 3518.65C3109.82 3506.31 3005.84 3538.21 2922.11 3590.06C2880.02 3616.13 2844.48 3646.4 2819.78 3676.73C2795.06 3707.11 2783.33 3734.86 2782.99 3757.01ZM3461.61 2278.4L3428.96 2141L3396.32 2278.4L3274.95 2219.87L3355.6 2332.69L3236.91 2397.11L3370.13 2400.38L3343.49 2539.24L3428.96 2430.51L3514.44 2539.24L3487.79 2400.38L3621.02 2397.11L3502.32 2332.69L3582.98 2219.87L3461.61 2278.4Z" fill="white"/>
</svg>
