<svg width="18" height="18" viewBox="0 0 18 18" fill="none" xmlns="http://www.w3.org/2000/svg">
<mask id="mask0_6_195" style="mask-type:alpha" maskUnits="userSpaceOnUse" x="1" y="1" width="16" height="16">
<path d="M16.3279 9.39526C16.3279 13.5374 12.97 16.8953 8.82788 16.8953C4.68575 16.8953 1.32788 13.5374 1.32788 9.39526C1.32788 5.25313 4.68575 1.89526 8.82788 1.89526C12.97 1.89526 16.3279 5.25313 16.3279 9.39526Z" fill="#D9D9D9"/>
</mask>
<g mask="url(#mask0_6_195)">
<path d="M4.6438 1.30913C4.6438 1.23858 4.70099 1.1814 4.77153 1.1814H5.87001C5.94055 1.1814 5.99774 1.23858 5.99774 1.30913V13.8328C5.99774 13.8624 5.98742 13.8912 5.96854 13.914L4.87006 15.2457C4.79384 15.3381 4.6438 15.2842 4.6438 15.1644V1.30913Z" fill="white"/>
<path d="M10.2639 -1.77474C10.2639 -1.84528 10.3211 -1.90247 10.3916 -1.90247H11.4901C11.5607 -1.90247 11.6179 -1.84528 11.6179 -1.77474V8.49297C11.6179 8.52684 11.6044 8.55933 11.5804 8.58329L10.482 9.68177C10.4015 9.76223 10.2639 9.70525 10.2639 9.59145V-1.77474Z" fill="white"/>
<path d="M7.45398 0.442062C7.45398 0.371518 7.51117 0.314331 7.58171 0.314331H8.68019C8.75073 0.314331 8.80792 0.371518 8.80792 0.442061V12.5519C8.80792 12.6481 8.70561 12.7098 8.62055 12.6649L7.52207 12.0849C7.48019 12.0628 7.45398 12.0193 7.45398 11.9719V0.442062Z" fill="white"/>
<path d="M13.0741 -1.36592C13.0741 -1.43647 13.1313 -1.49365 13.2018 -1.49365H14.3003C14.3709 -1.49365 14.428 -1.43647 14.428 -1.36592V7.43994C14.428 7.52968 14.3379 7.59144 14.2542 7.55907L13.1557 7.13418C13.1065 7.11515 13.0741 7.06782 13.0741 7.01505V-1.36592Z" fill="white"/>
</g>
</svg>
