<svg width="26" height="26" viewBox="0 0 26 26" fill="none" xmlns="http://www.w3.org/2000/svg">
<g clip-path="url(#clip0_6_167)">
<mask id="mask0_6_167" style="mask-type:alpha" maskUnits="userSpaceOnUse" x="0" y="0" width="25" height="25">
<path d="M24.2242 12.5934C24.2242 19.0542 18.9868 24.2916 12.5261 24.2916C6.06533 24.2916 0.827881 19.0542 0.827881 12.5934C0.827881 6.13272 6.06533 0.895264 12.5261 0.895264C18.9868 0.895264 24.2242 6.13272 24.2242 12.5934Z" fill="#D9D9D9"/>
</mask>
<g mask="url(#mask0_6_167)">
<path d="M5.99988 -0.0190332C5.99988 -0.129064 6.08908 -0.218262 6.19911 -0.218262H7.91247C8.0225 -0.218262 8.1117 -0.129064 8.1117 -0.0190334V19.5148C8.1117 19.5611 8.0956 19.6059 8.06616 19.6416L6.35279 21.7186C6.23391 21.8628 5.99988 21.7787 5.99988 21.5919V-0.0190332Z" fill="white"/>
<path d="M14.766 -4.82897C14.766 -4.939 14.8552 -5.0282 14.9652 -5.0282H16.6786C16.7886 -5.0282 16.8778 -4.939 16.8778 -4.82897V11.1862C16.8778 11.239 16.8568 11.2897 16.8195 11.327L15.1061 13.0404C14.9806 13.1659 14.766 13.077 14.766 12.8995V-4.82897Z" fill="white"/>
<path d="M10.3831 -1.37133C10.3831 -1.48136 10.4723 -1.57056 10.5823 -1.57056H12.2956C12.4057 -1.57056 12.4949 -1.48136 12.4949 -1.37133V17.5171C12.4949 17.6672 12.3353 17.7634 12.2026 17.6933L10.4893 16.7887C10.4239 16.7542 10.3831 16.6864 10.3831 16.6125V-1.37133Z" fill="white"/>
<path d="M19.149 -4.1914C19.149 -4.30143 19.2382 -4.39062 19.3483 -4.39062H21.0616C21.1717 -4.39062 21.2609 -4.30143 21.2609 -4.1914V9.54361C21.2609 9.68358 21.1203 9.77992 20.9898 9.72942L19.2764 9.06671C19.1996 9.03702 19.149 8.96319 19.149 8.88089V-4.1914Z" fill="white"/>
</g>
</g>
<defs>
<clipPath id="clip0_6_167">
<rect width="25" height="25" fill="white" transform="translate(0.327881 0.395264)"/>
</clipPath>
</defs>
</svg>
