<svg width="17" height="17" viewBox="0 0 17 17" fill="none" xmlns="http://www.w3.org/2000/svg">
<mask id="mask0_6_195" style="mask-type:alpha" maskUnits="userSpaceOnUse" x="1" y="1" width="15" height="15">
<path d="M16 8.5C16 12.6421 12.6421 16 8.5 16C4.35786 16 1 12.6421 1 8.5C1 4.35786 4.35786 1 8.5 1C12.6421 1 16 4.35786 16 8.5Z" fill="#D9D9D9"/>
</mask>
<g mask="url(#mask0_6_195)">
<path d="M4.31592 0.413863C4.31592 0.34332 4.3731 0.286133 4.44365 0.286133H5.54213C5.61267 0.286133 5.66986 0.34332 5.66986 0.413863V12.9375C5.66986 12.9672 5.65954 12.9959 5.64066 13.0188L4.54218 14.3504C4.46596 14.4428 4.31592 14.3889 4.31592 14.2692V0.413863Z" fill="black"/>
<path d="M9.93604 -2.67C9.93604 -2.74054 9.99322 -2.79773 10.0638 -2.79773H11.1622C11.2328 -2.79773 11.29 -2.74054 11.29 -2.67V7.5977C11.29 7.63158 11.2765 7.66407 11.2526 7.68802L10.1541 8.7865C10.0736 8.86697 9.93604 8.80998 9.93604 8.69619V-2.67Z" fill="black"/>
<path d="M7.1261 -0.453202C7.1261 -0.523746 7.18329 -0.580933 7.25383 -0.580933H8.35231C8.42285 -0.580933 8.48004 -0.523746 8.48004 -0.453202V11.6567C8.48004 11.7529 8.37773 11.8145 8.29267 11.7696L7.19419 11.1896C7.15231 11.1675 7.1261 11.124 7.1261 11.0767V-0.453202Z" fill="black"/>
<path d="M12.7462 -2.26119C12.7462 -2.33173 12.8034 -2.38892 12.8739 -2.38892H13.9724C14.043 -2.38892 14.1002 -2.33173 14.1002 -2.26119V6.54467C14.1002 6.63442 14.01 6.69618 13.9263 6.6638L12.8279 6.23892C12.7787 6.21989 12.7462 6.17255 12.7462 6.11979V-2.26119Z" fill="black"/>
</g>
</svg>
