<svg width="31" height="31" viewBox="0 0 31 31" fill="none" xmlns="http://www.w3.org/2000/svg">
<path d="M10.7441 21.3036C10.7575 20.2576 11.6055 19.5087 11.9787 18.6486L14.8343 18.2855C14.4057 20.9839 13.0566 21.3036 11.2438 24.2775C11.013 24.6561 10.9092 25.1008 9.99461 26.4658C9.65698 26.4658 11.439 27.588 11.2438 27.56C11.0485 27.5319 9.21601 27.56 8.15588 27.56L9.99461 23.4919C10.4716 22.6783 10.7308 22.3496 10.7441 21.3036Z" fill="#6B3AF5"/>
<path d="M14.5964 20.8527C14.5163 20.3395 14.8736 19.4693 14.8736 18.6672L18.1673 17.9945L17.0119 20.0225C17.0119 20.0225 17.6197 20.0986 18.9081 20.5385C20.1965 20.9785 22.6981 21.6185 22.6981 21.6185L24.5783 24.3838L22.0634 23.1254C21.9054 22.7455 21.95 22.8163 21.27 22.6567C18.5583 22.0204 14.6604 21.2629 14.5964 20.8527Z" fill="#6B3AF5"/>
<path d="M20.7876 4.07691C21.8347 4.39223 21.9549 4.823 22.3085 5.12599L23.7613 5.53652C23.7613 5.53652 23.7795 5.72177 23.7353 5.72177C23.691 5.72177 22.3085 5.86223 22.3085 5.86223C22.1016 6.01086 21.5399 6.40957 20.9475 6.65653C20.3551 6.9035 21.2984 7.56574 21.4985 8.14886C23.7494 11.3572 21.2014 14.9903 20.6343 15.8936L18.8677 13.5902C19.7884 12.767 22.1006 11.4267 19.2266 7.70602C18.6079 6.90499 18.8677 5.67895 18.8677 4.74191C18.8678 3.75464 20.5037 3.99143 20.7876 4.07691Z" fill="#6B3AF5"/>
<path d="M15.423 12.0467C19.4409 12.6931 19.2282 11.2998 19.381 12.0467C19.5338 12.7935 21.9129 12.8089 22.0799 12.7911C22.2469 12.7733 21.4096 14.4206 21.4096 14.4206C22.8369 16.3289 19.7826 19.8677 17.5495 19.596C13.815 19.1416 11.3335 20.0476 8.91514 19.596C6.49681 19.1444 4.67275 16.9495 3.53259 17.2411C3.93151 16.4391 4.38167 16.5034 4.78212 16.3506C4.82337 16.2643 6.13094 16.5133 6.08717 16.3506C5.95026 15.8417 4.48751 15.4904 4.48751 15.4904C5.35957 14.2136 6.51881 15.0823 7.0944 14.6817C6.52765 14.4206 6.7972 14.0124 5.77035 13.5736C7.00685 12.8489 7.05091 13.9031 8.44448 13.4388C10.1816 12.0467 11.9536 11.4885 15.423 12.0467Z" fill="#6B3AF5"/>
</svg>
