<svg width="30" height="30" viewBox="0 0 30 30" fill="none" xmlns="http://www.w3.org/2000/svg">
<path d="M10.4162 20.9083C10.4296 19.8624 11.2776 19.1134 11.6508 18.2534L14.5064 17.8903C14.0778 20.5886 12.7287 20.9083 10.9159 23.8822C10.6851 24.2608 10.5813 24.7055 9.66673 26.0705C9.3291 26.0705 11.1111 27.1928 10.9159 27.1647C10.7207 27.1366 8.88813 27.1647 7.828 27.1647L9.66673 23.0967C10.1437 22.2831 10.4029 21.9543 10.4162 20.9083Z" fill="black"/>
<path d="M14.2685 20.4574C14.1885 19.9442 14.5457 19.074 14.5457 18.272L17.8395 17.5992L16.684 19.6272C16.684 19.6272 17.2919 19.7033 18.5803 20.1433C19.8687 20.5833 22.3702 21.2232 22.3702 21.2232L24.2504 23.9885L21.7355 22.7301C21.5775 22.3503 21.6221 22.421 20.9421 22.2615C18.2304 21.6252 14.3326 20.8677 14.2685 20.4574Z" fill="black"/>
<path d="M20.4597 3.68165C21.5069 3.99696 21.627 4.42773 21.9806 4.73072L23.4335 5.14125C23.4335 5.14125 23.4517 5.32651 23.4074 5.32651C23.3631 5.32651 21.9806 5.46696 21.9806 5.46696C21.7738 5.6156 21.212 6.0143 20.6196 6.26127C20.0272 6.50824 20.9705 7.17048 21.1706 7.75359C23.4216 10.962 20.8735 14.595 20.3064 15.4983L18.5399 13.1949C19.4605 12.3717 21.7727 11.0314 18.8988 7.31076C18.28 6.50972 18.5399 5.28369 18.5399 4.34665C18.5399 3.35938 20.1759 3.59617 20.4597 3.68165Z" fill="black"/>
<path d="M15.0951 11.6514C19.113 12.2978 18.9004 10.9045 19.0531 11.6514C19.2059 12.3983 21.585 12.4136 21.7521 12.3958C21.9191 12.3781 21.0817 14.0254 21.0817 14.0254C22.509 15.9336 19.4547 19.4725 17.2216 19.2007C13.4871 18.7463 11.0056 19.6524 8.58726 19.2007C6.16893 18.7491 4.34487 16.5542 3.20471 16.8459C3.60363 16.0439 4.05379 16.1082 4.45424 15.9554C4.49549 15.869 5.80306 16.1181 5.75929 15.9554C5.62238 15.4464 4.15963 15.0951 4.15963 15.0951C5.03169 13.8183 6.19093 14.687 6.76652 14.2865C6.19976 14.0254 6.46932 13.6172 5.44247 13.1783C6.67897 12.4536 6.72303 13.5078 8.1166 13.0435C9.85374 11.6514 11.6257 11.0933 15.0951 11.6514Z" fill="black"/>
</svg>
