<svg width="25" height="25" viewBox="0 0 25 25" fill="none" xmlns="http://www.w3.org/2000/svg">
<mask id="mask0_6_167" style="mask-type:alpha" maskUnits="userSpaceOnUse" x="0" y="0" width="24" height="24">
<path d="M23.8964 12.1982C23.8964 18.6589 18.6589 23.8964 12.1982 23.8964C5.73745 23.8964 0.5 18.6589 0.5 12.1982C0.5 5.73745 5.73745 0.5 12.1982 0.5C18.6589 0.5 23.8964 5.73745 23.8964 12.1982Z" fill="#D9D9D9"/>
</mask>
<g mask="url(#mask0_6_167)">
<path d="M5.672 -0.414297C5.672 -0.524328 5.76119 -0.613525 5.87123 -0.613525H7.58459C7.69462 -0.613525 7.78382 -0.524328 7.78382 -0.414297V19.1195C7.78382 19.1658 7.76772 19.2106 7.73828 19.2463L6.02491 21.3234C5.90602 21.4675 5.672 21.3834 5.672 21.1966V-0.414297Z" fill="black"/>
<path d="M14.4381 -5.22423C14.4381 -5.33426 14.5273 -5.42346 14.6373 -5.42346H16.3507C16.4607 -5.42346 16.5499 -5.33426 16.5499 -5.22423V10.7909C16.5499 10.8437 16.5289 10.8944 16.4916 10.9318L14.7782 12.6451C14.6527 12.7706 14.4381 12.6818 14.4381 12.5043V-5.22423Z" fill="black"/>
<path d="M10.0552 -1.76659C10.0552 -1.87662 10.1444 -1.96582 10.2544 -1.96582H11.9678C12.0778 -1.96582 12.167 -1.87662 12.167 -1.76659V17.1219C12.167 17.2719 12.0074 17.3681 11.8747 17.2981L10.1614 16.3934C10.0961 16.3589 10.0552 16.2911 10.0552 16.2172V-1.76659Z" fill="black"/>
<path d="M18.8212 -4.58666C18.8212 -4.69669 18.9104 -4.78589 19.0204 -4.78589H20.7338C20.8438 -4.78589 20.933 -4.69669 20.933 -4.58666V9.14835C20.933 9.28832 20.7924 9.38465 20.6619 9.33416L18.9485 8.67144C18.8718 8.64175 18.8212 8.56793 18.8212 8.48563V-4.58666Z" fill="black"/>
</g>
</svg>
