<svg width="101" height="101" viewBox="0 0 101 101" fill="none" xmlns="http://www.w3.org/2000/svg">
<g clip-path="url(#clip0_6_137)">
<mask id="mask0_6_137" style="mask-type:alpha" maskUnits="userSpaceOnUse" x="-1" y="0" width="102" height="102">
<path d="M100.759 51.3261C100.759 79.1783 78.18 101.757 50.3278 101.757C22.4756 101.757 -0.103027 79.1783 -0.103027 51.3261C-0.103027 23.4739 22.4756 0.895264 50.3278 0.895264C78.18 0.895264 100.759 23.4739 100.759 51.3261Z" fill="white"/>
</mask>
<g mask="url(#mask0_6_137)">
<path d="M22.1938 -3.04603C22.1938 -3.52038 22.5784 -3.90491 23.0527 -3.90491H30.439C30.9134 -3.90491 31.2979 -3.52038 31.2979 -3.04603V81.1643C31.2979 81.3637 31.2285 81.557 31.1016 81.7108L23.7153 90.6651C23.2027 91.2864 22.1938 90.924 22.1938 90.1185V-3.04603Z" fill="white"/>
<path d="M59.9843 -23.782C59.9843 -24.2563 60.3688 -24.6409 60.8431 -24.6409H68.2294C68.7038 -24.6409 69.0883 -24.2563 69.0883 -23.782V45.2592C69.0883 45.487 68.9978 45.7054 68.8368 45.8665L61.4504 53.2528C60.9094 53.7939 59.9843 53.4107 59.9843 52.6455V-23.782Z" fill="white"/>
<path d="M41.089 -8.8766C41.089 -9.35095 41.4735 -9.73547 41.9479 -9.73547H49.3342C49.8085 -9.73547 50.193 -9.35094 50.193 -8.8766V72.5516C50.193 73.1984 49.5051 73.6131 48.9332 73.3111L41.5468 69.4111C41.2652 69.2624 41.089 68.9701 41.089 68.6516V-8.8766Z" fill="white"/>
<path d="M78.8794 -21.0336C78.8794 -21.5079 79.2639 -21.8925 79.7383 -21.8925H87.1246C87.5989 -21.8925 87.9835 -21.5079 87.9835 -21.0336V38.178C87.9835 38.7814 87.3775 39.1967 86.8147 38.979L79.4284 36.1221C79.0975 35.9941 78.8794 35.6758 78.8794 35.321V-21.0336Z" fill="white"/>
</g>
</g>
<defs>
<clipPath id="clip0_6_137">
<rect width="100" height="100" fill="white" transform="translate(0.327881 0.395264)"/>
</clipPath>
</defs>
</svg>
