<svg width="100" height="100" viewBox="0 0 100 100" fill="none" xmlns="http://www.w3.org/2000/svg">
<g clip-path="url(#clip0_6_137)">
<mask id="mask0_6_137" style="mask-type:alpha" maskUnits="userSpaceOnUse" x="-1" y="0" width="102" height="102">
<path d="M100.431 50.9308C100.431 78.783 77.8521 101.362 49.9999 101.362C22.1478 101.362 -0.430908 78.783 -0.430908 50.9308C-0.430908 23.0787 22.1478 0.5 49.9999 0.5C77.8521 0.5 100.431 23.0787 100.431 50.9308Z" fill="white"/>
</mask>
<g mask="url(#mask0_6_137)">
<path d="M21.866 -3.4413C21.866 -3.91564 22.2505 -4.30017 22.7248 -4.30017H30.1112C30.5855 -4.30017 30.97 -3.91564 30.97 -3.4413V80.769C30.97 80.9685 30.9006 81.1617 30.7737 81.3155L23.3874 90.2698C22.8749 90.8911 21.866 90.5287 21.866 89.7233V-3.4413Z" fill="black"/>
<path d="M59.6564 -24.1773C59.6564 -24.6516 60.0409 -25.0361 60.5152 -25.0361H67.9016C68.3759 -25.0361 68.7604 -24.6516 68.7604 -24.1773V44.8639C68.7604 45.0917 68.6699 45.3102 68.5089 45.4713L61.1226 52.8576C60.5815 53.3986 59.6564 53.0154 59.6564 52.2502V-24.1773Z" fill="black"/>
<path d="M40.7611 -9.27187C40.7611 -9.74621 41.1456 -10.1307 41.62 -10.1307H49.0063C49.4806 -10.1307 49.8652 -9.74621 49.8652 -9.27186V72.1563C49.8652 72.8032 49.1772 73.2179 48.6053 72.9158L41.219 69.0158C40.9373 68.8671 40.7611 68.5748 40.7611 68.2563V-9.27187Z" fill="black"/>
<path d="M78.5515 -21.4288C78.5515 -21.9032 78.936 -22.2877 79.4104 -22.2877H86.7967C87.271 -22.2877 87.6556 -21.9032 87.6556 -21.4288V37.7827C87.6556 38.3862 87.0497 38.8015 86.4869 38.5838L79.1006 35.7268C78.7697 35.5988 78.5515 35.2806 78.5515 34.9258V-21.4288Z" fill="black"/>
</g>
</g>
<defs>
<clipPath id="clip0_6_137">
<rect width="100" height="100" fill="white"/>
</clipPath>
</defs>
</svg>
