<svg width="31" height="31" viewBox="0 0 31 31" fill="none" xmlns="http://www.w3.org/2000/svg">
<path d="M10.8757 25.4003C19.9329 25.4003 24.8856 17.8969 24.8856 11.3904C24.8856 11.1773 24.8813 10.9651 24.8717 10.7539C25.8332 10.0588 26.6689 9.19145 27.3279 8.20408C26.4457 8.59624 25.4962 8.86025 24.5002 8.97929C25.5168 8.36968 26.2973 7.40535 26.6655 6.25574C25.7141 6.81974 24.6605 7.22967 23.5387 7.45095C22.6402 6.49382 21.361 5.89526 19.9445 5.89526C17.2252 5.89526 15.0201 8.1004 15.0201 10.8187C15.0201 11.2051 15.0633 11.581 15.1478 11.9414C11.0553 11.7355 7.4264 9.7761 4.99806 6.79671C4.57518 7.5244 4.33134 8.36968 4.33134 9.27161C4.33134 10.98 5.20062 12.4882 6.52256 13.3704C5.71471 13.3455 4.95582 13.1237 4.29245 12.7546C4.29173 12.7752 4.29173 12.7954 4.29173 12.8174C4.29173 15.2021 5.98903 17.1932 8.24217 17.6444C7.82841 17.7572 7.39304 17.8177 6.94376 17.8177C6.62695 17.8177 6.31831 17.7865 6.01831 17.7289C6.64519 19.6854 8.46297 21.109 10.6182 21.1489C8.9329 22.4699 6.80984 23.2566 4.50245 23.2566C4.10549 23.2566 3.71332 23.234 3.32788 23.1884C5.5071 24.5852 8.09451 25.4003 10.8757 25.4003Z" fill="white"/>
</svg>
