<svg width="48" height="48" viewBox="0 0 48 48" fill="none" xmlns="http://www.w3.org/2000/svg">
<path d="M37.4128 11.4287C34.8988 10.2778 32.2449 9.46124 29.5188 9C29.1457 9.66688 28.8082 10.353 28.5075 11.0555C25.6037 10.6179 22.6506 10.6179 19.7468 11.0555C19.446 10.3531 19.1084 9.66696 18.7355 9C16.0077 9.46513 13.352 10.2836 10.8355 11.4347C5.83963 18.8262 4.48534 26.034 5.16249 33.1396C8.08818 35.3012 11.3629 36.9452 14.8442 38C15.6281 36.9457 16.3217 35.8272 16.9178 34.6564C15.7857 34.2336 14.693 33.7119 13.6524 33.0974C13.9263 32.8988 14.1941 32.6942 14.453 32.4955C17.4809 33.9195 20.7857 34.6578 24.1317 34.6578C27.4777 34.6578 30.7825 33.9195 33.8104 32.4955C34.0722 32.7092 34.34 32.9139 34.6109 33.0974C33.5683 33.7129 32.4736 34.2356 31.3395 34.6594C31.9348 35.8297 32.6285 36.9472 33.4131 38C36.8974 36.9494 40.1746 35.3062 43.1008 33.1426C43.8954 24.9025 41.7435 17.7608 37.4128 11.4287ZM17.7755 28.7697C15.8885 28.7697 14.3296 27.0573 14.3296 24.9506C14.3296 22.8439 15.8343 21.1164 17.7695 21.1164C19.7046 21.1164 21.2515 22.8439 21.2184 24.9506C21.1853 27.0573 19.6986 28.7697 17.7755 28.7697ZM30.4878 28.7697C28.5978 28.7697 27.0449 27.0573 27.0449 24.9506C27.0449 22.8439 28.5497 21.1164 30.4878 21.1164C32.426 21.1164 33.9608 22.8439 33.9277 24.9506C33.8946 27.0573 32.4109 28.7697 30.4878 28.7697Z" fill="white"/>
</svg>
