<svg width="48" height="48" viewBox="0 0 48 48" fill="none" xmlns="http://www.w3.org/2000/svg">
<path d="M39.4509 21.3971V40.5329C39.4509 41.2522 38.9578 41.835 38.3493 41.835H25.1159C24.5075 41.835 24.0144 41.2522 24.0144 40.5329V36.9697C24.0758 32.5993 24.4665 28.4158 25.2871 26.5132C25.7802 25.3695 26.5896 24.7448 27.5218 24.4127C29.2821 23.788 32.3709 24.2147 33.6827 24.1421C33.6827 24.1421 37.6441 24.3291 37.6441 21.6765C37.6441 19.5429 35.8746 19.7101 35.8746 19.7101C33.9227 19.7695 32.4378 19.6133 31.474 19.1646C29.8607 18.4146 29.8086 17.0399 29.8012 16.5802C29.7231 11.2684 23.097 10.6327 17.26 11.948C10.8796 13.3843 17.3307 24.1949 17.3307 38.6281V40.5549C17.3195 41.2632 16.8339 41.835 16.2329 41.835H9.67942C9.07097 41.835 8.57788 41.2522 8.57788 40.5329V7.43901C8.57788 6.71976 9.07097 6.13689 9.67942 6.13689H15.8403C16.4487 6.13689 16.9418 6.71976 16.9418 7.43901C16.9418 8.50797 17.9577 9.10404 18.6927 8.48158C20.9088 6.60539 23.752 5.60681 26.9338 5.60681C34.0622 5.60681 39.4527 10.5183 39.4527 21.3993L39.4509 21.3971ZM27.6186 17.5128C27.6186 15.9731 26.5636 14.726 25.2611 14.726C23.9586 14.726 22.9035 15.9753 22.9035 17.5128C22.9035 19.0502 23.9586 20.3018 25.2611 20.3018C26.5636 20.3018 27.6186 19.0524 27.6186 17.5128Z" fill="white"/>
</svg>
