<svg width="16" height="16" viewBox="0 0 16 16" fill="none" xmlns="http://www.w3.org/2000/svg">
<rect width="16" height="16" rx="8" fill="#37007E"/>
<path fill-rule="evenodd" clip-rule="evenodd" d="M2.375 6.50037C2.375 9.65662 5.75 14.3754 7.9375 14.3754C10.125 14.3754 13.25 9.71912 13.25 6.50037C13.25 3.28162 11.0625 1.56287 7.9375 1.56287C4.8125 1.56287 2.375 3.34412 2.375 6.50037ZM12.2602 6.6537C12.8556 7.20569 12.54 8.51417 11.5553 9.57627C10.5706 10.6384 9.28973 11.0519 8.69434 10.4999C8.09895 9.9479 8.41453 8.63942 9.39922 7.57732C10.3839 6.51522 11.6648 6.1017 12.2602 6.6537ZM4.03295 9.57627C3.04827 8.51417 2.73268 7.20569 3.32807 6.6537C3.92346 6.1017 5.20436 6.51522 6.18905 7.57732C7.17373 8.63942 7.48932 9.9479 6.89393 10.4999C6.29854 11.0519 5.01764 10.6384 4.03295 9.57627Z" fill="#0FD1C5"/>
</svg>
