<svg width="48" height="49" viewBox="0 0 48 49" fill="none" xmlns="http://www.w3.org/2000/svg">
<g clip-path="url(#clip0_132_2909)">
<rect y="0.0766602" width="48" height="48" rx="24" fill="#37007E"/>
<path fill-rule="evenodd" clip-rule="evenodd" d="M8.20268 20.9228C7.99319 17.2443 7.81885 14.1829 7.81885 12.354C7.81885 9.80756 8.78007 6.11359 12.1824 5.91917C15.5848 5.72475 25.243 6.6656 26.5067 6.95723C27.7704 7.24886 29.3591 8.17968 32.7209 13.2733C33.6476 14.0014 34.7034 14.4285 35.6366 14.806C36.1396 15.0094 36.6071 15.1985 36.9995 15.4126C37.4517 15.6592 38.3314 15.971 39.3237 16.3227C41.196 16.9863 43.4694 17.792 44.0287 18.5706C44.1772 18.7773 44.2556 19.1193 44.2755 19.5096C43.3915 19.2944 38.5144 20.0068 35.3718 20.4658L35.3544 20.4684C31.9643 20.9636 28.6163 21.5821 27.1713 22.0637C26.3691 22.3311 25.7812 22.2498 25.3058 22.0427C24.7988 21.8219 24.3704 21.4379 23.9286 20.9987C23.8775 20.9479 23.825 20.8951 23.7716 20.8414L23.7708 20.8407L23.7708 20.8406C23.6082 20.6771 23.4375 20.5056 23.2754 20.3584C23.0591 20.162 22.8 19.9536 22.5026 19.8207C22.1842 19.6785 21.81 19.6183 21.4098 19.7434C21.0322 19.8615 20.7146 20.1191 20.4375 20.4424C20.1812 20.7415 20.2158 21.1916 20.5148 21.448C20.8138 21.7043 21.264 21.6697 21.5203 21.3706C21.7016 21.1592 21.8076 21.1133 21.8354 21.1046L21.8368 21.1041C21.843 21.1016 21.859 21.0952 21.9207 21.1229C22.0089 21.1622 22.1339 21.2484 22.3168 21.4144C22.4497 21.5351 22.5826 21.6687 22.7366 21.8235C22.7953 21.8824 22.8571 21.9445 22.923 22.0101C23.3733 22.4577 23.9639 23.0138 24.7362 23.3503C25.54 23.7004 26.4916 23.7936 27.6223 23.4167C28.9279 22.9816 32.1505 22.3777 35.5605 21.8796C38.6789 21.4241 43.3497 21.0713 44.1018 21.016C43.9983 21.3785 43.8538 21.6862 43.6784 21.8616C43.289 22.251 39.7559 23.0243 36.3704 23.7654L36.3703 23.7654L36.3703 23.7654L36.3702 23.7654L36.3701 23.7654C34.6847 24.1343 33.0359 24.4952 31.8297 24.7968L21.1366 32.5736C19.5972 33.5813 18.6123 34.1935 17.985 34.5834C17.1282 35.1159 16.9389 35.2336 16.9158 35.3778C16.9093 35.4187 16.9161 35.4617 16.9249 35.517C16.9342 35.5756 16.9457 35.648 16.9457 35.7461L16.5892 48.0544L8.84509 43.7638C9.09745 36.6348 8.59 27.7241 8.20268 20.9228ZM35.6612 15.9922C35.0691 15.9045 34.3479 16.1733 34.2614 16.7575C34.1748 17.3417 34.3548 17.913 35.3108 18.0546C36.2667 18.1962 37.3085 17.8706 37.3951 17.2864C37.4816 16.7023 36.6172 16.1338 35.6612 15.9922ZM16.1614 14.6313C15.9481 12.0093 18.3138 9.5384 22.0729 9.3713C26.2747 9.81316 28.9161 13.3982 28.9161 13.3982C28.9161 13.3982 27.1004 18.5203 22.8455 18.8665C19.3674 19.1495 16.3748 17.2533 16.1614 14.6313Z" fill="#7164FF"/>
</g>
<defs>
<clipPath id="clip0_132_2909">
<rect y="0.0766602" width="48" height="48" rx="24" fill="white"/>
</clipPath>
</defs>
</svg>
