<svg width="16" height="17" viewBox="0 0 16 17" fill="none" xmlns="http://www.w3.org/2000/svg">
<g clip-path="url(#clip0_130_2835)">
<rect y="0.307617" width="16" height="16" rx="8" fill="#37007E"/>
<path fill-rule="evenodd" clip-rule="evenodd" d="M2.76145 7.26477C2.69 6.06163 2.63037 5.05738 2.63037 4.43895C2.63037 3.58231 2.95374 2.33961 4.09833 2.2742C5.24293 2.2088 8.49208 2.52531 8.91722 2.62342C9.34235 2.72153 9.87681 3.03467 11.0078 4.74822C11.3195 4.99318 11.6747 5.13684 11.9886 5.26384C12.1579 5.33229 12.3151 5.3959 12.4471 5.46791C12.5993 5.55089 12.8952 5.65577 13.229 5.77409C13.8589 5.99733 14.6237 6.26839 14.8118 6.53031C14.9717 6.75286 14.8902 7.44123 14.694 7.63744C14.563 7.76844 13.3744 8.02861 12.2355 8.27791C11.6684 8.40202 11.1137 8.52344 10.7079 8.62489L7.11064 11.2411C5.88537 12.0432 5.70416 12.1004 5.69072 12.1845C5.68619 12.2128 5.70076 12.2443 5.70076 12.3084V16.357L2.97863 14.7396C3.06329 12.348 2.8925 9.47176 2.76145 7.26477ZM7.42564 3.43551C6.16102 3.49172 5.36516 4.32297 5.43693 5.20505C5.5087 6.08713 6.51545 6.72502 7.68556 6.62981C9.11696 6.51334 9.72777 4.79023 9.72777 4.79023C9.72777 4.79023 8.83917 3.58416 7.42564 3.43551Z" fill="#7F84FF"/>
</g>
<defs>
<clipPath id="clip0_130_2835">
<rect y="0.307617" width="16" height="16" rx="8" fill="white"/>
</clipPath>
</defs>
</svg>
