<svg width="32" height="33" viewBox="0 0 32 33" fill="none" xmlns="http://www.w3.org/2000/svg">
<g clip-path="url(#clip0_130_2867)">
<rect y="0.0766602" width="32" height="32" rx="16" fill="#37007E"/>
<path fill-rule="evenodd" clip-rule="evenodd" d="M5.15334 14.005C5.0125 11.5888 4.89502 9.57341 4.89502 8.33932C4.89502 6.62604 5.54175 4.14064 7.83094 4.00983C10.1201 3.87902 16.6184 4.51205 17.4687 4.70827C18.319 4.90448 19.3879 5.53076 21.6498 8.95786C22.2733 9.44778 22.9836 9.73511 23.6116 9.98911C23.95 10.126 24.2645 10.2532 24.5285 10.3973C24.8328 10.5632 25.4247 10.773 26.0923 11.0096C27.3521 11.4561 28.8817 11.9982 29.2579 12.522C29.5777 12.9672 29.4147 14.3439 29.0223 14.7363C28.7603 14.9983 26.3831 15.5186 24.1052 16.0172C22.9712 16.2655 21.8617 16.5083 21.0502 16.7112L13.8556 21.9436C11.405 23.5479 11.0426 23.6623 11.0157 23.8304C11.0067 23.8871 11.0358 23.9499 11.0358 24.0782V32.2183L5.58147 29.0471C5.751 24.2579 5.4126 18.4526 5.15334 14.005ZM14.4855 6.33243C11.9563 6.44487 10.3646 8.10735 10.5081 9.87152C10.6517 11.6357 12.6651 12.9115 15.0054 12.721C17.8682 12.4881 19.0898 9.04187 19.0898 9.04187C19.0898 9.04187 17.3126 6.62973 14.4855 6.33243Z" fill="#7164FF"/>
</g>
<defs>
<clipPath id="clip0_130_2867">
<rect y="0.0766602" width="32" height="32" rx="16" fill="white"/>
</clipPath>
</defs>
</svg>
