<svg width="73" height="72" viewBox="0 0 73 72" fill="none" xmlns="http://www.w3.org/2000/svg">
<g clip-path="url(#clip0_133_2973)">
<rect x="0.365967" width="72" height="72" rx="36" fill="#37007E"/>
<path fill-rule="evenodd" clip-rule="evenodd" d="M12.7257 31.1843L12.7257 31.1842C12.4159 25.7797 12.1575 21.2722 12.1575 18.5117C12.1575 14.6715 13.6071 9.10058 18.7382 8.80737C23.8693 8.51416 38.435 9.93307 40.3409 10.3729C42.2467 10.8127 44.6426 12.2165 49.7125 19.8982C51.1101 20.9963 52.7023 21.6403 54.1098 22.2097C54.8684 22.5165 55.5733 22.8017 56.1652 23.1245C56.8471 23.4965 58.1738 23.9667 59.6703 24.497C62.494 25.4978 65.9225 26.713 66.7659 27.8871C66.9902 28.1993 67.1085 28.716 67.1382 29.3056C65.8049 28.9812 58.4499 30.0555 53.7106 30.7477L53.6843 30.7515C48.5718 31.4983 43.5226 32.4311 41.3434 33.1575C40.1335 33.5607 39.247 33.4382 38.5299 33.1258C37.7654 32.7928 37.1192 32.2137 36.453 31.5513C36.3756 31.4744 36.296 31.3943 36.215 31.313C35.9697 31.0664 35.7123 30.8076 35.4679 30.5857C35.1416 30.2895 34.7509 29.9752 34.3024 29.7748C33.8222 29.5603 33.2579 29.4694 32.6543 29.6582C32.0848 29.8362 31.606 30.2248 31.188 30.7124C30.8014 31.1634 30.8536 31.8423 31.3046 32.2288C31.7555 32.6154 32.4345 32.5632 32.821 32.1122C33.0944 31.7933 33.2543 31.7241 33.2962 31.711L33.2983 31.7102C33.3077 31.7065 33.3317 31.6969 33.4249 31.7385C33.5579 31.798 33.7464 31.9279 34.0222 32.1782C34.2227 32.3603 34.4231 32.5617 34.6553 32.7951L34.6554 32.7951C34.7439 32.8841 34.837 32.9777 34.9365 33.0766C35.6155 33.7517 36.5062 34.5903 37.6709 35.0977C38.8832 35.6258 40.3183 35.7664 42.0235 35.198C43.9924 34.5417 48.8526 33.631 53.9952 32.8798C58.6968 32.1931 65.7385 31.6611 66.8755 31.5775C66.7195 32.1232 66.5018 32.5862 66.2377 32.8503C65.6504 33.4376 60.3221 34.6039 55.2162 35.7215C52.6744 36.2779 50.1876 36.8222 48.3685 37.2769L32.2421 49.0052C29.9207 50.5249 28.4353 51.4482 27.4893 52.0361L27.4892 52.0362L27.4892 52.0362C26.197 52.8393 25.9115 53.0168 25.8768 53.2343C25.8669 53.296 25.8772 53.3609 25.8904 53.4442C25.9045 53.5326 25.9218 53.6418 25.9218 53.7898V73.2069L13.665 64.9499C14.0454 54.2034 13.2979 41.1643 12.7257 31.1843ZM54.147 23.9988C53.2541 23.8665 52.1664 24.2719 52.0359 25.1529C51.9054 26.0339 52.1768 26.8955 53.6185 27.1091C55.0602 27.3227 56.6313 26.8317 56.7619 25.9506C56.8924 25.0696 55.5887 24.2124 54.147 23.9988ZM24.739 21.947C24.4173 17.9927 27.985 14.2663 33.6542 14.0143C39.991 14.6807 43.9745 20.0874 43.9745 20.0874C43.9745 20.0874 41.2363 27.812 34.8194 28.3341C29.5739 28.7609 25.0608 25.9013 24.739 21.947Z" fill="#7164FF"/>
<path d="M35.281 16.4313C35.281 16.9404 34.318 17.3531 33.1301 17.3531C31.9422 17.3531 30.9792 16.9404 30.9792 16.4313C30.9792 15.9222 31.9422 15.5095 33.1301 15.5095C34.318 15.5095 35.281 15.9222 35.281 16.4313Z" fill="white"/>
<path d="M39.0761 24.3368C39.0907 24.7723 37.7108 26.75 33.805 26.75C30.4293 26.75 27.6456 24.7723 27.631 24.3368C27.6165 23.9014 30.637 25.1574 33.805 25.051C36.9729 24.9447 37.533 24.3368 39.0761 24.3368Z" fill="white"/>
</g>
<defs>
<clipPath id="clip0_133_2973">
<rect x="0.365967" width="72" height="72" rx="36" fill="white"/>
</clipPath>
</defs>
</svg>
