<svg width="49" height="49" viewBox="0 0 49 49" fill="none" xmlns="http://www.w3.org/2000/svg">
<g clip-path="url(#clip0_133_2942)">
<rect x="0.365967" y="0.0766602" width="48" height="48" rx="24" fill="#37007E"/>
<path fill-rule="evenodd" clip-rule="evenodd" d="M8.18481 12.354C8.18481 14.1829 8.35916 17.2443 8.56864 20.9228C8.95597 27.7241 9.46341 36.6348 9.21106 43.7638L16.9551 48.0544L17.3117 35.7461C17.3117 35.648 17.3002 35.5756 17.2909 35.517C17.2821 35.4617 17.2753 35.4187 17.2818 35.3778C17.3049 35.2336 17.4942 35.1159 18.351 34.5834C18.9782 34.1935 19.9632 33.5813 21.5026 32.5736L32.1957 24.7968C33.4019 24.4952 35.0507 24.1343 36.7362 23.7654L36.7363 23.7654L36.7363 23.7654C40.1219 23.0243 43.655 22.251 44.0444 21.8616C44.6276 21.2783 44.8698 19.2321 44.3946 18.5706C43.8354 17.792 41.562 16.9863 39.6896 16.3227C38.6973 15.971 37.8177 15.6592 37.3655 15.4126C36.973 15.1985 36.5056 15.0094 36.0026 14.806C35.0693 14.4285 34.0136 14.0014 33.0869 13.2733C29.7251 8.17968 28.1364 7.24886 26.8727 6.95723C25.609 6.6656 15.9507 5.72475 12.5484 5.91917C9.14604 6.11359 8.18481 9.80756 8.18481 12.354ZM34.6273 16.7575C34.7139 16.1733 35.4351 15.9045 36.0272 15.9922C36.9831 16.1338 37.8476 16.7023 37.761 17.2864C37.6745 17.8706 36.6327 18.1962 35.6767 18.0546C34.7208 17.913 34.5408 17.3417 34.6273 16.7575ZM22.4389 9.3713C18.6798 9.5384 16.3141 12.0093 16.5274 14.6313C16.7407 17.2533 19.7333 19.1495 23.2115 18.8665C27.4664 18.5203 29.2821 13.3982 29.2821 13.3982C29.2821 13.3982 26.6407 9.81316 22.4389 9.3713Z" fill="#7164FF"/>
</g>
<defs>
<clipPath id="clip0_133_2942">
<rect x="0.365967" y="0.0766602" width="48" height="48" rx="24" fill="white"/>
</clipPath>
</defs>
</svg>
