<svg width="72" height="73" viewBox="0 0 72 73" fill="none" xmlns="http://www.w3.org/2000/svg">
<rect y="0.32666" width="72" height="72" rx="36" fill="#37007E"/>
<path d="M54.5672 35.8021C54.9502 36.1419 54.1995 39.4453 51.7276 42.232C49.2556 45.0187 45.9996 46.2331 45.6166 45.8933C45.2336 45.5535 46.9257 43.0188 49.3976 40.2321C51.8696 37.4454 54.1842 35.4622 54.5672 35.8021Z" fill="white"/>
<path d="M45.3074 34.6629C45.1334 34.3802 45.8269 32.7118 47.3895 31.7509C48.952 30.79 50.7959 30.8986 50.97 31.1813C51.1441 31.464 50.0174 32.4737 48.4535 33.4346C46.8895 34.3956 45.4801 34.9457 45.3061 34.6629H45.3074Z" fill="white"/>
<path d="M21.0144 40.2321C23.4864 43.0188 25.1799 45.5535 24.7955 45.8933C24.4125 46.2331 21.1565 45.0187 18.6845 42.232C16.2125 39.4453 15.4605 36.1419 15.8449 35.8021C16.2292 35.4622 18.5424 37.4454 21.0144 40.2321Z" fill="white"/>
<path d="M21.9405 33.435C20.3766 32.4741 19.2499 31.4644 19.424 31.1817C19.5981 30.899 21.4406 30.789 23.0045 31.7513C24.5685 32.7122 25.262 34.3806 25.0865 34.6633C24.9111 34.9461 23.5031 34.3973 21.9391 33.435H21.9405Z" fill="white"/>
<path fill-rule="evenodd" clip-rule="evenodd" d="M35.7187 65.014C25.875 65.014 10.6875 43.7797 10.6875 29.5765C10.6875 15.3734 21.6562 7.35779 35.7187 7.35779C49.7812 7.35779 59.625 15.0922 59.625 29.5765C59.625 44.0609 45.5625 65.014 35.7187 65.014ZM51.9989 43.4182C56.43 38.6388 57.8502 32.7506 55.1709 30.2667C52.4916 27.7827 46.7276 29.6435 42.2965 34.423C37.8654 39.2024 36.4453 45.0906 39.1245 47.5746C41.8038 50.0585 47.5678 48.1977 51.9989 43.4182ZM14.9762 30.2667C12.2969 32.7506 13.7171 38.6388 18.1481 43.4182C22.5792 48.1977 28.3433 50.0585 31.0226 47.5746C33.7018 45.0906 32.2817 39.2024 27.8506 34.423C23.4195 29.6435 17.6554 27.7827 14.9762 30.2667ZM27.7952 55.3745C27.7952 53.3644 43.111 53.4137 43.111 55.3745C43.111 57.3352 38.1475 59.1787 35.5949 59.1787C33.0423 59.1787 27.7952 57.3845 27.7952 55.3745Z" fill="#0FD1C5"/>
</svg>
