<svg width="32" height="33" viewBox="0 0 32 33" fill="none" xmlns="http://www.w3.org/2000/svg">
<rect y="0.0766602" width="32" height="32" rx="16" fill="#37007E"/>
<path fill-rule="evenodd" clip-rule="evenodd" d="M15.875 28.8275C11.5 28.8275 4.75 19.39 4.75 13.0775C4.75 6.76501 9.625 3.20251 15.875 3.20251C22.125 3.20251 26.5 6.64001 26.5 13.0775C26.5 19.515 20.25 28.8275 15.875 28.8275ZM23.1106 19.2295C25.08 17.1053 25.7112 14.4884 24.5204 13.3844C23.3296 12.2804 20.7678 13.1074 18.7984 15.2316C16.8291 17.3558 16.1979 19.9728 17.3887 21.0768C18.5794 22.1808 21.1413 21.3537 23.1106 19.2295ZM6.65607 13.3844C5.46529 14.4884 6.09646 17.1053 8.06583 19.2295C10.0352 21.3537 12.597 22.1808 13.7878 21.0768C14.9786 19.9728 14.3474 17.3558 12.378 15.2316C10.4087 13.1074 7.84685 12.2804 6.65607 13.3844ZM12.4225 24.6796C12.4225 23.7813 19.2676 23.8033 19.2676 24.6796C19.2676 25.5559 17.0493 26.3799 15.9084 26.3799C14.7676 26.3799 12.4225 25.578 12.4225 24.6796Z" fill="#0FD1C5"/>
</svg>
