<svg width="500" height="209" viewBox="0 0 500 209" fill="none" xmlns="http://www.w3.org/2000/svg">
<path d="M140.944 122.035H126.445C122.052 122.035 118.879 121.181 116.926 119.472C114.974 117.715 113.997 114.908 113.997 111.052V95.2352C113.997 91.3788 114.827 88.7183 116.487 87.2538C118.147 85.7405 120.978 84.9839 124.981 84.9839H131.058C135.11 84.9839 137.942 85.7405 139.552 87.2538C141.212 88.7183 142.042 91.3788 142.042 95.2352V108.269H123.224V100.947H131.791V94.4297C131.791 93.7463 131.449 93.4046 130.766 93.4046H125.42C124.737 93.4046 124.395 93.7463 124.395 94.4297V112.223C124.395 112.907 124.737 113.248 125.42 113.248H140.944V122.035Z" fill="black"/>
<path d="M96.7504 84.986H98.6542C101.974 84.986 104.39 85.6938 105.903 87.1095C107.417 88.4763 108.173 90.8195 108.173 94.139V121.598H97.7755V94.4319C97.7755 93.7485 97.4338 93.4067 96.7504 93.4067H90.6728C89.9894 93.4067 89.6477 93.7485 89.6477 94.4319L89.7942 121.598H79.3964L79.2499 72.1719H89.6477V93.4067H89.2816C89.2816 90.8195 89.8674 88.7692 91.039 87.256C92.2593 85.7427 94.1632 84.986 96.7504 84.986Z" fill="black"/>
<path d="M75.4416 85.7179V93.7725H66.6547L67.387 93.0403V111.786C67.387 112.469 67.7287 112.811 68.4121 112.811H75.4416V121.598H69.4372C65.0438 121.598 61.8708 120.743 59.9181 119.035C57.9655 117.277 56.9892 114.47 56.9892 110.614V93.0403L57.7214 93.7725H53.328V85.7179H57.7214L56.9892 86.4501V76.5649H67.387V86.4501L66.6547 85.7179H75.4416Z" fill="black"/>
<path d="M444.928 72.6309H448.498V90.482H433.074C431.742 90.482 431.075 91.1484 431.075 92.4813L431.361 144.035H411.082L410.796 74.059H429.219L431.075 89.0539H430.361C430.361 84.008 431.503 80.0093 433.788 77.0579C436.169 74.1066 439.882 72.6309 444.928 72.6309Z" fill="black"/>
<path d="M402.797 74.0587V89.7677H385.66L387.088 88.3396V124.899C387.088 126.232 387.755 126.898 389.088 126.898H402.797V144.035H391.087C382.519 144.035 376.33 142.369 372.522 139.037C368.714 135.609 366.81 130.135 366.81 122.614V88.3396L368.238 89.7677H359.669V74.0587H368.238L366.81 75.4868V56.2075H387.088V75.4868L385.66 74.0587H402.797Z" fill="black"/>
<path d="M335.08 144.179H303.948L303.805 127.756H331.653C332.986 127.756 333.652 127.089 333.652 125.757V118.616C333.652 117.283 332.986 116.617 331.653 116.617H323.798C315.992 116.617 310.47 115.189 307.233 112.332C303.996 109.381 302.377 104.335 302.377 97.1947V93.3388C302.377 85.8176 304.091 80.486 307.518 77.3442C311.041 74.1072 316.706 72.5363 324.512 72.6315L349.361 72.7743V89.9114L324.798 89.7686C323.465 89.7686 322.799 90.4351 322.799 91.7679V98.6228C322.799 99.9557 323.465 100.622 324.798 100.622H332.224C340.126 100.622 345.648 102.05 348.79 104.906C352.027 107.763 353.646 112.761 353.646 119.901V126.328C353.646 132.707 352.17 137.276 349.218 140.037C346.267 142.798 341.554 144.179 335.08 144.179Z" fill="black"/>
<path d="M203.96 111.903V53.3516H222.097V144.035H207.102L167.258 85.198H170.257V144.035H152.121V53.3516H166.973L206.817 111.903H203.96Z" fill="black"/>
<path d="M224.543 100.417C224.543 121.775 247.481 153.706 262.348 153.706C277.215 153.706 298.454 122.198 298.454 100.417C298.454 78.636 283.587 67.0054 262.348 67.0054C241.109 67.0054 224.543 79.0589 224.543 100.417Z" fill="#0DE6BF"/>
<path fill-rule="evenodd" clip-rule="evenodd" d="M248.399 150.639C252.833 154.118 257.682 156.574 262.348 156.574C267.021 156.574 271.768 154.14 276.062 150.674C280.42 147.157 284.652 142.306 288.351 136.836C295.702 125.967 301.321 112.086 301.321 100.417C301.321 88.8335 297.342 79.6492 290.264 73.3948C283.236 67.1841 273.466 64.1382 262.348 64.1382C251.211 64.1382 241.061 67.2979 233.641 73.5024C226.163 79.7553 221.675 88.9286 221.675 100.417C221.675 111.938 227.773 125.845 235.535 136.735C239.448 142.225 243.891 147.103 248.399 150.639ZM262.348 153.707C247.481 153.707 224.542 121.775 224.542 100.417C224.542 79.059 241.109 67.0054 262.348 67.0054C283.587 67.0054 298.454 78.636 298.454 100.417C298.454 122.198 277.215 153.707 262.348 153.707Z" fill="black"/>
<path d="M291.727 101.458C295.774 105.193 293.629 114.048 286.937 121.235C280.244 128.422 271.539 131.22 267.492 127.485C263.445 123.75 265.59 114.895 272.283 107.708C278.975 100.521 287.681 97.7228 291.727 101.458Z" fill="black"/>
<path d="M231.02 101.458C226.974 105.193 229.118 114.048 235.811 121.235C242.503 128.422 251.209 131.22 255.255 127.485C259.302 123.75 257.157 114.895 250.465 107.708C243.772 100.521 235.067 97.7228 231.02 101.458Z" fill="black"/>
<path d="M290.815 109.781C291.394 110.292 290.26 115.26 286.526 119.45C282.793 123.641 277.875 125.467 277.297 124.956C276.718 124.445 279.274 120.633 283.008 116.443C286.741 112.252 290.237 109.27 290.815 109.781Z" fill="white"/>
<path d="M276.83 108.067C276.567 107.641 277.615 105.133 279.975 103.688C282.335 102.243 285.12 102.406 285.383 102.831C285.646 103.256 283.944 104.774 281.582 106.219C279.22 107.665 277.091 108.492 276.828 108.067H276.83Z" fill="white"/>
<path d="M240.14 116.443C243.873 120.633 246.431 124.445 245.85 124.956C245.272 125.467 240.354 123.641 236.621 119.45C232.887 115.26 231.751 110.292 232.332 109.781C232.913 109.27 236.406 112.252 240.14 116.443Z" fill="white"/>
<path d="M241.538 106.22C239.176 104.775 237.475 103.257 237.738 102.832C238.001 102.407 240.783 102.241 243.145 103.688C245.507 105.133 246.555 107.642 246.29 108.067C246.025 108.492 243.898 107.667 241.536 106.22H241.538Z" fill="white"/>
<path d="M271.616 139.034C270.13 136.012 254.846 135.263 253.36 139.034C251.874 142.805 260.153 144.179 263.125 144.179C266.097 144.179 273.102 142.056 271.616 139.034Z" fill="black"/>
</svg>
