<svg width="500" height="209" viewBox="0 0 500 209" fill="none" xmlns="http://www.w3.org/2000/svg">
<path d="M140.944 122.269H126.446C122.052 122.269 118.879 121.415 116.927 119.706C114.974 117.949 113.998 115.142 113.998 111.285V95.4691C113.998 91.6126 114.827 88.9522 116.487 87.4877C118.147 85.9744 120.978 85.2178 124.981 85.2178H131.059C135.11 85.2178 137.942 85.9744 139.553 87.4877C141.212 88.9522 142.042 91.6126 142.042 95.4691V108.503H123.224V101.181H131.791V94.6636C131.791 93.9802 131.449 93.6385 130.766 93.6385H125.42C124.737 93.6385 124.395 93.9802 124.395 94.6636V112.457C124.395 113.14 124.737 113.482 125.42 113.482H140.944V122.269Z" fill="black"/>
<path d="M96.7506 85.2199H98.6544C101.974 85.2199 104.39 85.9277 105.904 87.3434C107.417 88.7102 108.173 91.0534 108.173 94.3729V121.832H97.7757V94.6658C97.7757 93.9823 97.434 93.6406 96.7506 93.6406H90.673C89.9896 93.6406 89.6479 93.9823 89.6479 94.6658L89.7943 121.832H79.3966L79.2501 72.4058H89.6479V93.6406H89.2818C89.2818 91.0534 89.8676 89.0031 91.0391 87.4898C92.2595 85.9766 94.1633 85.2199 96.7506 85.2199Z" fill="black"/>
<path d="M75.4418 85.9513V94.0059H66.655L67.3872 93.2737V112.019C67.3872 112.702 67.7289 113.044 68.4123 113.044H75.4418V121.831H69.4375C65.044 121.831 61.871 120.977 59.9184 119.268C57.9657 117.511 56.9894 114.704 56.9894 110.847V93.2737L57.7217 94.0059H53.3282V85.9513H57.7217L56.9894 86.6835V76.7983H67.3872V86.6835L66.655 85.9513H75.4418Z" fill="black"/>
<path d="M444.928 72.8647H448.498V90.7159H433.074C431.742 90.7159 431.075 91.3823 431.075 92.7152L431.361 144.269H411.082L410.796 74.2928H429.219L431.075 89.2878H430.361C430.361 84.2419 431.503 80.2432 433.788 77.2918C436.169 74.3404 439.882 72.8647 444.928 72.8647Z" fill="black"/>
<path d="M402.797 74.2925V90.0016H385.66L387.088 88.5735V125.133C387.088 126.465 387.755 127.132 389.088 127.132H402.797V144.269H391.087C382.518 144.269 376.33 142.603 372.522 139.271C368.714 135.843 366.809 130.369 366.809 122.848V88.5735L368.238 90.0016H359.669V74.2925H368.238L366.809 75.7206V56.4414H387.088V75.7206L385.66 74.2925H402.797Z" fill="black"/>
<path d="M335.08 144.412H303.948L303.805 127.989H331.653C332.986 127.989 333.652 127.323 333.652 125.99V118.849C333.652 117.517 332.986 116.85 331.653 116.85H323.798C315.992 116.85 310.47 115.422 307.233 112.566C303.996 109.614 302.377 104.569 302.377 97.4281V93.5722C302.377 86.051 304.091 80.7194 307.518 77.5776C311.041 74.3406 316.706 72.7697 324.512 72.8649L349.361 73.0077V90.1448L324.798 90.002C323.465 90.002 322.799 90.6685 322.799 92.0013V98.8562C322.799 100.189 323.465 100.856 324.798 100.856H332.224C340.126 100.856 345.648 102.284 348.79 105.14C352.027 107.996 353.646 112.994 353.646 120.135V126.561C353.646 132.94 352.17 137.51 349.218 140.271C346.267 143.032 341.554 144.412 335.08 144.412Z" fill="black"/>
<path d="M203.96 112.136V53.5845H222.097V144.268H207.102L167.258 85.4309H170.257V144.268H152.121V53.5845H166.973L206.817 112.136H203.96Z" fill="black"/>
<path d="M227.871 80.696C227.871 93.189 231.234 126.175 230.301 152.513H249.754V136.783C249.754 134.971 248.123 136.822 259.803 129.176L285.441 110.53C294.143 108.354 312.452 104.891 313.851 103.492C315.249 102.094 315.83 97.1876 314.69 95.6014C312.639 92.7454 300.967 89.7369 297.837 88.0296C295.15 86.564 290.998 85.587 287.578 82.9002C279.518 70.6874 275.708 68.4556 272.678 67.7564C269.648 67.0572 246.491 64.8013 238.333 65.2675C230.176 65.7336 227.871 74.5905 227.871 80.696Z" fill="#7164FF"/>
<path fill-rule="evenodd" clip-rule="evenodd" d="M227.559 155.161L227.656 152.42C228.117 139.378 227.516 124.648 226.793 111.559C226.584 107.783 226.364 104.13 226.157 100.692C225.652 92.3042 225.224 85.196 225.224 80.6964C225.224 77.3809 225.839 73.1753 227.7 69.6356C229.616 65.9913 232.958 62.9234 238.182 62.6249C242.475 62.3796 250.485 62.846 257.647 63.437C261.262 63.7353 264.721 64.0706 267.473 64.3762C270.148 64.6732 272.334 64.9604 273.274 65.1773C277.353 66.1186 281.612 69.1259 289.539 81.0665C290.893 82.0657 292.415 82.8077 294.015 83.4858C294.451 83.6705 294.919 83.8598 295.4 84.0543C296.667 84.567 298.021 85.1151 299.104 85.7059C299.678 86.0186 300.796 86.4609 302.403 87.0423C302.971 87.2481 303.599 87.4705 304.256 87.7035C305.33 88.0843 306.484 88.4932 307.589 88.9031C309.393 89.5724 311.248 90.3084 312.808 91.0825C314.229 91.7876 315.904 92.7542 316.841 94.0575L314.69 95.6019C313.35 93.7352 307.899 91.8033 303.409 90.2122C301.03 89.369 298.921 88.6214 297.837 88.03C296.896 87.5168 295.775 87.0634 294.569 86.5756C292.331 85.6704 289.8 84.6465 287.578 82.9007C279.518 70.6879 275.709 68.4561 272.679 67.7569C269.649 67.0576 246.491 64.8018 238.334 65.2679C230.176 65.7341 227.871 74.591 227.871 80.6964C227.871 85.1115 228.291 92.0861 228.793 100.422C229.664 114.89 230.782 133.459 230.38 149.866C230.359 150.755 230.332 151.638 230.301 152.513H249.754V136.783C249.754 136.326 249.65 136.102 249.683 135.9C249.779 135.301 251.07 134.893 259.803 129.176L285.441 110.53C288.333 109.807 292.287 108.942 296.328 108.057C304.446 106.281 312.917 104.426 313.851 103.493C315.249 102.094 315.83 97.1881 314.69 95.6019L316.841 94.0575C317.511 94.9902 317.761 96.1197 317.865 96.9943C317.978 97.9391 317.96 98.9519 317.853 99.9097C317.747 100.869 317.543 101.857 317.237 102.75C316.951 103.584 316.49 104.597 315.723 105.365C315.305 105.782 314.813 106.035 314.546 106.163C314.217 106.322 313.848 106.467 313.476 106.6C312.728 106.867 311.788 107.147 310.738 107.432C308.629 108.003 305.889 108.646 302.965 109.303C300.967 109.752 298.884 110.208 296.835 110.656C293.049 111.485 289.38 112.288 286.58 112.976L261.307 131.356L261.253 131.391C258.314 133.315 256.21 134.644 254.707 135.582C254.277 135.851 253.904 136.082 253.58 136.284C253.082 136.593 252.7 136.83 252.402 137.02V155.161H227.559ZM252.308 135.732C252.308 135.732 252.311 135.751 252.313 135.781C252.309 135.746 252.308 135.732 252.308 135.732Z" fill="black"/>
<path d="M247.874 86.1576C247.362 79.8708 253.035 73.9464 262.048 73.5457C272.122 74.6052 278.455 83.201 278.455 83.201C278.455 83.201 274.102 95.482 263.9 96.3121C255.561 96.9906 248.385 92.4443 247.874 86.1576Z" fill="black"/>
<path d="M264.554 77.5227C264.554 78.332 263.023 78.9882 261.134 78.9882C259.246 78.9882 257.715 78.332 257.715 77.5227C257.715 76.7133 259.246 76.0571 261.134 76.0571C263.023 76.0571 264.554 76.7133 264.554 77.5227Z" fill="#D9D9D9"/>
<path d="M291.272 91.2544C291.479 89.8537 293.209 89.2093 294.628 89.4196C296.92 89.7591 298.993 91.122 298.786 92.5227C298.578 93.9234 296.08 94.704 293.788 94.3645C291.496 94.0249 291.064 92.6551 291.272 91.2544Z" fill="black"/>
<path d="M270.86 90.3687C270.883 91.0671 268.67 94.2393 262.405 94.2393C256.991 94.2393 252.525 91.0671 252.502 90.3687C252.479 89.6703 257.324 91.6848 262.405 91.5143C267.486 91.3437 268.385 90.3687 270.86 90.3687Z" fill="white"/>
<path fill-rule="evenodd" clip-rule="evenodd" d="M293.892 100.156C302.045 98.9655 315.115 97.0546 315.603 98.0316C316.092 99.0086 315.115 101.451 315.115 101.451C315.115 101.451 302.538 102.349 294.387 103.54C286.211 104.734 278.484 106.182 275.353 107.225C272.642 108.129 270.361 107.906 268.433 107.066C266.582 106.259 265.166 104.926 264.086 103.853C263.928 103.695 263.78 103.547 263.639 103.405C263.27 103.034 262.951 102.714 262.632 102.425C262.194 102.027 261.894 101.82 261.683 101.725C261.535 101.659 261.496 101.675 261.482 101.68C261.48 101.681 261.479 101.681 261.478 101.682C261.412 101.703 261.157 101.813 260.723 102.32C260.108 103.037 259.029 103.12 258.312 102.505C257.595 101.89 257.512 100.811 258.127 100.094C258.791 99.3188 259.552 98.7011 260.458 98.418C261.417 98.1179 262.315 98.2623 263.078 98.6034C263.791 98.922 264.412 99.4218 264.931 99.8926C265.32 100.245 265.729 100.657 266.119 101.049C266.247 101.178 266.374 101.305 266.497 101.428C267.556 102.481 268.584 103.402 269.799 103.931C270.939 104.428 272.349 104.622 274.272 103.981C277.737 102.827 285.764 101.344 293.892 100.156Z" fill="black"/>
</svg>
