<svg width="9339" height="9339" viewBox="0 0 9339 9339" fill="none" xmlns="http://www.w3.org/2000/svg">
<path fill-rule="evenodd" clip-rule="evenodd" d="M3958.62 4567.54L4122 4832.54L3637 4796.43L3895.84 4774.88L3808.06 4639.76L3958.62 4707.32V4567.54ZM3481.55 5388.96C3474.16 5266.24 3467.98 5163.56 3467.98 5098.57C3467.98 5073.9 3470.53 5046.18 3476.72 5018.79H3479.79C3481.38 5018.79 3482.66 5020.08 3482.66 5021.67L3482.66 5129.67C3482.66 5132.7 3486.75 5133.66 3488.1 5130.95L3541.7 5022.94C3542.64 5021.03 3541.26 5018.79 3539.13 5018.79H3509.81C3508.22 5018.79 3506.94 5017.51 3506.94 5015.92L3506.94 4941.63C3530.83 4903.03 3567.56 4874.55 3622 4871.44C3742.09 4864.57 4083 4897.78 4127.61 4908.08C4172.21 4918.37 4228.29 4951.23 4346.95 5131.02C4379.66 5156.72 4416.93 5171.79 4449.87 5185.12L4449.87 5185.12C4467.62 5192.3 4484.12 5198.97 4497.97 5206.53C4513.94 5215.23 4544.99 5226.24 4580.01 5238.65C4646.1 5262.08 4726.35 5290.52 4746.08 5318C4752.91 5327.5 4755.54 5345.09 4754.88 5364C4715.74 5358.38 4538.26 5384.17 4430.05 5399.98C4310.4 5417.46 4192.22 5439.29 4141.22 5456.29C4112.9 5465.73 4092.15 5462.86 4075.37 5455.55C4057.47 5447.75 4042.35 5434.2 4026.76 5418.7C4024.94 5416.9 4023.08 5415.02 4021.19 5413.12C4015.45 5407.35 4009.42 5401.29 4003.7 5396.1C3996.06 5389.17 3986.92 5381.81 3976.42 5377.12C3965.18 5372.1 3951.98 5369.97 3937.85 5374.39C3924.52 5378.56 3913.31 5387.65 3903.53 5399.06C3894.48 5409.62 3895.7 5425.51 3906.26 5434.56C3916.81 5443.6 3932.7 5442.38 3941.75 5431.83C3948.15 5424.36 3951.89 5422.74 3952.87 5422.44C3952.88 5422.43 3952.9 5422.43 3952.91 5422.42L3952.92 5422.42C3953.14 5422.33 3953.7 5422.11 3955.88 5423.08C3959 5424.47 3963.41 5427.51 3969.86 5433.37C3974.56 5437.63 3979.25 5442.35 3984.68 5447.81C3986.75 5449.89 3988.93 5452.08 3991.26 5454.4C4007.16 5470.2 4028 5489.83 4055.26 5501.7C4083.64 5514.06 4117.22 5517.35 4157.13 5504.05C4203.22 5488.69 4316.97 5467.37 4437.33 5449.79C4541.38 5434.59 4702.3 5422.37 4743.24 5419.39C4740.47 5425.51 4737.28 5430.61 4733.72 5434.16C4719.98 5447.9 4595.27 5475.2 4475.77 5501.36C4416.27 5514.38 4358.07 5527.12 4315.49 5537.77L3938.06 5812.26C3883.72 5847.84 3848.95 5869.44 3826.81 5883.21L3826.81 5883.21L3826.81 5883.21L3826.81 5883.21C3796.57 5902 3789.89 5906.16 3789.08 5911.25C3788.85 5912.69 3789.09 5914.21 3789.4 5916.16C3789.72 5918.23 3790.13 5920.78 3790.13 5924.25V6034.49L3742.34 6124.58C3741.32 6126.49 3742.71 6128.79 3744.87 6128.79H3771.79C3773.38 6128.79 3774.66 6130.08 3774.66 6131.67V6155.82H3503.75C3504.68 6129.54 3505.32 6102.8 3505.71 6075.74L3585.37 5915.24C3587.33 5911.3 3584.46 5906.67 3580.07 5906.67H3519.52C3516.25 5906.67 3513.59 5904.02 3513.59 5900.74L3513.59 5701.48C3513.59 5695.3 3505.33 5693.25 3502.43 5698.7L3498.74 5705.66C3496.54 5655 3494 5605.12 3491.34 5556.79H3497.79C3499.38 5556.79 3500.66 5558.08 3500.66 5559.67L3500.66 5667.67C3500.66 5670.7 3504.75 5671.66 3506.1 5668.95L3559.7 5560.94C3560.64 5559.03 3559.26 5556.79 3557.13 5556.79H3527.81C3526.22 5556.79 3524.94 5555.51 3524.94 5553.92L3524.94 5457.42C3524.94 5454.43 3520.94 5453.43 3519.54 5456.07L3488.93 5513.76C3486.46 5470.46 3483.94 5428.66 3481.55 5388.96L3481.55 5388.96ZM3983.16 4992.47C3850.47 4998.37 3766.97 5085.59 3774.5 5178.14C3782.03 5270.69 3887.66 5337.62 4010.43 5327.63C4160.62 5315.41 4224.71 5134.61 4224.71 5134.61C4224.71 5134.61 4131.47 5008.07 3983.16 4992.47ZM6920.72 6899.16H6998.19V6858.81C6998.73 6850.2 6999.8 6843.48 7001.42 6838.64C7003.03 6833.79 7006.8 6828.14 7012.72 6821.69L7067.59 6764.39C7084.27 6747.18 7095.84 6732.92 7102.29 6721.62C7108.67 6711.32 7112.14 6698.34 7112.7 6682.68L7108.1 6691.95C7106.75 6694.66 7102.66 6693.7 7102.66 6690.67V6582.67C7102.66 6581.08 7101.38 6579.79 7099.79 6579.79H7072.87C7070.71 6579.79 7069.32 6577.49 7070.34 6575.58L7086.76 6544.62C7086.56 6544.44 7086.36 6544.26 7086.15 6544.08C7068.4 6528.48 7040.69 6520.68 7003.03 6520.68H6873.91V6590.08H7024.01C7029.93 6590.08 7032.89 6593.04 7032.89 6598.96V6690.95C7032.89 6694.18 7032.62 6696.87 7032.08 6699.02C7031.55 6700.64 7029.93 6702.79 7027.24 6705.48L6956.23 6779.72C6946.54 6789.41 6939.01 6797.48 6933.63 6803.93C6928.79 6810.39 6925.29 6817.12 6923.14 6824.11C6921.52 6830.57 6920.72 6839.17 6920.72 6849.93V6899.16ZM6919.91 7035.54H6978.62L6999 6997.13V6945.16H6919.91V7035.54ZM6658.44 7042H6613.24C6580.96 7042 6557.02 7035.54 6541.42 7022.63C6526.36 7009.18 6518.83 6986.32 6518.83 6954.04V6640.11H6598.72V6968.56C6598.72 6974.48 6601.41 6977.44 6606.79 6977.44H6727.84L6727.03 6640.11H6806.12L6806.51 6831.02L6782.34 6876.58C6781.32 6878.49 6782.71 6880.79 6784.87 6880.79H6806.61L6806.92 7035.54H6736.72L6729.81 6990.37C6726.97 7002.97 6722.01 7013.46 6714.93 7021.82C6703.63 7035.27 6684.8 7042 6658.44 7042ZM6241.12 6700.64H6356.52C6362.44 6700.64 6365.39 6703.6 6365.39 6709.52V6966.14C6365.39 6972.06 6362.44 6975.02 6356.52 6975.02H6241.12C6235.2 6975.02 6232.24 6972.06 6232.24 6966.14V6709.52C6232.24 6703.6 6235.2 6700.64 6241.12 6700.64ZM6152.35 6732.92V6942.74C6152.35 6978.78 6160.95 7004.34 6178.17 7019.4C6195.92 7034.47 6224.44 7042 6263.71 7042H6333.92C6373.2 7042 6401.44 7034.47 6418.66 7019.4C6436.41 7004.34 6445.29 6978.78 6445.29 6942.74V6732.92C6445.29 6732.69 6445.29 6732.47 6445.29 6732.24L6423.1 6776.95C6421.75 6779.66 6417.66 6778.7 6417.66 6775.67V6667.67C6417.66 6666.08 6416.38 6664.79 6414.79 6664.79H6387.87C6385.71 6664.79 6384.32 6662.49 6385.34 6660.58L6394.89 6642.58C6378.92 6636.63 6358.6 6633.66 6333.92 6633.66H6263.71C6224.44 6633.66 6195.92 6641.19 6178.17 6656.25C6160.95 6671.32 6152.35 6696.87 6152.35 6732.92ZM5997.06 7129.16C6002.97 7129.16 6005.93 7126.2 6005.93 7120.28V6997.72C6002.98 7007.11 5998.68 7015.14 5993.02 7021.82C5981.72 7035.27 5962.89 7042 5936.53 7042H5891.34C5860.65 7042 5837.74 7036.16 5822.61 7024.49L5847.7 6973.94C5848.64 6972.03 5847.26 6969.79 5845.13 6969.79H5815.81C5814.22 6969.79 5812.94 6968.51 5812.94 6966.92V6870.42C5812.94 6867.43 5808.94 6866.43 5807.54 6869.07L5797.73 6887.56V6640.11H5876.81V6968.56C5876.81 6974.48 5879.77 6977.44 5885.69 6977.44H6005.93L6005.13 6640.11H6084.21L6085.83 7096.07C6085.83 7132.11 6076.95 7157.67 6059.19 7172.73C6041.44 7187.8 6012.93 7195.33 5973.65 7195.33H5812.25V7129.16H5997.06ZM5407.87 7040.39H5569.27V6973.4H5384.47C5379.09 6973.4 5376.4 6970.45 5376.4 6964.53V6883.02H5578.95V6728.88C5578.95 6692.3 5571.15 6667.28 5555.55 6653.83C5539.95 6640.38 5513.59 6633.66 5476.46 6633.66H5397.38C5360.26 6633.66 5334.16 6640.38 5319.1 6653.83C5304.04 6667.28 5296.5 6692.3 5296.5 6728.88V6867.44L5302.54 6856.07C5303.94 6853.43 5307.94 6854.43 5307.94 6857.42V6953.92C5307.94 6955.51 5309.22 6956.79 5310.81 6956.79H5340.13C5342.26 6956.79 5343.64 6959.03 5342.7 6960.94L5317.13 7012.47C5318.76 7014.36 5320.5 7016.13 5322.33 7017.79C5340.08 7032.85 5368.6 7040.39 5407.87 7040.39ZM5376.4 6825.72V6707.09C5376.4 6701.18 5379.09 6698.22 5384.47 6698.22H5491.8C5497.72 6698.22 5500.67 6701.18 5500.67 6707.09V6825.72H5376.4ZM5222.88 6633.66H5260.01V6703.06H5162.36C5156.44 6703.06 5153.48 6705.75 5153.48 6711.13L5154.29 7035.54H5075.2L5074.79 6834.46L5121.7 6739.94C5122.64 6738.03 5121.26 6735.79 5119.13 6735.79H5089.81C5088.22 6735.79 5086.94 6734.51 5086.94 6732.92V6640.11H5144.6L5150.85 6681.01C5153.8 6670.1 5158.44 6661.04 5164.78 6653.83C5177.15 6640.38 5196.52 6633.66 5222.88 6633.66ZM4805.84 7042H4846.19C4872.55 7042 4891.38 7035.28 4902.68 7021.83C4909.38 7013.54 4914.09 7003.17 4916.82 6990.72L4923.66 7035.54H4995.49V6989.35C4995.01 6989 4994.43 6988.79 4993.79 6988.79H4966.87C4964.71 6988.79 4963.32 6986.49 4964.34 6984.58L4995.49 6925.86V6736.15C4995.49 6700.1 4987.15 6674.82 4970.47 6660.29C4954.33 6645.76 4927.43 6638.77 4889.77 6639.31H4736.44V6706.29H4905.91C4911.83 6706.29 4914.79 6708.98 4914.79 6714.36V6803.13H4814.72C4777.6 6803.13 4751.23 6809.85 4735.63 6823.3C4728.54 6829.41 4723.07 6837.75 4719.2 6848.3C4719.66 6848.61 4720.21 6848.79 4720.81 6848.79H4750.13C4752.26 6848.79 4753.64 6851.03 4752.7 6852.94L4712.23 6934.49V6954.04C4712.23 6986.32 4719.76 7009.18 4734.83 7022.63C4749.89 7035.54 4773.56 7042 4805.84 7042ZM4914.79 6861.23H4799.39C4793.47 6861.23 4790.51 6863.92 4790.51 6869.3V6968.56C4790.51 6974.48 4793.47 6977.44 4799.39 6977.44H4914.79V6861.23ZM4503.91 5278.54C4503.91 5294.56 4476.26 5308.54 4455 5308.54C4433.74 5308.54 4426.91 5294.56 4426.91 5278.54C4426.91 5262.53 4440.24 5241.54 4461.5 5241.54C4479.59 5241.54 4503.91 5262.53 4503.91 5278.54Z" fill="#7164FF"/>
</svg>
