<svg width="9339" height="9339" viewBox="0 0 9339 9339" fill="none" xmlns="http://www.w3.org/2000/svg">
<path fill-rule="evenodd" clip-rule="evenodd" d="M2968.36 5508.78L2529.48 5508.78C2419.42 5508.78 2340 5480.91 2291.24 5425.18C2241.08 5369.45 2216 5278.89 2216 5153.49L2216 5032.28C2216 4906.89 2241.08 4816.33 2291.24 4760.6C2340 4704.87 2419.42 4677 2529.48 4677L2968.36 4677C3078.43 4677 3158.54 4704.87 3208.7 4760.6C3257.46 4816.33 3281.84 4906.89 3281.84 5032.28L3281.84 5153.49C3281.84 5278.89 3257.46 5369.45 3208.7 5425.18C3158.54 5480.91 3078.43 5508.78 2968.36 5508.78ZM2476.46 5379.7C2410.11 5342.76 2369.15 5215.65 2453.33 5104.63C2455.42 5100.08 2457.6 5095.53 2459.86 5091C2457.6 5086.47 2455.42 5081.92 2453.33 5077.37C2369.15 4966.35 2410.11 4839.24 2476.46 4802.3C2503.17 4787.43 2532.18 4778.52 2562.71 4774.52C2572.86 4772.53 2584.04 4771.76 2596.1 4772.07C2844.16 4767.26 3168.41 5043.59 3185 5087.66C3184.68 5088.71 3184.25 5089.83 3183.71 5091C3184.25 5092.17 3184.68 5093.29 3185 5094.34C3168.41 5138.41 2844.16 5414.74 2596.1 5409.93C2584.04 5410.24 2572.86 5409.47 2562.71 5407.48C2532.18 5403.48 2503.17 5394.57 2476.46 5379.7Z" fill="#F1033C"/>
</svg>
