<svg width="1201" height="1200" viewBox="0 0 1201 1200" fill="none" xmlns="http://www.w3.org/2000/svg">
<path fill-rule="evenodd" clip-rule="evenodd" d="M381.623 708.029L324.938 708.029C310.721 708.029 300.464 704.43 294.166 697.232C287.687 690.034 284.448 678.337 284.448 662.141L284.448 646.485C284.448 630.289 287.687 618.592 294.166 611.394C300.464 604.196 310.721 600.597 324.938 600.597L381.623 600.597C395.84 600.597 406.187 604.196 412.665 611.394C418.964 618.592 422.113 630.289 422.113 646.485L422.113 662.141C422.113 678.337 418.964 690.034 412.665 697.232C406.187 704.43 395.84 708.029 381.623 708.029ZM318.089 691.357C309.52 686.586 304.23 670.169 315.102 655.83C315.372 655.241 315.653 654.654 315.945 654.069C315.653 653.484 315.372 652.897 315.102 652.308C304.23 637.97 309.52 621.552 318.089 616.781C321.54 614.86 325.287 613.709 329.229 613.193C330.54 612.936 331.985 612.836 333.542 612.876C365.582 612.255 407.462 647.946 409.605 653.638C409.564 653.774 409.508 653.918 409.438 654.069C409.508 654.221 409.564 654.364 409.605 654.5C407.462 660.193 365.582 695.884 333.542 695.263C331.985 695.303 330.54 695.203 329.229 694.946C325.287 694.429 321.54 693.278 318.089 691.357Z" fill="#F1033C"/>
<path fill-rule="evenodd" clip-rule="evenodd" d="M689.025 293.79L627.503 194V246.637L570.807 221.196L603.859 272.078L506.39 280.192L689.025 293.79ZM465.378 490.347L465.378 490.351C468.038 575.709 471.628 690.9 468.115 790.14H584.39V705.267C584.39 703.962 584.237 703 584.113 702.221C583.997 701.486 583.906 700.914 583.993 700.371C584.299 698.454 586.815 696.89 598.204 689.812L598.204 689.811L598.205 689.811L598.21 689.808C606.547 684.626 619.638 676.489 640.094 663.098L782.225 559.73C798.256 555.722 820.17 550.926 842.57 546.023L842.573 546.022L842.578 546.021C887.578 536.171 934.54 525.892 939.715 520.716C941.054 519.377 942.258 517.459 943.3 515.156C927.879 516.278 867.287 520.879 828.106 526.602C782.781 533.223 739.946 541.25 722.593 547.034C707.564 552.043 694.916 550.804 684.232 546.15C673.966 541.678 666.116 534.287 660.131 528.337C659.256 527.466 658.436 526.642 657.657 525.86L657.654 525.856C655.607 523.798 653.84 522.023 652.073 520.419C649.643 518.212 647.981 517.067 646.809 516.544C645.988 516.177 645.776 516.261 645.694 516.294L645.693 516.294L645.683 516.298C645.68 516.299 645.677 516.3 645.675 516.301C645.305 516.416 643.896 517.026 641.487 519.837C638.08 523.812 632.096 524.272 628.121 520.865C624.147 517.458 623.687 511.474 627.094 507.5C630.778 503.202 634.998 499.777 640.017 498.208C645.337 496.545 650.311 497.345 654.542 499.236C658.496 501.002 661.939 503.773 664.815 506.383C666.969 508.339 669.238 510.619 671.4 512.793C672.113 513.51 672.815 514.215 673.497 514.893C679.369 520.732 685.064 525.835 691.802 528.77C698.122 531.523 705.936 532.604 716.599 529.049C735.805 522.648 780.307 514.426 825.366 507.845C866.112 501.893 932.942 492.179 947.682 494.294C947.932 487.173 946.94 480.55 944.371 476.973C936.938 466.624 906.72 455.915 881.833 447.094C868.644 442.42 856.951 438.276 850.941 434.997C845.725 432.152 839.512 429.639 832.826 426.934L832.826 426.934C820.421 421.916 806.388 416.24 794.07 406.562C749.387 338.859 728.27 326.487 711.473 322.61C694.676 318.734 566.3 306.228 521.077 308.813C475.854 311.397 463.077 360.496 463.077 394.342C463.077 416.525 464.124 450.124 465.378 490.347ZM829.771 445.6C821.901 444.434 812.315 448.007 811.164 455.772C810.014 463.537 812.407 471.131 825.113 473.013C837.819 474.895 851.667 470.568 852.817 462.803C853.967 455.038 842.477 447.482 829.771 445.6ZM578.966 377.127C567.956 404.89 597.576 426.702 625.386 447.181C641.264 458.874 656.552 470.132 663.349 481.814C664.23 480.94 665.665 479.598 667.53 477.855C687.938 458.784 759.798 391.633 718.707 362.182C700.883 349.406 671.609 365.889 667.104 377.127C659.368 364.161 594.247 338.596 578.966 377.127ZM284.504 329.297L284.504 322.883H316.573L316.573 350.591C316.573 352.986 317.771 354.183 320.165 354.183L412.781 353.67V390.101L287.07 390.614V357.518L307.17 355.03C301.252 354.228 296.348 352.321 292.457 349.308C287.155 345.032 284.504 338.362 284.504 329.297ZM315.29 404.983H287.069V433.204H255L255 469.634H287.069V482.462H315.29V469.634H374.298C387.81 469.634 397.644 466.214 403.802 459.372C409.788 452.531 412.781 441.413 412.781 426.02V404.983H381.994V429.612C381.994 432.006 380.797 433.204 378.403 433.204H315.29V404.983ZM413.038 526.636V582.564L383.534 582.821V532.793C383.534 530.398 382.337 529.201 379.942 529.201L367.115 529.201C364.72 529.201 363.523 530.398 363.523 532.793V546.903C363.523 560.928 360.957 570.848 355.826 576.664C350.524 582.479 341.459 585.387 328.632 585.387H321.705C308.193 585.387 298.615 582.308 292.97 576.151C287.155 569.822 284.333 559.646 284.504 545.621L284.761 500.98H315.547L315.291 545.108C315.291 547.502 316.488 548.699 318.882 548.699H331.197C333.592 548.699 334.789 547.502 334.789 545.108L334.789 531.767C334.789 517.571 337.354 507.651 342.485 502.006C347.617 496.191 356.596 493.284 369.424 493.284H380.969C392.428 493.284 400.638 495.935 405.598 501.237C410.558 506.539 413.038 515.005 413.038 526.636ZM284.504 759.302L284.504 765.973C284.504 775.038 287.155 781.708 292.457 785.984C296.348 788.996 301.252 790.903 307.17 791.705L287.07 794.194V827.289L412.781 826.776V790.345L317.6 790.858C315.205 790.858 314.008 789.661 314.008 787.267V765.973C314.008 763.578 315.205 762.381 317.6 762.381H412.781V725.95H316.573C304.943 725.95 296.733 728.601 291.944 733.903C286.984 739.206 284.504 747.672 284.504 759.302ZM555.904 983.547C557.63 983.547 558.493 982.684 558.493 980.959V956.833C557.731 959.767 556.499 962.323 554.795 964.504C551.837 968.325 547.092 970.235 540.559 970.235H535.752C527.494 970.235 521.392 968.448 517.448 964.874C513.627 961.299 511.716 955.383 511.716 947.124V877.792H537.97V946.385C537.97 948.11 538.833 948.973 540.559 948.973H558.493L558.123 877.792H584.377L584.747 977.631C584.747 987.368 582.282 994.394 577.351 998.708C572.421 1003.15 564.409 1005.36 553.316 1005.36H515.969V983.547H555.904ZM467.906 968.386H494.16V843.588H467.906V968.386ZM421.435 875.943H426.242C434.624 875.943 440.725 877.73 444.546 881.305C448.367 884.756 450.277 890.672 450.277 899.054V968.386H424.023V899.793C424.023 898.068 423.161 897.205 421.435 897.205H406.089C404.364 897.205 403.501 898.068 403.501 899.793L403.871 968.386H377.617L377.247 877.792H401.097L402.891 892.277C403.469 888.013 404.843 884.479 407.014 881.674C410.095 877.854 414.902 875.943 421.435 875.943ZM316.135 898.129H331.665C333.391 898.129 334.254 898.992 334.254 900.718V945.461C334.254 947.186 333.391 948.049 331.665 948.049H316.135C314.409 948.049 313.546 947.186 313.546 945.461V900.718C313.546 898.992 314.409 898.129 316.135 898.129ZM287.107 903.676V942.502C287.107 952.24 289.573 959.327 294.503 963.764C299.433 968.078 307.445 970.235 318.538 970.235H329.262C340.355 970.235 348.367 968.078 353.297 963.764C358.227 959.327 360.692 952.24 360.692 942.502V903.676C360.692 893.939 358.227 886.913 353.297 882.599C348.367 878.162 340.355 875.943 329.262 875.943H318.538C307.445 875.943 299.433 878.162 294.503 882.599C289.573 886.913 287.107 893.939 287.107 903.676Z" fill="#7164FF"/>
</svg>
