<svg width="9339" height="9339" viewBox="0 0 9339 9339" fill="none" xmlns="http://www.w3.org/2000/svg">
<path fill-rule="evenodd" clip-rule="evenodd" d="M2543.37 2675.08C2192.06 2858.49 2033.66 3221.89 2133.08 3511.17C2312.88 3380.61 2531.77 3245.27 2774.81 3118.38C3017.85 2991.5 3254.01 2889.27 3463.91 2816.38C3283.39 2569.44 2894.67 2491.68 2543.37 2675.08ZM2068.08 3549.4C2069.05 3552 2070.05 3554.6 2071.06 3557.19C1756.21 3796.05 1580.89 4013.23 1639.34 4125.18C1680.73 4204.46 1832.47 4217.72 2051.05 4175.43C1941.4 4181.48 1866.86 4161.59 1841.21 4112.45C1759.88 3956.67 2200.65 3565.84 2825.71 3239.52C3450.77 2913.2 4023.41 2774.95 4104.74 2930.74C4133.9 2986.59 4095.95 3072.66 4006.45 3175.13C4199.48 3000.05 4295.44 2849.32 4249.98 2762.25C4191.53 2650.3 3913.1 2670 3537.13 2791.8C3535.58 2789.49 3534.02 2787.19 3532.44 2784.91C3330.11 2491.73 2889.55 2410.88 2509.12 2609.49C2128.69 2808.09 1943.19 3215.8 2068.08 3549.4ZM1990.55 4115.9C1919.19 4112.23 1898.81 4093.14 1894.39 4084.69C1893.71 4083.38 1893.04 4081.62 1892.53 4079.35L2592.91 3754.4C2593.53 3758.3 2594.71 3761.96 2596.49 3765.36C2600.96 3773.93 2608.93 3780.38 2619.95 3784.81L2209.11 4092.63C2120.14 4111.2 2046.33 4118.76 1990.55 4115.9ZM2672.49 3792.62L2672.48 3792.62C2669.55 3792.46 2666.17 3792.28 2661.85 3792.15L2283.95 4075.29C2387.68 4049.04 2587.89 3981.91 2714.16 3932.62L2707.19 3789.99C2687.34 3793.42 2682.62 3793.17 2672.49 3792.62ZM3022.2 3683.1L3022.22 3683.09C3034.01 3676.88 3046.37 3670.38 3059.43 3663.56C3114.52 3634.8 3188.13 3594.22 3233.2 3563.83L3312.64 3629.63C3248.52 3666.92 3161.81 3714.29 3092.47 3750.48C3054.69 3770.21 3027.21 3784.98 3004.81 3797.03C2942.18 3830.71 2919.3 3843.01 2822.33 3882.23L2812.1 3773.3C2883.65 3756.04 2938.45 3727.19 3022.2 3683.1ZM3402.76 3572.53C3569.14 3468.38 3729.72 3353.99 3837.58 3258.36C3924.71 3181.11 3986.91 3111.88 4022.2 3055.24C4059.98 2994.59 4055.97 2966.96 4051.55 2958.5C4047.14 2950.05 4026.76 2930.96 3955.4 2927.29C3888.76 2923.87 3796.4 2935.33 3683.2 2962.66C3457.75 3017.09 3162.98 3131.13 2853.48 3292.71C2749.33 3347.08 2650.55 3403.16 2558.7 3459.51L2768.13 3547.15L2765.94 3552.39C2817.38 3515.71 2878 3478.51 2944.66 3443.71C3168.64 3326.78 3375.91 3281.2 3407.6 3341.91C3424.37 3374.02 3383.5 3442.9 3312.97 3505.29L3402.76 3572.53ZM2526.33 3479.57L2742.08 3569.86C2706.1 3596.93 2675.45 3623.47 2651.44 3648.28L2230.57 3684.03C2316.62 3617.49 2416.16 3548.46 2526.33 3479.57ZM2600.4 3716.75C2605.43 3705.92 2612.77 3694.23 2622.2 3681.88L2186.44 3718.89C2158.75 3741.25 2132.69 3763.26 2108.37 3784.83C2021.24 3862.08 1959.04 3931.31 1923.75 3987.95C1909.48 4010.86 1901.17 4029.06 1896.59 4043.3L2600.4 3716.75ZM4877.05 6092C4629.27 6092 4246.98 5557.5 4246.98 5199.98C4246.98 4842.47 4523.08 4640.7 4877.05 4640.7C5231.02 4640.7 5478.81 4835.39 5478.81 5199.98C5478.81 5564.58 5124.83 6092 4877.05 6092ZM5286.86 5548.38C5398.4 5428.07 5434.14 5279.86 5366.7 5217.33C5299.26 5154.81 5154.17 5201.65 5042.64 5321.95C4931.1 5442.26 4895.35 5590.47 4962.79 5653C5030.23 5715.52 5175.32 5668.68 5286.86 5548.38ZM4354.96 5217.33C4287.51 5279.86 4323.26 5428.07 4434.8 5548.38C4546.33 5668.68 4691.42 5715.52 4758.87 5653C4826.31 5590.47 4790.56 5442.26 4679.02 5321.95C4567.49 5201.65 4422.4 5154.81 4354.96 5217.33ZM4706.75 5835.72C4731.52 5772.85 4986.35 5785.33 5011.13 5835.72C5035.9 5886.11 4919.11 5921.5 4869.56 5921.5C4820.01 5921.5 4681.97 5898.59 4706.75 5835.72ZM5595.96 7103.64L5698.96 7128.55L5840.89 6541.69L5737.89 6516.78L5595.96 7103.64ZM5765.11 6404.2L5868.11 6429.11L5891.86 6330.91L5788.87 6306L5765.11 6404.2ZM6785.84 6535.7L6888.84 6560.61L6693.33 7369.03L6603.5 7347.31L6607.57 7284.17C6599.57 7300.05 6589.78 7312.3 6578.19 7320.9C6557.79 7335.4 6528.02 7337.92 6488.89 7328.46L6412.24 7309.92C6365.94 7298.73 6334.22 7281.34 6317.11 7257.76C6299.99 7234.18 6297.13 7198.84 6308.52 7151.73L6391.36 6809.2C6403.33 6759.7 6422.81 6728.07 6449.8 6714.31C6476.79 6700.56 6516.14 6700.35 6567.85 6713.7L6732.83 6754.87L6785.84 6535.7ZM6611.47 7256.69L6712.59 6838.56L6516.72 6788.81C6508.74 6786.88 6503.78 6789.91 6501.85 6797.89L6403.08 7206.29C6401.15 7214.28 6404.18 7219.23 6412.16 7221.17L6596.6 7265.77C6604.58 7267.7 6609.54 7264.67 6611.47 7256.69ZM6246.46 6630.89L6308.73 6645.95L6287.3 6734.58L6137.59 6698.37C6129.61 6696.44 6124.65 6699.47 6122.72 6707.45L6004.29 7202.37L5901.3 7177.46L6043.22 6590.61L6133.05 6612.33L6128.67 6667.02C6136.33 6654.54 6145.43 6644.91 6155.96 6638.16C6177.97 6624.04 6208.13 6621.62 6246.46 6630.89ZM5497.51 7093.53H5251.08C5195.22 7093.53 5154.56 7083.26 5129.09 7062.73C5104.45 7041.37 5092.12 7004.4 5092.12 6951.83V6611.75C5092.12 6559.18 5102.8 6523.44 5124.16 6504.55C5145.52 6484.83 5182.9 6474.98 5236.29 6474.98H5363.21C5416.6 6474.98 5454.8 6484.83 5477.8 6504.55C5500.8 6523.44 5512.3 6559.18 5512.3 6611.75V6852.02H5198.09V6993.73C5198.09 7001.94 5202.2 7006.05 5210.41 7006.05H5497.51V7093.53ZM5406.33 6774.4H5198.09V6573.55C5198.09 6565.34 5202.2 6561.23 5210.41 6561.23H5394.01C5402.22 6561.23 5406.33 6565.34 5406.33 6573.55V6774.4ZM4333.51 7096H4429.62C4474.8 7096 4507.66 7085.73 4528.2 7065.19C4538 7055.77 4545.65 7043.74 4551.12 7029.11C4556.43 7043.74 4563.98 7055.77 4573.79 7065.19C4595.15 7085.73 4628.42 7096 4673.6 7096H4769.71C4818.99 7096 4854.32 7086.55 4875.67 7067.66C4897.85 7048.77 4908.94 7015.09 4908.94 6966.62L4907.71 6483.6H4801.74L4802.97 6997.42C4802.97 7005.64 4798.87 7009.75 4790.65 7009.75H4615.68C4607.47 7009.75 4603.36 7005.64 4603.36 6997.42V6483.6H4499.86V6997.42C4499.86 7005.64 4495.75 7009.75 4487.54 7009.75H4312.57C4305.17 7009.75 4301.48 7005.64 4301.48 6997.42V6483.6H4195.51V6974.01C4195.51 7022.48 4206.6 7054.93 4228.78 7071.36C4250.96 7087.78 4285.87 7096 4333.51 7096Z" fill="#0FD1C5"/>
</svg>
