<svg width="9339" height="9339" viewBox="0 0 9339 9339" fill="none" xmlns="http://www.w3.org/2000/svg">
<path fill-rule="evenodd" clip-rule="evenodd" d="M5348.35 2301.61L4872.03 1529V1936.53L4433.07 1739.56L4688.98 2133.5L3934.34 2196.33L5348.35 2301.61ZM3616.81 3823.41L3616.81 3823.44C3637.41 4484.31 3665.2 5376.15 3638 6144.5H4538.24V5487.39C4538.24 5477.28 4537.06 5469.84 4536.1 5463.8C4535.2 5458.12 4534.49 5453.69 4535.17 5449.48C4537.54 5434.64 4557.02 5422.53 4645.19 5367.73L4645.19 5367.73L4645.2 5367.72L4645.24 5367.7C4709.79 5327.58 4811.14 5264.58 4969.52 5160.9L6069.94 4360.6C6194.06 4329.57 6363.72 4292.43 6537.15 4254.47L6537.18 4254.46L6537.21 4254.46C6885.62 4178.19 7249.21 4098.61 7289.28 4058.54C7299.64 4048.17 7308.96 4033.32 7317.03 4015.49C7197.64 4024.18 6728.52 4059.8 6425.16 4104.11C6074.25 4155.37 5742.61 4217.51 5608.25 4262.3C5491.89 4301.08 5393.96 4291.49 5311.24 4255.45C5231.77 4220.83 5170.99 4163.61 5124.65 4117.54C5117.87 4110.8 5111.53 4104.42 5105.5 4098.36L5105.47 4098.33C5089.62 4082.4 5075.95 4068.66 5062.26 4056.24C5043.45 4039.15 5030.58 4030.29 5021.51 4026.23C5015.15 4023.39 5013.51 4024.05 5012.87 4024.3L5012.87 4024.3L5012.79 4024.33C5012.77 4024.34 5012.75 4024.35 5012.72 4024.36C5009.87 4025.25 4998.95 4029.97 4980.3 4051.73C4953.92 4082.5 4907.59 4086.07 4876.82 4059.69C4846.05 4033.31 4842.49 3986.98 4868.87 3956.21C4897.39 3922.94 4930.06 3896.42 4968.92 3884.27C5010.11 3871.4 5048.62 3877.59 5081.38 3892.23C5111.99 3905.91 5138.65 3927.36 5160.91 3947.57C5177.59 3962.71 5195.16 3980.37 5211.9 3997.19C5217.42 4002.74 5222.85 4008.21 5228.13 4013.46C5273.6 4058.66 5317.69 4098.17 5369.86 4120.9C5418.79 4142.21 5479.28 4150.57 5561.84 4123.06C5710.54 4073.49 6055.09 4009.84 6403.95 3958.88C6719.42 3912.8 7236.84 3837.59 7350.96 3853.97C7352.89 3798.84 7345.22 3747.56 7325.33 3719.86C7267.78 3639.74 7033.82 3556.82 6841.14 3488.53C6739.02 3452.34 6648.5 3420.26 6601.96 3394.88C6561.57 3372.85 6513.47 3353.39 6461.71 3332.45L6461.71 3332.45C6365.67 3293.6 6257.02 3249.65 6161.65 3174.72C5815.69 2650.54 5652.2 2554.75 5522.16 2524.74C5392.11 2494.73 4398.18 2397.91 4048.05 2417.91C3697.92 2437.92 3599 2818.07 3599 3080.11C3599 3251.86 3607.11 3511.99 3616.81 3823.41ZM6438.06 3476.97C6377.13 3467.94 6302.9 3495.6 6294 3555.72C6285.09 3615.84 6303.62 3674.63 6401.99 3689.21C6500.37 3703.78 6607.58 3670.27 6616.49 3610.16C6625.39 3550.04 6536.43 3491.54 6438.06 3476.97ZM4496.24 2946.83C4411 3161.77 4640.33 3330.65 4855.64 3489.21C4978.58 3579.73 5096.94 3666.9 5149.57 3757.34C5156.38 3750.58 5167.5 3740.19 5181.94 3726.7C5339.94 3579.04 5896.31 3059.14 5578.17 2831.11C5440.17 2732.2 5213.51 2859.82 5178.64 2946.83C5118.74 2846.44 4614.55 2648.5 4496.24 2946.83ZM2216.43 2576.51L2216.43 2526.85H2464.72L2464.72 2741.38C2464.72 2759.92 2473.99 2769.19 2492.53 2769.19L3209.59 2765.21V3047.27L2236.29 3051.24V2795.01L2391.91 2775.74C2346.1 2769.53 2308.13 2754.77 2278.01 2731.45C2236.96 2698.34 2216.43 2646.7 2216.43 2576.51ZM2454.79 3162.49H2236.29L2236.29 3380.99H1988L1988 3663.05H2236.29V3762.36H2454.79V3663.05H2911.64C3016.25 3663.05 3092.4 3636.56 3140.07 3583.59C3186.42 3530.63 3209.59 3444.55 3209.59 3325.37V3162.49H2971.23V3353.18C2971.23 3371.72 2961.96 3380.99 2943.42 3380.99H2454.79V3162.49ZM3211.58 4104.37V4537.39L2983.15 4539.37V4152.04C2983.15 4133.5 2973.88 4124.23 2955.34 4124.23L2856.03 4124.23C2837.49 4124.23 2828.22 4133.5 2828.22 4152.04V4261.29C2828.22 4369.87 2808.36 4446.68 2768.63 4491.7C2727.58 4536.72 2657.39 4559.24 2558.08 4559.24H2504.45C2399.83 4559.24 2325.68 4535.4 2281.98 4487.73C2236.96 4438.73 2215.11 4359.94 2216.43 4251.36L2218.42 3905.74H2456.78L2454.79 4247.38C2454.79 4265.92 2464.06 4275.19 2482.6 4275.19H2577.94C2596.48 4275.19 2605.75 4265.92 2605.75 4247.38L2605.75 4144.09C2605.75 4034.18 2625.61 3957.38 2665.34 3913.68C2705.07 3868.66 2774.59 3846.15 2873.9 3846.15H2963.29C3052.01 3846.15 3115.57 3866.67 3153.98 3907.72C3192.38 3948.77 3211.58 4014.32 3211.58 4104.37ZM2216.43 5905.75L2216.43 5957.39C2216.43 6027.57 2236.96 6079.22 2278.01 6112.32C2308.13 6135.65 2346.1 6150.41 2391.91 6156.62L2236.29 6175.89V6432.12L3209.59 6428.15V6146.09L2472.67 6150.06C2454.13 6150.06 2444.86 6140.79 2444.86 6122.26V5957.39C2444.86 5938.85 2454.13 5929.58 2472.67 5929.58H3209.59V5647.52H2464.72C2374.67 5647.52 2311.11 5668.05 2274.03 5709.1C2235.63 5750.15 2216.43 5815.7 2216.43 5905.75ZM4317.7 7641.92C4331.06 7641.92 4337.74 7635.24 4337.74 7621.88V7435.09C4331.84 7457.8 4322.3 7477.6 4309.11 7494.48C4286.2 7524.06 4249.46 7538.86 4198.89 7538.86H4161.67C4097.73 7538.86 4050.49 7525.02 4019.95 7497.34C3990.37 7469.67 3975.58 7423.86 3975.58 7359.92V6823.13H4178.85V7354.2C4178.85 7367.56 4185.53 7374.24 4198.89 7374.24H4337.74L4334.87 6823.13H4538.14L4541 7596.11C4541 7671.5 4521.92 7725.9 4483.74 7759.3C4445.57 7793.65 4383.54 7810.83 4297.66 7810.83H4008.5V7641.92H4317.7ZM3636.39 7524.54H3839.65V6558.31H3636.39V7524.54ZM3276.59 6808.82H3313.81C3378.7 6808.82 3425.94 6822.65 3455.52 6850.33C3485.11 6877.05 3499.9 6922.85 3499.9 6987.75V7524.54H3296.63V6993.47C3296.63 6980.11 3289.95 6973.43 3276.59 6973.43H3157.78C3144.42 6973.43 3137.74 6980.11 3137.74 6993.47L3140.6 7524.54H2937.34L2934.47 6823.13H3119.13L3133.02 6935.28C3137.49 6902.26 3148.13 6874.9 3164.94 6853.19C3188.8 6823.61 3226.01 6808.82 3276.59 6808.82ZM2461.32 6980.59H2581.57C2594.93 6980.59 2601.61 6987.27 2601.61 7000.63V7347.04C2601.61 7360.4 2594.93 7367.08 2581.57 7367.08H2461.32C2447.96 7367.08 2441.28 7360.4 2441.28 7347.04V7000.63C2441.28 6987.27 2447.96 6980.59 2461.32 6980.59ZM2236.59 7023.53V7324.14C2236.59 7399.53 2255.67 7454.4 2293.84 7488.76C2332.02 7522.16 2394.05 7538.86 2479.93 7538.86H2562.96C2648.84 7538.86 2710.87 7522.16 2749.05 7488.76C2787.22 7454.4 2806.3 7399.53 2806.3 7324.14V7023.53C2806.3 6948.14 2787.22 6893.75 2749.05 6860.35C2710.87 6825.99 2648.84 6808.82 2562.96 6808.82H2479.93C2394.05 6808.82 2332.02 6825.99 2293.84 6860.35C2255.67 6893.75 2236.59 6948.14 2236.59 7023.53Z" fill="#7164FF"/>
</svg>
