<svg width="100" height="101" viewBox="0 0 100 101" fill="none" xmlns="http://www.w3.org/2000/svg">
<mask id="mask0_7_29" style="mask-type:alpha" maskUnits="userSpaceOnUse" x="5" y="6" width="90" height="89">
<path d="M94.1176 50.8609C94.1176 75.2264 74.3655 94.9786 50 94.9786C25.6345 94.9786 5.88232 75.2264 5.88232 50.8609C5.88232 26.4954 25.6345 6.74329 50 6.74329C74.3655 6.74329 94.1176 26.4954 94.1176 50.8609Z" fill="#D9D9D9"/>
</mask>
<g mask="url(#mask0_7_29)">
<path d="M25.3877 3.3567C25.3877 2.90796 25.7515 2.54419 26.2002 2.54419H32.5395C32.9883 2.54419 33.3521 2.90796 33.3521 3.3567V76.942C33.3521 77.1307 33.2864 77.3135 33.1663 77.459L26.827 85.1441C26.3421 85.7318 25.3877 85.389 25.3877 84.627V3.3567Z" fill="black"/>
<path d="M58.4473 -14.7837C58.4473 -15.2324 58.811 -15.5962 59.2598 -15.5962H65.5991C66.0479 -15.5962 66.4116 -15.2324 66.4116 -14.7837V45.5281C66.4116 45.7436 66.326 45.9503 66.1736 46.1026L59.8343 52.442C59.3225 52.9538 58.4473 52.5913 58.4473 51.8674V-14.7837Z" fill="black"/>
<path d="M41.9182 -1.74351C41.9182 -2.19225 42.282 -2.55603 42.7307 -2.55603H49.0701C49.5188 -2.55603 49.8826 -2.19226 49.8826 -1.74352V69.3285C49.8826 69.9404 49.2318 70.3327 48.6907 70.047L42.3514 66.6998C42.0849 66.5591 41.9182 66.2825 41.9182 65.9813V-1.74351Z" fill="black"/>
<path d="M74.9772 -12.3789C74.9772 -12.8276 75.3409 -13.1914 75.7897 -13.1914H82.129C82.5778 -13.1914 82.9415 -12.8276 82.9415 -12.3789V39.2699C82.9415 39.8408 82.3683 40.2336 81.8359 40.0277L75.4966 37.5757C75.1835 37.4546 74.9772 37.1535 74.9772 36.8179V-12.3789Z" fill="black"/>
</g>
</svg>
