<svg width="186" height="77" viewBox="0 0 186 77" fill="none" xmlns="http://www.w3.org/2000/svg">
<path d="M52.4498 44.9554H47.1059C45.4866 44.9554 44.317 44.6405 43.5973 44.0107C42.8776 43.363 42.5178 42.3284 42.5178 40.907V35.0773C42.5178 33.6559 42.8236 32.6753 43.4354 32.1355C44.0472 31.5777 45.0907 31.2988 46.5661 31.2988H48.8062C50.2996 31.2988 51.3432 31.5777 51.937 32.1355C52.5487 32.6753 52.8546 33.6559 52.8546 35.0773V39.8814H45.9184V37.1825H49.0761V34.7804C49.0761 34.5285 48.9502 34.4026 48.6983 34.4026H46.7281C46.4762 34.4026 46.3502 34.5285 46.3502 34.7804V41.3388C46.3502 41.5907 46.4762 41.7167 46.7281 41.7167H52.4498V44.9554Z" fill="white"/>
<path fill-rule="evenodd" clip-rule="evenodd" d="M53.2042 45.7097H47.106C45.4206 45.7097 44.0257 45.3879 43.1006 44.5785L43.0927 44.5715C42.1516 43.7246 41.7634 42.4408 41.7634 40.907V35.0773C41.7634 33.5939 42.0744 32.3339 42.9317 31.5739C43.7568 30.8249 45.0387 30.5444 46.5662 30.5444H48.8063C50.3427 30.5444 51.633 30.8214 52.445 31.5776C53.2991 32.338 53.6091 33.5964 53.6091 35.0773V40.6358H47.1047V40.9623H53.2042V45.7097ZM46.3503 39.8814H52.8547V35.0773C52.8547 33.6559 52.5488 32.6753 51.937 32.1355C51.3433 31.5777 50.2997 31.2988 48.8063 31.2988H46.5662C45.0908 31.2988 44.0472 31.5777 43.4354 32.1355C42.8237 32.6753 42.5178 33.6559 42.5178 35.0773V40.907C42.5178 42.3284 42.8777 43.363 43.5974 44.0107C44.3171 44.6405 45.4866 44.9554 47.106 44.9554H52.4498V41.7166H46.7281C46.4762 41.7166 46.3503 41.5907 46.3503 41.3388V39.8814ZM46.3503 37.1825H49.0762V34.7804C49.0762 34.5285 48.9502 34.4026 48.6983 34.4026H46.7281C46.4762 34.4026 46.3503 34.5285 46.3503 34.7804V37.1825ZM48.3218 36.4281V35.157H47.1047V36.4281H48.3218Z" fill="black"/>
<path d="M36.1607 31.2993H36.8625C38.086 31.2993 38.9766 31.5602 39.5344 32.082C40.0922 32.5858 40.3711 33.4494 40.3711 34.6729V44.7939H36.5386V34.7809C36.5386 34.529 36.4126 34.403 36.1607 34.403H33.9206C33.6687 34.403 33.5428 34.529 33.5428 34.7809L33.5968 44.7939H29.7643L29.7103 26.5762H33.5428V34.403H33.4078C33.4078 33.4494 33.6238 32.6937 34.0556 32.1359C34.5054 31.5782 35.2071 31.2993 36.1607 31.2993Z" fill="white"/>
<path fill-rule="evenodd" clip-rule="evenodd" d="M34.0556 32.1359C33.8209 32.4391 33.65 32.8008 33.5428 33.2209V26.5762H29.7104L29.7643 44.7939H33.5968L33.5428 34.7809C33.5428 34.529 33.6688 34.403 33.9207 34.403H36.1608C36.4127 34.403 36.5386 34.529 36.5386 34.7809V44.7939H40.3711V34.6729C40.3711 33.4494 40.0922 32.5858 39.5344 32.082C38.9767 31.5602 38.086 31.2993 36.8625 31.2993H36.1608C35.3635 31.2993 34.7423 31.4942 34.2972 31.8841C34.2099 31.9605 34.1294 32.0445 34.0556 32.1359ZM34.2972 30.9686V25.8218H28.9537L29.0122 45.5483H34.3553L34.2993 35.1574H35.7842V45.5483H41.1255V34.6729C41.1255 33.3689 40.8334 32.2425 40.0453 31.5269C39.2843 30.818 38.1651 30.5449 36.8625 30.5449H36.1608C35.4672 30.5449 34.8318 30.6749 34.2972 30.9686ZM34.2972 34.7804L34.2972 34.7788Z" fill="black"/>
<path d="M28.3067 31.569V34.5378H25.068L25.3379 34.2679V41.1771C25.3379 41.429 25.4638 41.555 25.7157 41.555H28.3067V44.7937H26.0936C24.4742 44.7937 23.3047 44.4788 22.585 43.849C21.8653 43.2013 21.5054 42.1667 21.5054 40.7453V34.2679L21.7753 34.5378H20.1559V31.569H21.7753L21.5054 31.8389V28.1953H25.3379V31.8389L25.068 31.569H28.3067Z" fill="white"/>
<path fill-rule="evenodd" clip-rule="evenodd" d="M29.0611 30.8146V35.2921H26.0922V40.8006H29.0611V45.548H26.0936C24.4082 45.548 23.0133 45.2262 22.0882 44.4168L22.0803 44.4098C21.1392 43.5629 20.751 42.2791 20.751 40.7453V35.2921H19.4016V30.8146H20.751V27.4409H26.0922V30.8146H29.0611ZM25.3379 31.569H28.3067V34.5378H25.3379V41.1771C25.3379 41.429 25.4638 41.555 25.7157 41.555H28.3067V44.7937H26.0936C24.4742 44.7937 23.3047 44.4788 22.585 43.849C21.8653 43.2013 21.5054 42.1667 21.5054 40.7453V34.5378H20.1559V31.569H21.5054V28.1953H25.3379V31.569Z" fill="black"/>
<path d="M164.494 26.7461H165.81V33.3258H160.125C159.634 33.3258 159.388 33.5714 159.388 34.0627L159.493 53.0648H152.019L151.914 27.2725H158.704L159.388 32.7994H159.125C159.125 30.9395 159.546 29.4657 160.388 28.3779C161.265 27.29 162.634 26.7461 164.494 26.7461Z" fill="white"/>
<path fill-rule="evenodd" clip-rule="evenodd" d="M166.564 25.9917V34.0801H160.143L160.252 53.8192H151.268L151.156 26.5181H159.371L159.58 28.2081C159.647 28.1085 159.718 28.0111 159.792 27.916L159.796 27.9101L159.801 27.9043C160.865 26.5842 162.487 25.9917 164.494 25.9917H166.564ZM159.737 29.4769C159.485 30.0454 159.311 30.6853 159.214 31.3964L158.704 27.2725H151.914L152.019 53.0648H159.493L159.388 34.0627C159.388 33.8447 159.436 33.675 159.533 33.5538C159.654 33.4018 159.852 33.3258 160.125 33.3258H165.81V26.7461H164.494C162.634 26.7461 161.265 27.29 160.388 28.3778C160.132 28.7085 159.915 29.0749 159.737 29.4769Z" fill="black"/>
<path d="M148.965 27.2721V33.0622H142.649L143.175 32.5358V46.011C143.175 46.5023 143.421 46.7479 143.912 46.7479H148.965V53.0644H144.649C141.491 53.0644 139.21 52.4503 137.806 51.2221C136.403 49.9588 135.701 47.941 135.701 45.1688V32.5358L136.227 33.0622H133.069V27.2721H136.227L135.701 27.7984V20.6924H143.175V27.7984L142.649 27.2721H148.965Z" fill="white"/>
<path fill-rule="evenodd" clip-rule="evenodd" d="M149.72 26.5177V33.8165H143.93V45.9935H149.72V53.8188H144.649C141.425 53.8188 138.918 53.1977 137.309 51.7898L137.301 51.7828C135.677 50.3204 134.946 48.0534 134.946 45.1688V33.8165H132.314V26.5177H134.946V19.938H143.93V26.5177H149.72ZM143.175 20.6924H135.701V27.272H133.069V33.0622H135.701V45.1688C135.701 47.941 136.403 49.9588 137.806 51.2221C139.21 52.4503 141.491 53.0644 144.649 53.0644H148.965V46.7479H143.912C143.421 46.7479 143.175 46.5022 143.175 46.011V33.0622H148.965V27.272H143.175V20.6924Z" fill="black"/>
<path d="M124.006 53.1175H112.531L112.478 47.0642H122.743C123.234 47.0642 123.479 46.8185 123.479 46.3272V43.6954C123.479 43.2041 123.234 42.9585 122.743 42.9585H119.847C116.97 42.9585 114.935 42.4321 113.742 41.3793C112.548 40.2915 111.952 38.4316 111.952 35.7998V34.3786C111.952 31.6063 112.583 29.6412 113.847 28.4832C115.145 27.2901 117.233 26.711 120.111 26.7461L129.27 26.7988V33.1153L120.216 33.0626C119.725 33.0626 119.479 33.3083 119.479 33.7995V36.3261C119.479 36.8174 119.725 37.0631 120.216 37.0631H122.953C125.866 37.0631 127.901 37.5894 129.059 38.6422C130.252 39.6949 130.849 41.5372 130.849 44.1691V46.5378C130.849 48.8889 130.305 50.5733 129.217 51.591C128.129 52.6086 126.392 53.1175 124.006 53.1175Z" fill="white"/>
<path fill-rule="evenodd" clip-rule="evenodd" d="M111.783 53.8718L111.717 46.3098H122.725V43.7128H119.847C116.919 43.7128 114.648 43.1853 113.242 41.945L113.233 41.9368C111.808 40.6375 111.197 38.5143 111.197 35.7998V34.3785C111.197 31.5219 111.844 29.296 113.337 27.9274C114.843 26.5437 117.164 25.9561 120.117 25.9918C120.118 25.9918 120.119 25.9918 120.12 25.9918L130.024 26.0487V33.874L120.233 33.8171V36.3087H122.953C125.907 36.3087 128.187 36.8327 129.562 38.0802C130.995 39.3474 131.603 41.4604 131.603 44.1691V46.5378C131.603 48.9796 131.041 50.9171 129.732 52.1419C128.441 53.3497 126.474 53.8718 124.006 53.8718H111.783ZM120.216 33.0626L129.27 33.1152V26.7988L120.111 26.7461C117.233 26.711 115.145 27.29 113.847 28.4832C112.583 29.6412 111.952 31.6063 111.952 34.3785V35.7998C111.952 38.4316 112.548 40.2915 113.742 41.3793C114.935 42.4321 116.97 42.9584 119.847 42.9584H122.742C123.234 42.9584 123.479 43.2041 123.479 43.6954V46.3272C123.479 46.8185 123.234 47.0642 122.742 47.0642H112.478L112.531 53.1175H124.006C126.392 53.1175 128.129 52.6086 129.217 51.591C130.305 50.5733 130.849 48.8889 130.849 46.5378V44.1691C130.849 41.5372 130.252 39.6949 129.059 38.6422C127.901 37.5894 125.866 37.063 122.953 37.063H120.216C119.725 37.063 119.479 36.8174 119.479 36.3261V33.7995C119.479 33.3082 119.725 33.0626 120.216 33.0626Z" fill="black"/>
<path d="M75.6768 41.221V19.6396H82.3618V53.0644H76.8349L62.149 31.3778H63.2544V53.0644H56.5695V19.6396H62.0437L76.7296 41.221H75.6768Z" fill="white"/>
<path fill-rule="evenodd" clip-rule="evenodd" d="M75.6768 39.6739V19.6396H82.3618V53.0644H76.8348L63.2544 33.0101V53.0644H56.5694V19.6396H62.0437L75.6768 39.6739ZM64.0088 35.4695V53.8188H55.8151V18.8853H62.4429L74.9224 37.2244V18.8853H83.1162V53.8188H76.4346L64.0088 35.4695Z" fill="black"/>
<path d="M83.5808 37.1294C83.5808 45.0319 92.0678 56.8465 97.5687 56.8465C103.07 56.8465 110.928 45.1884 110.928 37.1294C110.928 29.0704 105.427 24.7671 97.5687 24.7671C89.7103 24.7671 83.5808 29.2269 83.5808 37.1294Z" fill="#0DE6BF"/>
<path fill-rule="evenodd" clip-rule="evenodd" d="M92.4076 55.7115C94.0483 56.9986 95.8423 57.9072 97.5688 57.9072C99.2978 57.9072 101.054 57.0067 102.643 55.7244C104.255 54.4232 105.821 52.628 107.19 50.6042C109.91 46.5826 111.989 41.4466 111.989 37.1292C111.989 32.8433 110.517 29.4451 107.898 27.131C105.297 24.8331 101.683 23.7061 97.5688 23.7061C93.4481 23.7061 89.6927 24.8752 86.9474 27.1708C84.1805 29.4844 82.5199 32.8785 82.5199 37.1292C82.5199 41.3921 84.7759 46.5375 87.6481 50.567C89.0959 52.5982 90.7398 54.403 92.4076 55.7115ZM97.5688 56.8463C92.0679 56.8463 83.5808 45.0317 83.5808 37.1292C83.5808 29.2267 89.7104 24.7669 97.5688 24.7669C105.427 24.7669 110.928 29.0703 110.928 37.1292C110.928 45.1882 103.07 56.8463 97.5688 56.8463Z" fill="black"/>
<path d="M108.439 37.5146C109.936 38.8966 109.143 42.1728 106.666 44.832C104.19 47.4912 100.969 48.5266 99.472 47.1445C97.9748 45.7625 98.7684 42.4864 101.245 39.8271C103.721 37.1679 106.942 36.1325 108.439 37.5146Z" fill="black"/>
<path d="M85.9775 37.5146C84.4802 38.8966 85.2738 42.1728 87.75 44.832C90.2262 47.4912 93.4473 48.5266 94.9445 47.1445C96.4417 45.7625 95.6481 42.4864 93.1719 39.8271C90.6958 37.1679 87.4747 36.1325 85.9775 37.5146Z" fill="black"/>
<path d="M108.102 40.5938C108.316 40.7829 107.896 42.6209 106.515 44.1714C105.133 45.7219 103.314 46.3976 103.1 46.2085C102.886 46.0194 103.831 44.6092 105.213 43.0587C106.594 41.5082 107.888 40.4048 108.102 40.5938Z" fill="white"/>
<path d="M102.927 39.9596C102.83 39.8023 103.217 38.8741 104.091 38.3394C104.964 37.8048 105.994 37.8652 106.091 38.0225C106.189 38.1798 105.559 38.7416 104.685 39.2762C103.811 39.8109 103.024 40.1169 102.926 39.9596H102.927Z" fill="white"/>
<path d="M89.3516 43.0587C90.733 44.6092 91.6794 46.0194 91.4646 46.2085C91.2506 46.3976 89.431 45.7219 88.0496 44.1714C86.6683 42.6209 86.248 40.7829 86.4628 40.5938C86.6776 40.4048 87.9703 41.5082 89.3516 43.0587Z" fill="white"/>
<path d="M89.8692 39.2764C88.9952 38.7418 88.3656 38.18 88.4629 38.0227C88.5602 37.8654 89.5898 37.8042 90.4638 38.3396C91.3378 38.8743 91.7253 39.8026 91.6273 39.9599C91.5292 40.1172 90.7424 39.8119 89.8684 39.2764H89.8692Z" fill="white"/>
<path d="M100.614 51.221C100.066 50.1071 94.4326 49.8312 93.8849 51.221C93.3372 52.6108 96.3887 53.1174 97.4841 53.1174C98.5794 53.1174 101.161 52.335 100.614 51.221Z" fill="black"/>
</svg>
