<svg width="1200" height="1200" viewBox="0 0 1200 1200" fill="none" xmlns="http://www.w3.org/2000/svg">
<path fill-rule="evenodd" clip-rule="evenodd" d="M508.303 587.031L529.405 621.259L466.762 616.595L500.193 613.811L488.856 596.359L508.303 605.085V587.031ZM446.684 693.125C445.729 677.275 444.931 664.013 444.931 655.618C444.931 652.432 445.261 648.851 446.061 645.315H446.457C446.661 645.315 446.827 645.481 446.827 645.686L446.827 659.635C446.827 660.027 447.356 660.151 447.53 659.8L454.452 645.851C454.575 645.604 454.396 645.315 454.12 645.315H450.334C450.129 645.315 449.963 645.149 449.963 644.944L449.963 635.348C453.049 630.363 457.794 626.684 464.824 626.282C480.336 625.396 524.368 629.685 530.129 631.015C535.89 632.344 543.133 636.588 558.459 659.81C562.684 663.129 567.497 665.076 571.752 666.797L571.752 666.797C574.046 667.725 576.176 668.587 577.966 669.563C580.027 670.687 584.038 672.109 588.561 673.712C597.098 676.737 607.462 680.411 610.012 683.96C610.893 685.187 611.233 687.459 611.147 689.901C606.092 689.175 583.169 692.507 569.193 694.549C553.738 696.806 538.474 699.626 531.886 701.822C528.229 703.041 525.549 702.671 523.382 701.726C521.07 700.72 519.117 698.969 517.103 696.967C516.869 696.734 516.628 696.492 516.384 696.246C515.642 695.501 514.864 694.718 514.125 694.048C513.139 693.152 511.958 692.202 510.602 691.596C509.15 690.948 507.444 690.673 505.619 691.244C503.898 691.782 502.45 692.957 501.187 694.431C500.018 695.794 500.176 697.846 501.539 699.015C502.903 700.183 504.955 700.026 506.123 698.662C506.95 697.698 507.433 697.489 507.56 697.449C507.561 697.449 507.563 697.448 507.565 697.448L507.566 697.447C507.595 697.436 507.667 697.407 507.949 697.533C508.351 697.712 508.921 698.105 509.755 698.862C510.361 699.412 510.967 700.021 511.669 700.727C511.936 700.996 512.218 701.279 512.519 701.578C514.571 703.618 517.264 706.154 520.785 707.687C524.449 709.284 528.788 709.709 533.943 707.991C539.895 706.007 554.587 703.254 570.133 700.983C583.572 699.02 604.356 697.442 609.644 697.057C609.287 697.847 608.874 698.505 608.415 698.964C606.64 700.739 590.532 704.265 575.097 707.643C567.413 709.325 559.896 710.971 554.396 712.345L505.647 747.8C498.628 752.394 494.138 755.185 491.278 756.963L491.278 756.963L491.278 756.963L491.278 756.963C487.372 759.39 486.509 759.927 486.404 760.584C486.374 760.771 486.405 760.967 486.445 761.219C486.488 761.486 486.54 761.816 486.54 762.264V776.503L480.367 788.138C480.236 788.385 480.415 788.683 480.695 788.683H484.172C484.376 788.683 484.542 788.849 484.542 789.054V792.173H449.552C449.672 788.779 449.755 785.326 449.804 781.831L460.094 761.1C460.346 760.591 459.976 759.993 459.408 759.993H451.588C451.165 759.993 450.823 759.651 450.823 759.228L450.823 733.491C450.823 732.693 449.755 732.427 449.381 733.132L448.904 734.031C448.62 727.488 448.292 721.045 447.949 714.803H448.782C448.986 714.803 449.152 714.969 449.152 715.174L449.152 729.124C449.152 729.516 449.681 729.64 449.855 729.289L456.777 715.339C456.9 715.092 456.72 714.803 456.445 714.803H452.659C452.454 714.803 452.288 714.637 452.288 714.432L452.288 701.968C452.288 701.581 451.771 701.453 451.59 701.794L447.637 709.245C447.318 703.652 446.992 698.253 446.684 693.126L446.684 693.125ZM511.472 641.915C494.334 642.677 483.549 653.942 484.521 665.896C485.494 677.849 499.137 686.494 514.994 685.204C534.392 683.625 542.67 660.274 542.67 660.274C542.67 660.274 530.628 643.93 511.472 641.915ZM890.888 888.184H900.894V882.972C900.964 881.86 901.103 880.992 901.311 880.366C901.52 879.741 902.006 879.011 902.77 878.177L909.858 870.777C912.012 868.553 913.506 866.712 914.34 865.253C915.164 863.922 915.612 862.246 915.685 860.223L915.091 861.42C914.916 861.771 914.388 861.647 914.388 861.255V847.305C914.388 847.1 914.222 846.934 914.017 846.934H910.541C910.261 846.934 910.082 846.637 910.213 846.389L912.334 842.391C912.308 842.368 912.282 842.345 912.256 842.322C909.963 840.306 906.384 839.299 901.52 839.299H884.842V848.263H904.23C904.994 848.263 905.376 848.645 905.376 849.409V861.292C905.376 861.709 905.342 862.056 905.272 862.334C905.203 862.543 904.994 862.821 904.647 863.168L895.474 872.757C894.223 874.008 893.251 875.051 892.556 875.884C891.93 876.718 891.479 877.587 891.201 878.49C890.992 879.324 890.888 880.436 890.888 881.826V888.184ZM890.784 905.799H898.367L900.999 900.838V894.125H890.784V905.799ZM857.012 906.633H851.175C847.005 906.633 843.913 905.799 841.898 904.131C839.952 902.394 838.979 899.441 838.979 895.272V854.725H849.298V897.148C849.298 897.912 849.646 898.294 850.341 898.294H865.976L865.871 854.725H876.086L876.137 879.383L873.015 885.267C872.884 885.514 873.063 885.812 873.342 885.812H876.15L876.19 905.799H867.122L866.231 899.964C865.863 901.592 865.222 902.946 864.308 904.027C862.849 905.764 860.417 906.633 857.012 906.633ZM803.11 862.543H818.016C818.78 862.543 819.162 862.925 819.162 863.689V896.835C819.162 897.599 818.78 897.982 818.016 897.982H803.11C802.346 897.982 801.964 897.599 801.964 896.835V863.689C801.964 862.925 802.346 862.543 803.11 862.543ZM791.645 866.712V893.812C791.645 898.468 792.757 901.769 794.98 903.714C797.273 905.66 800.956 906.633 806.029 906.633H815.097C820.17 906.633 823.818 905.66 826.042 903.714C828.335 901.769 829.481 898.468 829.481 893.812V866.712C829.481 866.683 829.481 866.653 829.481 866.624L826.616 872.398C826.442 872.749 825.913 872.625 825.913 872.233V858.284C825.913 858.079 825.747 857.913 825.543 857.913H822.066C821.786 857.913 821.607 857.615 821.738 857.368L822.972 855.043C820.909 854.275 818.284 853.891 815.097 853.891H806.029C800.956 853.891 797.273 854.864 794.98 856.81C792.757 858.755 791.645 862.056 791.645 866.712ZM771.587 917.89C772.352 917.89 772.734 917.508 772.734 916.743V900.914C772.353 902.126 771.797 903.164 771.066 904.027C769.607 905.764 767.175 906.633 763.77 906.633H757.933C753.969 906.633 751.01 905.879 749.056 904.372L752.296 897.843C752.419 897.596 752.239 897.307 751.964 897.307H748.178C747.973 897.307 747.807 897.141 747.807 896.936V884.472C747.807 884.085 747.29 883.956 747.109 884.298L745.842 886.686V854.725H756.057V897.148C756.057 897.912 756.439 898.294 757.203 898.294H772.734L772.63 854.725H782.845L783.053 913.617C783.053 918.272 781.906 921.573 779.613 923.519C777.32 925.464 773.637 926.437 768.565 926.437H747.718V917.89H771.587ZM695.488 906.424H716.335V897.773H692.465C691.77 897.773 691.423 897.391 691.423 896.627V886.099H717.585V866.191C717.585 861.466 716.578 858.234 714.563 856.497C712.547 854.76 709.142 853.891 704.348 853.891H694.133C689.338 853.891 685.968 854.76 684.022 856.497C682.077 858.234 681.104 861.466 681.104 866.191V884.087L681.883 882.619C682.064 882.277 682.581 882.406 682.581 882.793V895.257C682.581 895.462 682.747 895.628 682.952 895.628H686.738C687.013 895.628 687.193 895.917 687.07 896.164L683.767 902.819C683.979 903.063 684.203 903.292 684.439 903.506C686.733 905.452 690.415 906.424 695.488 906.424ZM691.423 878.699V863.376C691.423 862.612 691.77 862.23 692.465 862.23H706.328C707.093 862.23 707.475 862.612 707.475 863.376V878.699H691.423ZM671.595 853.891H676.39V862.855H663.778C663.013 862.855 662.631 863.203 662.631 863.898L662.735 905.799H652.521L652.468 879.827L658.526 867.619C658.648 867.373 658.469 867.083 658.194 867.083H654.407C654.203 867.083 654.037 866.917 654.037 866.712V854.725H661.485L662.292 860.007C662.672 858.598 663.271 857.428 664.09 856.497C665.689 854.76 668.19 853.891 671.595 853.891ZM617.73 906.633H622.941C626.346 906.633 628.778 905.764 630.238 904.027C631.102 902.957 631.711 901.617 632.063 900.01L632.948 905.799H642.224V899.832C642.163 899.787 642.087 899.761 642.006 899.761H638.529C638.249 899.761 638.07 899.463 638.201 899.216L642.224 891.633V867.129C642.224 862.473 641.147 859.207 638.993 857.331C636.909 855.455 633.434 854.551 628.57 854.621H608.766V863.272H630.655C631.419 863.272 631.801 863.62 631.801 864.315V875.78H618.876C614.082 875.78 610.677 876.649 608.662 878.386C607.746 879.175 607.038 880.251 606.539 881.614C606.598 881.655 606.67 881.678 606.747 881.678H610.534C610.809 881.678 610.988 881.968 610.866 882.214L605.639 892.747V895.272C605.639 899.441 606.612 902.394 608.557 904.131C610.503 905.799 613.561 906.633 617.73 906.633ZM631.801 883.285H616.896C616.132 883.285 615.749 883.632 615.749 884.327V897.148C615.749 897.912 616.132 898.294 616.896 898.294H631.801V883.285ZM578.732 678.864C578.732 680.933 575.161 682.739 572.415 682.739C569.669 682.739 568.786 680.933 568.786 678.864C568.786 676.796 570.508 674.085 573.255 674.085C575.592 674.085 578.732 676.796 578.732 678.864Z" fill="#7164FF"/>
<path fill-rule="evenodd" clip-rule="evenodd" d="M659.393 238.027C653.503 233.253 643.66 233.799 639.299 242.015L613.413 290.78H615.091C615.722 290.78 616.133 291.443 615.852 292.008L599.976 323.976C599.577 324.78 598.365 324.496 598.365 323.598V319.129L548.468 413.127V413.278C548.468 413.748 548.848 414.128 549.318 414.128L555.979 414.128L645.574 245.346C648.537 239.764 656.995 241.869 656.995 248.19L656.995 406.783L664.099 393.403L664.099 248.19C664.099 245.139 663.191 242.54 661.708 240.476H658.965C658.567 240.476 658.312 240.054 658.498 239.704L659.393 238.027ZM664.099 447.792C663.701 447.75 663.332 447.442 663.332 446.946V414.978C663.332 414.509 662.952 414.128 662.482 414.128H656.995V472.253C654.353 471.463 651.206 471.067 647.555 471.067H643.433C637.83 471.067 633.707 472.706 631.064 475.983C629.202 478.388 628.024 481.419 627.528 485.076L625.99 472.653H605.535L605.542 474.532C605.811 474.078 606.524 474.263 606.524 474.802V492.459C606.524 492.75 606.76 492.985 607.051 492.985H612.443C612.835 492.985 613.09 493.395 612.916 493.744L605.68 508.251L605.852 550.352H628.369L628.051 491.523C628.051 490.043 628.791 489.303 630.271 489.303H643.433C644.913 489.303 645.653 490.043 645.653 491.523V550.352H656.995V562.582L661.734 553.648C661.915 553.307 662.432 553.436 662.432 553.822V566.286C662.432 566.491 662.598 566.657 662.803 566.657H664.099V551.497C664.081 551.495 664.063 551.494 664.044 551.494H659.094C658.696 551.494 658.441 551.073 658.628 550.723L668.043 533.065C668.078 533 668.121 532.948 668.169 532.906V490.888C668.169 484.347 666.812 479.556 664.099 476.516V447.792ZM664.224 572.629L660.432 580.27C662.841 582.909 666.309 584.566 670.163 584.566H724.976V581.071C724.976 580.883 724.823 580.73 724.634 580.73H721.422C721.164 580.73 720.998 580.455 721.119 580.228L727.229 568.744C727.396 568.43 727.874 568.549 727.874 568.905V580.388C727.874 580.577 728.027 580.73 728.216 580.73H731.715C731.969 580.73 732.134 580.996 732.021 581.223L730.358 584.566H768.41C772.911 584.566 775.843 589.296 773.842 593.328L768.232 604.626H744.966V613.172C744.966 613.376 745.132 613.542 745.336 613.542H749.123C749.398 613.542 749.577 613.832 749.455 614.078L742.533 628.028C742.402 628.29 742.075 628.287 741.917 628.106V642.701H726.687V676.208H732.69L712.01 717.856V738.697C712.01 739.047 712.295 739.332 712.647 739.332H713.833C713.8 736.431 713.637 733.701 713.345 731.142L740.621 676.208H741.917V694.526H745.507C745.782 694.526 745.961 694.815 745.838 695.062L741.917 702.964V746.266C741.917 748.243 741.979 750.154 742.102 751.998L747.933 741.028C748.323 740.295 749.435 740.572 749.435 741.402V768.177C749.435 768.617 749.792 768.974 750.233 768.974H758.382C758.974 768.974 759.36 769.595 759.097 770.125L753.718 780.944C753.845 781.062 753.973 781.179 754.101 781.295C762.224 788.403 775.424 791.956 793.7 791.956H802.277V791.896C802.277 791.692 802.111 791.526 801.906 791.526H798.43C798.15 791.526 797.971 791.228 798.102 790.981L804.715 778.516C804.896 778.175 805.413 778.304 805.413 778.69V791.155C805.413 791.359 805.579 791.526 805.783 791.526H809.57C809.807 791.526 809.972 791.74 809.936 791.956H818.677V755.404H789.435C786.592 755.404 785.171 753.983 785.171 751.14V676.208H818.677V642.701H803.601L797.038 655.927C796.864 656.278 796.336 656.154 796.336 655.762V642.701H785.171V626.956L784.639 628.028C784.465 628.379 783.936 628.255 783.936 627.863V613.913C783.936 613.709 783.77 613.542 783.566 613.542H780.089C779.809 613.542 779.63 613.245 779.761 612.998L784.203 604.626H776.163L780.204 596.487C782.706 591.449 781.658 585.907 778.454 582.111L776.114 586.826C775.94 587.177 775.412 587.053 775.412 586.661V579.46C773.419 578.204 771.037 577.462 768.41 577.462H735.828C736.314 577.113 736.773 576.745 737.204 576.357C740.209 573.727 742.146 569.923 743.016 564.944L739.446 572.118C739.285 572.441 738.797 572.327 738.797 571.966V559.114C738.797 558.925 738.643 558.772 738.454 558.772H735.242C734.984 558.772 734.818 558.498 734.939 558.27L741.049 546.787C741.216 546.473 741.694 546.591 741.694 546.947V558.431C741.694 558.619 741.847 558.772 742.036 558.772H743.544C743.546 558.609 743.547 558.445 743.547 558.28V496.998L742.158 499.788C741.997 500.111 741.509 499.997 741.509 499.636V486.784C741.509 486.596 741.356 486.443 741.167 486.443H737.954C737.696 486.443 737.531 486.168 737.652 485.941L743.547 474.861V472.653L704.697 472.177C696.029 472.072 689.898 473.657 686.303 476.934C682.709 480.106 680.912 485.656 680.912 493.584V498.427L683.93 492.767C684.188 492.283 684.924 492.466 684.924 493.013V510.671C684.924 510.961 685.16 511.196 685.452 511.196H690.843C691.235 511.196 691.49 511.606 691.316 511.955L681.459 531.717C681.344 531.949 681.119 532.035 680.912 532.004V532.116C680.912 539.199 682.55 544.273 685.828 547.339C689.21 550.405 694.443 551.937 701.526 551.937H705.49C711.093 551.937 715.163 550.299 717.7 547.022C719.201 545.02 720.258 542.648 720.871 539.906V561.134C720.871 562.614 720.131 563.354 718.651 563.354H684.559V577.462H670.163C667.236 577.462 664.793 575.388 664.224 572.629ZM713.84 752.068L707.832 764.145C707.532 764.746 706.625 764.534 706.625 763.862V739.967C706.625 739.616 706.34 739.332 705.988 739.332H700.017C699.537 739.332 699.23 738.822 699.455 738.399L710.197 718.203C708.675 714.556 706.676 711.541 704.201 709.157L700.555 716.503C700.381 716.854 699.853 716.73 699.853 716.338V705.791C695.435 703.082 689.592 701.229 682.323 700.231V701.646C682.323 701.851 682.489 702.017 682.694 702.017H686.48C686.755 702.017 686.934 702.307 686.812 702.553L679.89 716.503C679.716 716.854 679.187 716.73 679.187 716.338V702.388C679.187 702.183 679.021 702.017 678.817 702.017H675.34C675.06 702.017 674.881 701.72 675.012 701.473L676.005 699.602C673.522 699.439 670.904 699.358 668.15 699.358H652.31C649.467 699.358 648.046 697.937 648.046 695.094V680.473C648.046 677.63 649.467 676.208 652.31 676.208L704.702 676.513V651.445L700.555 659.801C700.381 660.152 699.853 660.028 699.853 659.637V645.687C699.853 645.482 699.687 645.316 699.482 645.316H696.005C695.726 645.316 695.547 645.018 695.678 644.771L698.25 639.923L651.701 639.656C650.122 639.637 648.584 639.649 647.087 639.694L641.787 650.373C641.613 650.724 641.085 650.6 641.085 650.208V640.065C637.041 640.456 633.349 641.119 630.008 642.056C630.037 642.21 630.018 642.376 629.94 642.534L615.719 671.208C615.362 671.929 614.276 671.674 614.276 670.869V650.861C609.149 656.218 606.036 664.148 604.937 674.653C605.449 674.889 605.949 675.128 606.433 675.368C609.135 676.709 612.32 678.547 614.1 681.025C615.374 682.798 615.851 684.946 616.049 686.609C616.263 688.405 616.228 690.331 616.026 692.152C615.823 693.977 615.435 695.855 614.853 697.554C614.31 699.139 613.434 701.065 611.974 702.524C611.18 703.319 610.244 703.798 609.738 704.042C609.111 704.345 608.41 704.621 607.703 704.874C607.069 705.1 606.363 705.332 605.597 705.566C606.428 710.09 607.725 714.011 609.489 717.327L613.687 709.416C613.868 709.074 614.385 709.203 614.385 709.59V722.054C614.385 722.259 614.55 722.425 614.755 722.425H618.542C618.817 722.425 618.996 722.714 618.874 722.961L617.262 726.209C620.223 728.23 623.859 729.829 628.169 731.006V729.512C628.169 729.307 628.003 729.141 627.798 729.141H624.321C624.042 729.141 623.863 728.843 623.994 728.596L630.607 716.132C630.788 715.791 631.305 715.919 631.305 716.306V728.77C631.305 728.975 631.47 729.141 631.675 729.141H635.462C635.737 729.141 635.916 729.43 635.794 729.677L634.467 732.351C639.105 733.099 644.342 733.474 650.178 733.474H666.931C669.774 733.474 671.196 734.895 671.196 737.738V752.968C671.196 755.811 669.774 757.233 666.931 757.233H607.534L607.799 787.784L611.62 780.583C611.801 780.242 612.318 780.37 612.318 780.757V792.262H616.721L619.628 786.783C619.809 786.441 620.326 786.57 620.326 786.957V792.262H629.207L630.607 789.624C630.788 789.283 631.305 789.412 631.305 789.798V792.262H674.242C674.518 792.262 674.794 792.261 675.067 792.258C675.067 792.258 641.965 855.934 642.872 856.913C646.166 860.465 645.197 867.762 645.197 867.762L682.356 793.537C682.322 793.461 682.32 793.37 682.364 793.287L687.395 783.765C687.533 783.505 687.926 783.603 687.926 783.898V791.072C694.703 789.747 700.066 787.315 704.018 783.776H701.947C701.667 783.776 701.488 783.478 701.619 783.231L708.232 770.767C708.413 770.425 708.93 770.554 708.93 770.941V777.601C712.203 771.802 713.84 763.998 713.84 754.187V752.068ZM702.989 639.951V644.945C702.989 645.15 703.155 645.316 703.359 645.316H704.702V639.961L702.989 639.951ZM741.917 604.964L742.096 604.626H741.917V604.964ZM659.296 578.837V567.028C659.296 566.823 659.131 566.657 658.926 566.657H656.995V571.397C656.995 574.158 657.844 576.72 659.296 578.837ZM588.746 474.833L583.198 485.238C583.011 485.588 583.266 486.01 583.664 486.01L588.615 486.01C588.66 486.01 588.704 486.016 588.746 486.027V550.352H576.477L577.397 548.508C577.571 548.159 577.316 547.749 576.924 547.749H571.532C571.241 547.749 571.004 547.514 571.004 547.223V529.566C571.004 529.018 570.268 528.836 570.01 529.319L566.23 536.41V472.653H588.746V474.833ZM566.23 547.796V550.352H566.539V548.274C566.539 548.061 566.412 547.878 566.23 547.796ZM541.276 441.826V426.675L516.327 473.675C515.391 474.324 514.564 475.093 513.846 475.983C511.999 478.368 510.825 481.37 510.322 484.987L510.303 485.023L508.772 472.653H488.317L488.535 526.032L467.731 565.222C463.075 573.993 469.432 584.566 479.362 584.566H548.593V577.462H479.362C474.789 577.462 471.861 572.593 474.006 568.553L488.596 541.067L488.634 550.352H511.15L511.075 536.295L507.562 543.369C507.229 544.04 506.218 543.803 506.218 543.053V516.381C506.218 515.989 505.901 515.672 505.509 515.672H498.858C498.323 515.672 497.981 515.103 498.232 514.63L510.882 490.798C511.228 490.145 512.217 490.392 512.217 491.131V496.568L516.074 489.303H526.215C527.695 489.303 528.434 490.043 528.434 491.523V531.087L528.668 530.648C528.841 530.323 529.336 530.446 529.336 530.814V542.702C529.336 542.897 529.494 543.055 529.69 543.055H533.312C533.575 543.055 533.747 543.331 533.63 543.566L530.253 550.352H550.951V508.33L549.999 510.243C549.832 510.578 549.327 510.46 549.327 510.086V496.782C549.327 496.587 549.168 496.428 548.972 496.428H545.646C545.379 496.428 545.208 496.144 545.333 495.909L550.648 485.921C550.036 481.309 548.498 477.89 546.036 475.666C542.759 472.6 537.526 471.067 530.337 471.067H526.215C526.059 471.067 525.905 471.068 525.752 471.071L541.276 441.826ZM553.785 577.462L550.28 584.566H569.571C572.921 584.566 575.636 587.281 575.636 590.631V630.827L578.012 626.323C578.154 626.055 578.558 626.156 578.558 626.46V636.27C578.558 636.431 578.688 636.562 578.848 636.562H581.812C582.027 636.562 582.167 636.79 582.072 636.984L576.654 647.963C576.518 648.239 576.104 648.141 576.104 647.833V636.854C576.104 636.693 575.974 636.562 575.814 636.562H575.636V666.143L582.74 669.566V590.631C582.74 583.358 576.844 577.462 569.571 577.462H553.785ZM879.109 703.464L875.986 709.351C875.855 709.598 876.034 709.896 876.313 709.896H879.145L879.354 747.622C879.188 747.536 878.961 747.573 878.853 747.776L872.24 760.241C872.109 760.488 872.288 760.785 872.568 760.785H876.044C876.249 760.785 876.415 760.951 876.415 761.156V775.106C876.415 775.498 876.944 775.622 877.118 775.271L879.481 770.509L879.6 791.957H872.447V780.757C872.447 780.37 871.93 780.242 871.749 780.583L865.715 791.957H846.129L847.488 789.22C847.61 788.973 847.431 788.684 847.156 788.684H843.369C843.164 788.684 842.998 788.518 842.998 788.313V775.849C842.998 775.462 842.482 775.334 842.3 775.675L836.326 786.937L836.287 777.499L841.682 766.653C841.783 766.45 841.635 766.212 841.408 766.212H838.28C838.111 766.212 837.974 766.075 837.974 765.906V755.634C837.974 755.316 837.547 755.21 837.397 755.491L836.206 757.73L835.947 694.254L847.442 671.119C847.708 670.583 847.318 669.955 846.72 669.955H838.488C838.043 669.955 837.682 669.595 837.682 669.15V642.702H853.941V653.695C853.941 654.087 854.47 654.211 854.644 653.86L860.181 642.702H875.031L877.985 666.567C878.937 659.541 881.201 653.718 884.778 649.099C886.444 647.032 888.417 645.305 890.696 643.917L884.898 654.846C884.767 655.093 884.946 655.39 885.225 655.39H888.702C888.907 655.39 889.073 655.557 889.073 655.761V669.711C889.073 670.103 889.601 670.227 889.775 669.876L896.698 655.926C896.82 655.68 896.641 655.39 896.366 655.39H892.579C892.375 655.39 892.209 655.224 892.209 655.02V643.069C896.624 640.794 902.067 639.656 908.537 639.656H916.152V646.796L909.826 658.72C909.695 658.968 909.874 659.265 910.153 659.265H913.63C913.835 659.265 914.001 659.431 914.001 659.636V673.586C914.001 673.978 914.529 674.102 914.703 673.751L916.152 670.832V677.731H883.255C880.412 677.731 878.99 679.153 878.99 681.996L879.109 703.464ZM836.333 788.684L836.346 791.957H839.863V789.055C839.863 788.85 839.697 788.684 839.492 788.684H836.333ZM582.74 744.284L579.424 750.569C579.322 750.764 579.462 750.998 579.68 750.998H582.401C582.562 750.998 582.691 751.129 582.691 751.29V762.269C582.691 762.334 582.71 762.389 582.74 762.434V952.354C582.74 958.763 591.386 960.791 594.236 955.051L617.363 908.965H624.402L600.599 958.21C594.41 970.675 575.636 966.269 575.636 952.354V709.864L582.74 708.314V744.284ZM433.255 772.823V745.932H430.064C429.785 745.932 429.606 745.634 429.737 745.387L433.255 738.755V625.939L426.631 639.269C426.351 639.833 425.501 639.634 425.501 639.004V616.594C425.501 616.265 425.234 615.998 424.905 615.998H419.311C418.862 615.998 418.574 615.52 418.785 615.123L427.597 598.535H394.571V677.189L396.18 674.155C396.362 673.813 396.878 673.942 396.878 674.329V686.793C396.878 686.998 397.044 687.164 397.249 687.164H401.036C401.311 687.164 401.49 687.453 401.368 687.7L394.571 701.397V714.469L315.679 598.535H293.764V604.036C293.764 604.365 294.031 604.632 294.361 604.632H300.452C300.895 604.632 301.183 605.097 300.986 605.493L289.85 627.903C289.57 628.467 288.72 628.267 288.72 627.638V605.228C288.72 604.899 288.453 604.632 288.124 604.632H284V679.87H290.539C291.245 679.87 291.705 680.611 291.391 681.242L284 696.107V755.033L290.096 743.564C290.561 742.69 291.887 743.02 291.887 744.009L291.887 775.92C291.887 776.444 292.313 776.87 292.838 776.87H302.551C303.257 776.87 303.717 777.61 303.403 778.241L296.583 791.958H322.685V675.907L397.484 786.364L403.155 775.675C403.336 775.334 403.853 775.462 403.853 775.849V788.313C403.853 788.518 404.019 788.684 404.224 788.684H408.01C408.285 788.684 408.465 788.973 408.342 789.22L406.984 791.958H430.166V786.213C430.166 786.008 430 785.842 429.795 785.842H426.318C426.039 785.842 425.86 785.545 425.991 785.298L432.604 772.833C432.752 772.554 433.124 772.589 433.255 772.823ZM400.717 791.139V789.055C400.717 788.85 400.551 788.684 400.347 788.684H399.055L400.717 791.139ZM284 600L284.778 598.535H284V600ZM430.545 598.535V615.402C430.545 615.731 430.812 615.998 431.141 615.998H433.255V598.535H430.545ZM298.289 530.948H288.575C288.05 530.948 287.625 530.523 287.625 529.999L287.625 498.088C287.625 497.098 286.299 496.769 285.834 497.642L285.397 498.465L285.292 472.653H286.202V483.519C286.202 483.987 286.834 484.135 287.043 483.716L292.538 472.653H305.747L307.285 485.076C307.781 481.419 308.959 478.388 310.821 475.983C313.464 472.706 317.587 471.067 323.189 471.067H327.154V490.888H310.028C308.548 490.888 307.808 491.628 307.808 493.108L308.125 550.352H290.175L299.141 532.32C299.454 531.689 298.995 530.948 298.289 530.948ZM336.376 525.957H340.903C341.232 525.957 341.447 526.302 341.3 526.597L334.031 541.23C334.85 543.769 336.08 545.805 337.719 547.339C341.102 550.404 346.335 551.937 353.417 551.937H357.54C363.143 551.937 367.213 550.299 369.75 547.022C371.692 544.536 372.92 541.48 373.435 537.853L374.983 550.352H395.438L395.185 488.308L394.231 490.223C394.065 490.558 393.559 490.44 393.559 490.066V476.762C393.559 476.567 393.401 476.409 393.205 476.409H389.879C389.612 476.409 389.441 476.125 389.566 475.889L391.288 472.653H372.604L372.921 533.702H357.54C356.06 533.702 355.32 532.962 355.32 531.482V472.653H332.803V514.739L335.098 510.418C335.315 510.01 335.933 510.164 335.933 510.626V525.514C335.933 525.758 336.131 525.957 336.376 525.957ZM470.12 476.748C469.792 476.361 469.443 476 469.073 475.666C465.796 472.6 460.563 471.067 453.375 471.067H449.252C443.649 471.067 439.527 472.706 436.884 475.983C435.022 478.388 433.843 481.419 433.348 485.076L431.81 472.653H413.17V475.539C413.17 475.829 413.407 476.065 413.698 476.065H419.09C419.482 476.065 419.737 476.475 419.563 476.824L411.438 493.114L411.583 528.737L412.306 527.382C412.564 526.898 413.3 527.081 413.3 527.628V545.286C413.3 545.576 413.536 545.811 413.827 545.811H419.219C419.611 545.811 419.866 546.221 419.692 546.57L417.806 550.352H434.188L433.871 491.523C433.871 490.043 434.611 489.303 436.091 489.303H449.252C450.732 489.303 451.472 490.043 451.472 491.523V550.352H473.989V503.497L471.574 508.339C471.326 508.837 470.573 508.661 470.573 508.106V488.344C470.573 488.054 470.337 487.818 470.045 487.818H465.095C464.697 487.818 464.442 487.396 464.629 487.047L470.12 476.748ZM857.783 481.93H860.911C861.138 481.93 861.287 482.168 861.185 482.371L855.467 493.867C855.323 494.156 854.887 494.054 854.887 493.731V482.235C854.887 482.066 854.75 481.93 854.58 481.93H853.492L853.682 528.51L854.422 527.123C854.68 526.64 855.416 526.822 855.416 527.37V545.028C855.416 545.318 855.652 545.553 855.943 545.553H861.335C861.727 545.553 861.982 545.963 861.808 546.312L859.793 550.352H876.288L875.971 491.523C875.971 490.043 876.711 489.303 878.191 489.303H891.352C892.832 489.303 893.572 490.043 893.572 491.523V550.352H894.37L901.178 537.585C901.436 537.102 902.172 537.284 902.172 537.832V550.352H916.089V544.394L914.881 546.822C914.737 547.112 914.3 547.009 914.3 546.686V535.191C914.3 535.022 914.163 534.885 913.994 534.885H911.122C910.891 534.885 910.743 534.64 910.852 534.436L916.089 524.589V491.508L911.752 500.202C911.504 500.7 910.752 500.524 910.752 499.969V480.207C910.752 479.916 910.516 479.681 910.224 479.681L905.273 479.681C904.875 479.681 904.621 479.259 904.807 478.909L907.769 473.356C904.644 471.83 900.546 471.067 895.475 471.067H891.352C885.749 471.067 881.627 472.706 878.984 475.983C877.122 478.388 875.943 481.419 875.448 485.076L873.91 472.653H857.477V481.624C857.477 481.793 857.614 481.93 857.783 481.93ZM856.133 472.653H853.454L853.475 477.651L856.133 472.653ZM760.494 486.01H765.886C766.277 486.01 766.533 486.42 766.358 486.769L759.172 501.177V526.566C759.172 531.034 759.853 534.926 761.214 538.244L768.659 524.282C768.917 523.798 769.653 523.981 769.653 524.528V542.186C769.653 542.476 769.889 542.711 770.181 542.711H775.573C775.964 542.711 776.22 543.121 776.045 543.471L772.993 549.59C777.02 551.155 781.927 551.937 787.714 551.937H808.328C817.842 551.937 824.978 549.823 829.735 545.595C834.492 541.26 836.871 534.918 836.871 526.566V473.446C836.871 465.514 834.725 459.441 830.434 455.229L825.493 465.204C825.358 465.475 824.95 465.379 824.95 465.076V454.291C824.95 454.133 824.822 454.004 824.664 454.004H821.981C821.766 454.004 821.627 453.774 821.729 453.583L823.315 450.588C819.239 448.912 814.243 448.075 808.328 448.075H787.714C778.2 448.075 771.065 450.242 766.308 454.576C762.788 457.705 760.57 461.962 759.655 467.347C759.83 467.424 759.966 467.592 759.966 467.827V485.485C759.966 485.775 760.202 486.01 760.494 486.01ZM827.37 452.73V453.717C827.37 453.876 827.498 454.004 827.656 454.004H829.078C828.537 453.554 827.968 453.129 827.37 452.73ZM765.188 544.491V543.237C765.188 542.947 764.952 542.711 764.66 542.711H763.708C764.167 543.334 764.66 543.927 765.188 544.491ZM566.23 462.822H588.746V443.794H566.23V462.822ZM810.865 469.164H785.177C783.697 469.164 782.957 469.904 782.957 471.384V528.628C782.957 530.108 783.697 530.848 785.177 530.848H810.865C812.345 530.848 813.085 530.108 813.085 528.628V471.384C813.085 469.904 812.345 469.164 810.865 469.164ZM720.871 491.206V531.482C720.871 532.962 720.131 533.702 718.651 533.702H705.332C703.852 533.702 703.112 532.962 703.112 531.482V493.426C703.112 491.946 703.852 491.206 705.332 491.206H720.871ZM515.186 662.484H520.372C520.749 662.484 520.994 662.878 520.827 663.214L511.346 682.201C511.107 682.679 510.384 682.51 510.384 681.976V662.989C510.384 662.711 510.156 662.484 509.876 662.484H505.114C504.732 662.484 504.486 662.079 504.666 661.743L513.722 644.778C513.97 644.313 514.678 644.488 514.678 645.014V661.98C514.678 662.259 514.906 662.484 515.186 662.484ZM805.925 502.543H800.534C800.242 502.543 800.006 502.307 800.006 502.017V484.359C800.006 483.812 799.27 483.63 799.012 484.113L789.596 501.771C789.41 502.121 789.664 502.543 790.062 502.543H795.013C795.305 502.543 795.541 502.778 795.541 503.068V522.83C795.541 523.385 796.293 523.561 796.541 523.064L806.398 503.302C806.572 502.952 806.317 502.543 805.925 502.543Z" fill="white"/>
</svg>
