<svg width="9339" height="9339" viewBox="0 0 9339 9339" fill="none" xmlns="http://www.w3.org/2000/svg">
<path fill-rule="evenodd" clip-rule="evenodd" d="M5128.41 1865.44C5082.81 1828.48 5006.6 1832.7 4972.83 1896.31L4772.42 2273.87H4785.41C4790.29 2273.87 4793.48 2279 4791.3 2283.37L4668.39 2530.88C4665.29 2537.11 4655.91 2534.91 4655.91 2527.95V2493.35L4269.59 3221.12V3222.29C4269.59 3225.92 4272.54 3228.87 4276.17 3228.87L4327.74 3228.87L5021.41 1922.1C5044.36 1878.88 5109.84 1895.18 5109.84 1944.12L5109.84 3171.99L5164.84 3068.4L5164.84 1944.12C5164.84 1920.5 5157.81 1900.38 5146.33 1884.4H5125.09C5122.01 1884.4 5120.04 1881.13 5121.48 1878.42L5128.41 1865.44ZM5164.84 3489.51C5161.76 3489.18 5158.91 3486.79 5158.91 3482.95V3235.45C5158.91 3231.81 5155.96 3228.87 5152.33 3228.87H5109.84V3678.89C5089.39 3672.77 5065.03 3669.71 5036.76 3669.71H5004.84C4961.46 3669.71 4929.54 3682.39 4909.08 3707.76C4894.66 3726.38 4885.54 3749.85 4881.7 3778.17L4869.79 3681.98H4711.42L4711.48 3696.53C4713.56 3693.01 4719.08 3694.45 4719.08 3698.62V3835.33C4719.08 3837.58 4720.91 3839.4 4723.16 3839.4H4764.91C4767.94 3839.4 4769.92 3842.57 4768.57 3845.28L4712.55 3957.59L4713.88 4283.55H4888.21L4885.75 3828.08C4885.75 3816.62 4891.48 3810.89 4902.94 3810.89H5004.84C5016.3 3810.89 5022.03 3816.62 5022.03 3828.08V4283.55H5109.84V4378.24L5146.54 4309.07C5147.94 4306.43 5151.94 4307.43 5151.94 4310.42V4406.92C5151.94 4408.51 5153.22 4409.79 5154.81 4409.79H5164.84V4292.42C5164.7 4292.41 5164.56 4292.4 5164.42 4292.4H5126.09C5123.01 4292.4 5121.04 4289.13 5122.48 4286.42L5195.38 4149.71C5195.65 4149.21 5195.98 4148.8 5196.36 4148.48V3823.17C5196.36 3772.52 5185.85 3735.43 5164.84 3711.89V3489.51ZM5165.81 4456.03L5136.46 4515.18C5155.1 4535.62 5181.95 4548.45 5211.8 4548.45H5636.18V4521.39C5636.18 4519.93 5634.99 4518.75 5633.53 4518.75H5608.66C5606.66 4518.75 5605.38 4516.62 5606.31 4514.86L5653.61 4425.95C5654.91 4423.52 5658.61 4424.44 5658.61 4427.19V4516.1C5658.61 4517.56 5659.79 4518.75 5661.26 4518.75H5688.35C5690.31 4518.75 5691.6 4520.81 5690.72 4522.57L5677.84 4548.45H5972.45C6007.3 4548.45 6030.01 4585.07 6014.51 4616.29L5971.07 4703.76H5790.94V4769.92C5790.94 4771.51 5792.22 4772.79 5793.81 4772.79H5823.13C5825.26 4772.79 5826.64 4775.03 5825.7 4776.94L5772.1 4884.95C5771.09 4886.97 5768.56 4886.95 5767.34 4885.55V4998.55H5649.42V5257.97H5695.89L5535.79 5580.42V5741.78C5535.79 5744.49 5537.99 5746.69 5540.72 5746.69H5549.9C5549.64 5724.23 5548.38 5703.1 5546.12 5683.28L5757.3 5257.97H5767.34V5399.79H5795.13C5797.26 5399.79 5798.64 5402.03 5797.7 5403.94L5767.34 5465.12V5800.38C5767.34 5815.69 5767.82 5830.48 5768.77 5844.76L5813.91 5759.83C5816.93 5754.15 5825.54 5756.29 5825.54 5762.72V5970.02C5825.54 5973.43 5828.31 5976.19 5831.72 5976.19H5894.82C5899.4 5976.19 5902.39 5981 5900.35 5985.1L5858.7 6068.87C5859.68 6069.78 5860.67 6070.69 5861.67 6071.59C5924.56 6126.62 6026.75 6154.13 6168.25 6154.13H6234.66V6153.67C6234.66 6152.08 6233.38 6150.79 6231.79 6150.79H6204.87C6202.71 6150.79 6201.32 6148.49 6202.34 6146.58L6253.54 6050.07C6254.94 6047.43 6258.94 6048.43 6258.94 6051.42V6147.92C6258.94 6149.51 6260.22 6150.79 6261.81 6150.79H6291.13C6292.96 6150.79 6294.24 6152.45 6293.96 6154.13H6361.64V5871.13H6135.24C6113.23 5871.13 6102.22 5860.13 6102.22 5838.11V5257.97H6361.64V4998.55H6244.91L6194.1 5100.95C6192.75 5103.66 6188.66 5102.7 6188.66 5099.67V4998.55H6102.22V4876.64L6098.1 4884.95C6096.75 4887.66 6092.66 4886.7 6092.66 4883.67V4775.67C6092.66 4774.08 6091.38 4772.79 6089.79 4772.79H6062.87C6060.71 4772.79 6059.32 4770.49 6060.34 4768.58L6094.73 4703.76H6032.48L6063.77 4640.75C6083.14 4601.74 6075.02 4558.83 6050.22 4529.44L6032.1 4565.95C6030.75 4568.66 6026.66 4567.7 6026.66 4564.67V4508.92C6011.23 4499.19 5992.79 4493.45 5972.45 4493.45H5720.19C5723.96 4490.75 5727.51 4487.9 5730.84 4484.89C5754.11 4464.53 5769.11 4435.08 5775.84 4396.53L5748.2 4452.07C5746.96 4454.57 5743.18 4453.69 5743.18 4450.89V4351.39C5743.18 4349.93 5741.99 4348.75 5740.53 4348.75H5715.66C5713.66 4348.75 5712.38 4346.62 5713.31 4344.86L5760.61 4255.95C5761.91 4253.52 5765.61 4254.44 5765.61 4257.19V4346.1C5765.61 4347.56 5766.79 4348.75 5768.26 4348.75H5779.93C5779.95 4347.48 5779.95 4346.21 5779.95 4344.94V3870.47L5769.2 3892.07C5767.96 3894.57 5764.18 3893.69 5764.18 3890.89V3791.39C5764.18 3789.93 5762.99 3788.75 5761.53 3788.75H5736.66C5734.66 3788.75 5733.38 3786.62 5734.31 3784.86L5779.95 3699.08V3681.98L5479.17 3678.3C5412.06 3677.48 5364.58 3689.76 5336.76 3715.13C5308.93 3739.69 5295.02 3782.65 5295.02 3844.04V3881.53L5318.38 3837.71C5320.38 3833.97 5326.08 3835.38 5326.08 3839.62V3976.33C5326.08 3978.58 5327.91 3980.4 5330.16 3980.4H5371.91C5374.94 3980.4 5376.92 3983.57 5375.57 3986.28L5299.25 4139.28C5298.36 4141.07 5296.62 4141.73 5295.02 4141.5V4142.37C5295.02 4197.2 5307.7 4236.49 5333.07 4260.22C5359.26 4283.96 5399.78 4295.83 5454.61 4295.83H5485.31C5528.69 4295.83 5560.2 4283.14 5579.84 4257.77C5591.46 4242.27 5599.65 4223.91 5604.39 4202.67V4367.03C5604.39 4378.49 5598.66 4384.22 5587.21 4384.22H5323.25V4493.45H5211.8C5189.13 4493.45 5170.22 4477.39 5165.81 4456.03ZM5549.96 5845.3L5503.44 5938.81C5501.12 5943.46 5494.09 5941.82 5494.09 5936.62V5751.61C5494.09 5748.9 5491.89 5746.69 5489.17 5746.69H5442.94C5439.22 5746.69 5436.84 5742.75 5438.58 5739.47L5521.75 5583.1C5509.97 5554.87 5494.49 5531.53 5475.32 5513.07L5447.1 5569.95C5445.75 5572.66 5441.66 5571.7 5441.66 5568.67V5487.01C5407.46 5466.04 5362.22 5451.69 5305.94 5443.96V5454.92C5305.94 5456.51 5307.22 5457.79 5308.81 5457.79H5338.13C5340.26 5457.79 5341.64 5460.03 5340.7 5461.94L5287.1 5569.95C5285.75 5572.66 5281.66 5571.7 5281.66 5568.67V5460.67C5281.66 5459.08 5280.38 5457.79 5278.79 5457.79H5251.87C5249.71 5457.79 5248.32 5455.49 5249.34 5453.58L5257.02 5439.09C5237.8 5437.83 5217.53 5437.2 5196.21 5437.2H5073.57C5051.56 5437.2 5040.56 5426.2 5040.56 5404.19V5290.99C5040.56 5268.98 5051.56 5257.97 5073.57 5257.97L5479.21 5260.33V5066.25L5447.1 5130.95C5445.75 5133.66 5441.66 5132.7 5441.66 5129.67V5021.67C5441.66 5020.08 5440.38 5018.79 5438.79 5018.79H5411.87C5409.71 5018.79 5408.32 5016.49 5409.34 5014.58L5429.25 4977.04L5068.86 4974.97C5056.63 4974.82 5044.72 4974.92 5033.13 4975.27L4992.1 5057.95C4990.75 5060.66 4986.66 5059.7 4986.66 5056.67V4978.14C4955.35 4981.16 4926.77 4986.3 4900.9 4993.56C4901.12 4994.75 4900.98 4996.03 4900.38 4997.25L4790.27 5219.26C4787.5 5224.84 4779.1 5222.87 4779.1 5216.63V5061.72C4739.4 5103.2 4715.3 5164.6 4706.8 5245.93C4710.76 5247.76 4714.63 5249.6 4718.38 5251.47C4739.3 5261.85 4763.96 5276.08 4777.74 5295.26C4787.6 5308.99 4791.29 5325.62 4792.82 5338.5C4794.48 5352.4 4794.21 5367.32 4792.65 5381.42C4791.08 5395.54 4788.07 5410.08 4783.57 5423.23C4779.37 5435.51 4772.58 5450.42 4761.28 5461.72C4755.13 5467.87 4747.89 5471.58 4743.97 5473.47C4739.11 5475.81 4733.68 5477.95 4728.21 5479.91C4723.3 5481.66 4717.83 5483.45 4711.91 5485.27C4718.34 5520.3 4728.38 5550.65 4742.04 5576.33L4774.54 5515.07C4775.94 5512.43 4779.94 5513.43 4779.94 5516.42V5612.92C4779.94 5614.51 4781.22 5615.79 4782.81 5615.79H4812.13C4814.26 5615.79 4815.64 5618.03 4814.7 5619.94L4802.21 5645.1C4825.14 5660.74 4853.29 5673.12 4886.66 5682.24V5670.67C4886.66 5669.08 4885.38 5667.79 4883.79 5667.79H4856.87C4854.71 5667.79 4853.32 5665.49 4854.34 5663.58L4905.54 5567.07C4906.94 5564.43 4910.94 5565.43 4910.94 5568.42V5664.92C4910.94 5666.51 4912.22 5667.79 4913.81 5667.79H4943.13C4945.26 5667.79 4946.64 5670.03 4945.7 5671.94L4935.42 5692.65C4971.34 5698.44 5011.88 5701.34 5057.06 5701.34H5186.77C5208.78 5701.34 5219.79 5712.34 5219.79 5734.35V5852.27C5219.79 5874.28 5208.78 5885.29 5186.77 5885.29H4726.9L4728.96 6121.83L4758.54 6066.07C4759.94 6063.43 4763.94 6064.43 4763.94 6067.42V6156.49H4798.03L4820.54 6114.07C4821.94 6111.43 4825.94 6112.43 4825.94 6115.42V6156.49H4894.7L4905.54 6136.07C4906.94 6133.43 4910.94 6134.43 4910.94 6137.42V6156.49H5243.37C5245.52 6156.49 5247.65 6156.48 5249.76 6156.47C5249.76 6156.47 4993.47 6649.47 5000.5 6657.04C5026 6684.54 5018.5 6741.04 5018.5 6741.04L5306.2 6166.37C5305.93 6165.78 5305.92 6165.08 5306.26 6164.43L5345.21 6090.71C5346.28 6088.69 5349.32 6089.46 5349.32 6091.74V6147.28C5401.79 6137.02 5443.31 6118.19 5473.91 6090.79H5457.87C5455.71 6090.79 5454.32 6088.49 5455.34 6086.58L5506.54 5990.07C5507.94 5987.43 5511.94 5988.43 5511.94 5991.42V6042.98C5537.28 5998.09 5549.96 5937.66 5549.96 5861.7V5845.3ZM5465.94 4977.25V5015.92C5465.94 5017.51 5467.22 5018.79 5468.81 5018.79H5479.21V4977.33L5465.94 4977.25ZM5767.34 4706.37L5768.73 4703.76H5767.34V4706.37ZM5127.66 4504.09V4412.67C5127.66 4411.08 5126.38 4409.79 5124.79 4409.79H5109.84V4446.49C5109.84 4467.86 5116.42 4487.7 5127.66 4504.09ZM4581.44 3698.86L4538.48 3779.42C4537.04 3782.13 4539.01 3785.4 4542.09 3785.4L4580.42 3785.4C4580.77 3785.4 4581.12 3785.44 4581.44 3785.53V4283.55H4486.45L4493.57 4269.28C4494.92 4266.57 4492.94 4263.4 4489.91 4263.4H4448.16C4445.91 4263.4 4444.08 4261.58 4444.08 4259.33V4122.62C4444.08 4118.38 4438.38 4116.97 4436.38 4120.71L4407.11 4175.61V3681.98H4581.44V3698.86ZM4407.11 4263.76V4283.55H4409.51V4267.47C4409.51 4265.82 4408.52 4264.4 4407.11 4263.76ZM4213.91 3443.31V3326.01L4020.75 3689.9C4013.5 3694.92 4007.1 3700.87 4001.54 3707.76C3987.24 3726.23 3978.15 3749.47 3974.26 3777.48L3974.11 3777.75L3962.25 3681.98H3803.88L3805.57 4095.26L3644.5 4398.68C3608.46 4466.59 3657.67 4548.45 3734.56 4548.45H4270.56V4493.45H3734.56C3699.15 4493.45 3676.48 4455.75 3693.08 4424.47L3806.04 4211.67L3806.34 4283.55H3980.67L3980.08 4174.72L3952.89 4229.49C3950.31 4234.68 3942.48 4232.85 3942.48 4227.05V4020.54C3942.48 4017.51 3940.03 4015.05 3936.99 4015.05H3885.5C3881.36 4015.05 3878.71 4010.64 3880.65 4006.99L3978.59 3822.47C3981.27 3817.42 3988.93 3819.32 3988.93 3825.04V3867.14L4018.79 3810.89H4097.3C4108.76 3810.89 4114.49 3816.62 4114.49 3828.08V4134.4L4116.29 4131C4117.64 4128.48 4121.46 4129.43 4121.46 4132.29V4224.32C4121.46 4225.83 4122.69 4227.06 4124.21 4227.06H4152.25C4154.29 4227.06 4155.62 4229.2 4154.71 4231.02L4128.56 4283.55H4288.82V3958.2L4281.45 3973.02C4280.16 3975.61 4276.24 3974.7 4276.24 3971.8V3868.8C4276.24 3867.29 4275.01 3866.06 4273.5 3866.06H4247.75C4245.68 3866.06 4244.35 3863.86 4245.32 3862.04L4286.47 3784.71C4281.73 3749 4269.83 3722.53 4250.76 3705.31C4225.39 3681.57 4184.88 3669.71 4129.22 3669.71H4097.3C4096.1 3669.71 4094.9 3669.72 4093.72 3669.74L4213.91 3443.31ZM4310.76 4493.45L4283.62 4548.45H4432.98C4458.91 4548.45 4479.94 4569.47 4479.94 4595.4V4906.62L4498.33 4871.75C4499.43 4869.67 4502.56 4870.45 4502.56 4872.81V4948.76C4502.56 4950.01 4503.57 4951.02 4504.81 4951.02H4527.75C4529.42 4951.02 4530.5 4952.78 4529.76 4954.28L4487.82 5039.29C4486.76 5041.42 4483.56 5040.67 4483.56 5038.28V4953.28C4483.56 4952.03 4482.56 4951.02 4481.32 4951.02H4479.94V5180.04L4534.94 5206.54V4595.4C4534.94 4539.09 4489.29 4493.45 4432.98 4493.45H4310.76ZM6829.52 5468.99L6805.34 5514.58C6804.32 5516.49 6805.71 5518.79 6807.87 5518.79H6829.8L6831.42 5810.88C6830.13 5810.22 6828.37 5810.5 6827.54 5812.07L6776.34 5908.58C6775.32 5910.49 6776.71 5912.79 6778.87 5912.79H6805.79C6807.38 5912.79 6808.66 5914.08 6808.66 5915.67V6023.67C6808.66 6026.7 6812.75 6027.66 6814.1 6024.95L6832.4 5988.08L6833.32 6154.14H6777.94V6067.42C6777.94 6064.43 6773.94 6063.43 6772.54 6066.07L6725.82 6154.14H6574.18L6584.7 6132.94C6585.64 6131.03 6584.26 6128.79 6582.13 6128.79H6552.81C6551.22 6128.79 6549.94 6127.51 6549.94 6125.92V6029.42C6549.94 6026.43 6545.94 6025.43 6544.54 6028.07L6498.28 6115.27L6497.98 6042.19L6539.75 5958.22C6540.53 5956.65 6539.39 5954.81 6537.63 5954.81H6513.41C6512.1 5954.81 6511.04 5953.75 6511.04 5952.44V5872.91C6511.04 5870.45 6507.73 5869.63 6506.57 5871.8L6497.35 5889.14L6495.35 5397.69L6584.34 5218.57C6586.4 5214.42 6583.38 5209.56 6578.75 5209.56H6515.02C6511.58 5209.56 6508.78 5206.77 6508.78 5203.32V4998.56H6634.66V5083.67C6634.66 5086.7 6638.75 5087.66 6640.1 5084.95L6682.97 4998.56H6797.94L6820.82 5183.32C6828.19 5128.93 6845.72 5083.85 6873.41 5048.08C6886.31 5032.08 6901.58 5018.71 6919.23 5007.96L6874.34 5092.58C6873.32 5094.49 6874.71 5096.79 6876.87 5096.79H6903.79C6905.38 5096.79 6906.66 5098.08 6906.66 5099.67V5207.67C6906.66 5210.7 6910.75 5211.66 6912.1 5208.95L6965.7 5100.94C6966.64 5099.03 6965.26 5096.79 6963.13 5096.79H6933.81C6932.22 5096.79 6930.94 5095.51 6930.94 5093.92V5001.4C6965.12 4983.78 7007.26 4974.97 7057.36 4974.97H7116.32V5030.25L7067.34 5122.58C7066.32 5124.49 7067.71 5126.79 7069.87 5126.79H7096.79C7098.38 5126.79 7099.66 5128.08 7099.66 5129.67V5237.67C7099.66 5240.7 7103.75 5241.66 7105.1 5238.95L7116.32 5216.34V5269.76H6861.62C6839.61 5269.76 6828.6 5280.77 6828.6 5302.78L6829.52 5468.99ZM6498.33 6128.79L6498.44 6154.14H6525.66V6131.67C6525.66 6130.08 6524.38 6128.79 6522.79 6128.79H6498.33ZM4534.94 5785.04L4509.27 5833.7C4508.47 5835.2 4509.56 5837.02 4511.25 5837.02H4532.32C4533.56 5837.02 4534.56 5838.03 4534.56 5839.28V5924.28C4534.56 5924.78 4534.7 5925.21 4534.94 5925.56V7395.98C4534.94 7445.6 4601.88 7461.3 4623.95 7416.86L4803 7060.04H4857.5L4673.21 7441.32C4625.29 7537.82 4479.94 7503.71 4479.94 7395.98V5518.54L4534.94 5506.54V5785.04ZM3377.58 6005.99V5797.79H3352.87C3350.71 5797.79 3349.32 5795.49 3350.34 5793.58L3377.58 5742.23V4868.77L3326.29 4971.98C3324.12 4976.34 3317.54 4974.8 3317.54 4969.92V4796.42C3317.54 4793.87 3315.48 4791.81 3312.93 4791.81H3269.62C3266.14 4791.81 3263.91 4788.1 3265.55 4785.03L3333.77 4656.6H3078.07V5265.56L3090.54 5242.07C3091.94 5239.43 3095.94 5240.43 3095.94 5243.42V5339.92C3095.94 5341.51 3097.22 5342.79 3098.81 5342.79H3128.13C3130.26 5342.79 3131.64 5345.03 3130.7 5346.94L3078.07 5452.99V5554.2L2467.27 4656.6H2297.6V4699.19C2297.6 4701.74 2299.67 4703.81 2302.22 4703.81H2349.38C2352.8 4703.81 2355.04 4707.4 2353.51 4710.47L2267.29 4883.98C2265.12 4888.34 2258.54 4886.8 2258.54 4881.92V4708.42C2258.54 4705.87 2256.48 4703.81 2253.93 4703.81H2222V5286.32H2272.63C2278.09 5286.32 2281.65 5292.06 2279.22 5296.94L2222 5412.03V5868.25L2269.2 5779.46C2272.8 5772.69 2283.06 5775.25 2283.06 5782.91L2283.06 6029.97C2283.06 6034.03 2286.36 6037.32 2290.42 6037.32H2365.63C2371.09 6037.32 2374.65 6043.06 2372.22 6047.94L2319.42 6154.14H2521.51V5255.64L3100.63 6110.83L3144.54 6028.07C3145.94 6025.43 3149.94 6026.43 3149.94 6029.42V6125.92C3149.94 6127.51 3151.22 6128.79 3152.81 6128.79H3182.13C3184.26 6128.79 3185.64 6131.03 3184.7 6132.94L3174.18 6154.14H3353.66V6109.67C3353.66 6108.08 3352.38 6106.79 3350.79 6106.79H3323.87C3321.71 6106.79 3320.32 6104.49 3321.34 6102.58L3372.54 6006.07C3373.68 6003.91 3376.57 6004.19 3377.58 6005.99ZM3125.66 6147.8V6131.67C3125.66 6130.08 3124.38 6128.79 3122.79 6128.79H3112.79L3125.66 6147.8ZM2222 4667.94L2228.02 4656.6H2222V4667.94ZM3356.6 4656.6V4787.19C3356.6 4789.74 3358.67 4791.81 3361.22 4791.81H3377.58V4656.6H3356.6ZM2332.63 4133.32H2257.42C2253.36 4133.32 2250.06 4130.03 2250.06 4125.97L2250.06 3878.91C2250.06 3871.25 2239.8 3868.69 2236.2 3875.46L2232.82 3881.83L2232 3681.98H2239.05V3766.11C2239.05 3769.73 2243.94 3770.88 2245.56 3767.63L2288.1 3681.98H2390.37L2402.28 3778.17C2406.12 3749.85 2415.24 3726.38 2429.66 3707.76C2450.12 3682.39 2482.04 3669.71 2525.42 3669.71H2556.11V3823.17H2423.52C2412.06 3823.17 2406.33 3828.9 2406.33 3840.35L2408.79 4283.55H2269.81L2339.22 4143.94C2341.65 4139.06 2338.09 4133.32 2332.63 4133.32ZM2627.51 4094.68H2662.56C2665.11 4094.68 2666.77 4097.35 2665.64 4099.63L2609.36 4212.93C2615.7 4232.59 2625.22 4248.35 2637.91 4260.22C2664.1 4283.96 2704.61 4295.83 2759.45 4295.83H2791.37C2834.75 4295.83 2866.26 4283.14 2885.9 4257.77C2900.94 4238.52 2910.45 4214.86 2914.44 4186.78L2926.42 4283.55H3084.79L3082.83 3803.19L3075.45 3818.02C3074.16 3820.61 3070.24 3819.7 3070.24 3816.8V3713.8C3070.24 3712.29 3069.01 3711.06 3067.5 3711.06H3041.75C3039.68 3711.06 3038.35 3708.86 3039.32 3707.04L3052.66 3681.98H2908L2910.46 4154.64H2791.37C2779.91 4154.64 2774.18 4148.91 2774.18 4137.46V3681.98H2599.85V4007.83L2617.62 3974.37C2619.3 3971.21 2624.08 3972.41 2624.08 3975.98V4091.25C2624.08 4093.14 2625.62 4094.68 2627.51 4094.68ZM3663 3713.69C3660.46 3710.69 3657.76 3707.89 3654.89 3705.31C3629.52 3681.57 3589.01 3669.71 3533.35 3669.71H3501.43C3458.05 3669.71 3426.13 3682.39 3405.67 3707.76C3391.26 3726.38 3382.13 3749.85 3378.3 3778.17L3366.39 3681.98H3222.08V3704.33C3222.08 3706.58 3223.91 3708.4 3226.16 3708.4H3267.91C3270.94 3708.4 3272.92 3711.57 3271.57 3714.28L3208.66 3840.4L3209.79 4116.2L3215.38 4105.71C3217.38 4101.97 3223.08 4103.38 3223.08 4107.62V4244.33C3223.08 4246.58 3224.91 4248.4 3227.16 4248.4H3268.91C3271.94 4248.4 3273.92 4251.57 3272.57 4254.28L3257.97 4283.55H3384.8L3382.35 3828.08C3382.35 3816.62 3388.08 3810.89 3399.53 3810.89H3501.43C3512.89 3810.89 3518.62 3816.62 3518.62 3828.08V4283.55H3692.95V3920.79L3674.25 3958.28C3672.33 3962.13 3666.51 3960.77 3666.51 3956.47V3803.47C3666.51 3801.22 3664.68 3799.4 3662.42 3799.4H3624.09C3621.01 3799.4 3619.04 3796.13 3620.48 3793.42L3663 3713.69ZM6664.41 3753.81H6688.63C6690.39 3753.81 6691.53 3755.65 6690.75 3757.22L6646.48 3846.23C6645.36 3848.47 6641.98 3847.67 6641.98 3845.17V3756.17C6641.98 3754.86 6640.92 3753.81 6639.61 3753.81H6631.18L6632.66 4114.45L6638.38 4103.71C6640.38 4099.97 6646.08 4101.38 6646.08 4105.62V4242.33C6646.08 4244.58 6647.91 4246.4 6650.16 4246.4H6691.91C6694.94 4246.4 6696.92 4249.57 6695.57 4252.28L6679.97 4283.55H6807.68L6805.22 3828.08C6805.22 3816.62 6810.95 3810.89 6822.41 3810.89H6924.31C6935.77 3810.89 6941.5 3816.62 6941.5 3828.08V4283.55H6947.68L7000.38 4184.71C7002.38 4180.97 7008.08 4182.38 7008.08 4186.62V4283.55H7115.83V4237.43L7106.48 4256.23C7105.36 4258.47 7101.98 4257.67 7101.98 4255.17V4166.17C7101.98 4164.86 7100.92 4163.81 7099.61 4163.81H7077.37C7075.59 4163.81 7074.44 4161.91 7075.28 4160.33L7115.83 4084.08V3827.97L7082.25 3895.28C7080.33 3899.13 7074.51 3897.77 7074.51 3893.47V3740.47C7074.51 3738.22 7072.68 3736.4 7070.42 3736.4L7032.09 3736.4C7029.01 3736.4 7027.04 3733.13 7028.48 3730.42L7051.41 3687.43C7027.22 3675.61 6995.49 3669.71 6956.23 3669.71H6924.31C6880.93 3669.71 6849.01 3682.39 6828.55 3707.76C6814.13 3726.38 6805.01 3749.85 6801.17 3778.17L6789.26 3681.98H6662.04V3751.44C6662.04 3752.75 6663.1 3753.81 6664.41 3753.81ZM6651.63 3681.98H6630.89L6631.05 3720.68L6651.63 3681.98ZM5911.16 3785.4H5952.91C5955.94 3785.4 5957.92 3788.57 5956.57 3791.28L5900.93 3902.83V4099.4C5900.93 4133.99 5906.2 4164.12 5916.74 4189.81L5974.38 4081.71C5976.38 4077.97 5982.08 4079.38 5982.08 4083.62V4220.33C5982.08 4222.58 5983.91 4224.4 5986.16 4224.4H6027.91C6030.94 4224.4 6032.92 4227.57 6031.57 4230.28L6007.94 4277.66C6039.11 4289.77 6077.11 4295.83 6121.91 4295.83H6281.51C6355.17 4295.83 6410.42 4279.46 6447.25 4246.72C6484.08 4213.16 6502.5 4164.06 6502.5 4099.4V3688.12C6502.5 3626.71 6485.88 3579.7 6452.66 3547.08L6414.4 3624.31C6413.36 3626.41 6410.21 3625.67 6410.21 3623.32V3539.82C6410.21 3538.59 6409.21 3537.6 6407.99 3537.6H6387.22C6385.55 3537.6 6384.48 3535.82 6385.26 3534.34L6397.54 3511.15C6365.98 3498.18 6327.31 3491.69 6281.51 3491.69H6121.91C6048.25 3491.69 5993.01 3508.47 5956.18 3542.03C5928.93 3566.25 5911.76 3599.21 5904.67 3640.9C5906.03 3641.5 5907.08 3642.8 5907.08 3644.62V3781.33C5907.08 3783.58 5908.91 3785.4 5911.16 3785.4ZM6428.94 3527.73V3535.38C6428.94 3536.6 6429.93 3537.6 6431.16 3537.6H6442.17C6437.98 3534.11 6433.57 3530.82 6428.94 3527.73ZM5947.51 4238.17V4228.47C5947.51 4226.22 5945.68 4224.4 5943.42 4224.4H5936.05C5939.6 4229.22 5943.42 4233.81 5947.51 4238.17ZM4407.11 3605.87H4581.44V3458.54H4407.11V3605.87ZM6301.16 3654.97H6102.27C6090.81 3654.97 6085.08 3660.7 6085.08 3672.16V4115.36C6085.08 4126.82 6090.81 4132.54 6102.27 4132.54H6301.16C6312.61 4132.54 6318.34 4126.82 6318.34 4115.36V3672.16C6318.34 3660.7 6312.61 3654.97 6301.16 3654.97ZM5604.39 3825.62V4137.46C5604.39 4148.91 5598.66 4154.64 5587.21 4154.64H5484.08C5472.62 4154.64 5466.89 4148.91 5466.89 4137.46V3842.81C5466.89 3831.35 5472.62 3825.62 5484.08 3825.62H5604.39ZM4011.91 5151.72H4052.06C4054.98 5151.72 4056.88 5154.77 4055.58 5157.36L3982.18 5304.37C3980.34 5308.07 3974.73 5306.76 3974.73 5302.63V5155.63C3974.73 5153.47 3972.97 5151.72 3970.8 5151.72H3933.94C3930.97 5151.72 3929.07 5148.58 3930.46 5145.98L4000.58 5014.63C4002.5 5011.03 4007.98 5012.39 4007.98 5016.46V5147.81C4007.98 5149.97 4009.74 5151.72 4011.91 5151.72ZM6262.91 3913.4H6221.16C6218.91 3913.4 6217.08 3911.58 6217.08 3909.33V3772.62C6217.08 3768.38 6211.38 3766.97 6209.38 3770.71L6136.48 3907.42C6135.04 3910.13 6137.01 3913.4 6140.09 3913.4H6178.42C6180.68 3913.4 6182.51 3915.22 6182.51 3917.47V4070.47C6182.51 4074.77 6188.33 4076.13 6190.25 4072.28L6266.57 3919.28C6267.92 3916.57 6265.94 3913.4 6262.91 3913.4Z" fill="white"/>
</svg>
